<svg width="120" height="120" viewBox="0 0 120 120" fill="none" xmlns="http://www.w3.org/2000/svg">
<path fill-rule="evenodd" clip-rule="evenodd" d="M25.7778 11C17.6162 11 11 17.6162 11 25.7778V94.2222C11 102.384 17.6162 109 25.7778 109H94.2222C102.384 109 109 102.384 109 94.2222V25.7778C109 17.6162 102.384 11 94.2222 11H25.7778ZM47.5555 18.3889C47.5555 18.9812 47.7253 19.5338 48.0188 20.0008L33.2284 34.7266C32.7692 34.5725 32.2777 34.4889 31.7666 34.4889C29.2323 34.4889 27.1777 36.5434 27.1777 39.0778C27.1777 40.5474 27.8686 41.8557 28.9432 42.6955L21.4073 63.8947C21.335 63.8908 21.2622 63.8888 21.1889 63.8888C18.9982 63.8888 17.2222 65.6647 17.2222 67.8555C17.2222 69.5826 18.326 71.0519 19.8666 71.5964V92.7669C17.9096 93.1941 16.4444 94.9371 16.4444 97.0222C16.4444 99.4277 18.3945 101.378 20.8 101.378C22.9377 101.378 24.7158 99.8376 25.0851 97.8064L61.4304 95.3516C62.0396 96.7034 63.3988 97.6444 64.9777 97.6444C66.2651 97.6444 67.4064 97.0189 68.1142 96.0551L84.0239 101.485C84.3654 103.284 85.9461 104.644 87.8445 104.644C89.9922 104.644 91.7334 102.903 91.7334 100.755C91.7334 99.8927 91.4524 99.0956 90.977 98.4505L99.991 78.5034C102.024 78.3763 103.633 76.6872 103.633 74.6222C103.633 72.7943 102.372 71.261 100.673 70.8448L96.2497 47.9359C97.5468 47.2011 98.4222 45.8084 98.4222 44.2111C98.4222 41.8486 96.507 39.9333 94.1444 39.9333C93.6551 39.9333 93.185 40.0155 92.7471 40.1667L81.036 26.9583C81.5052 26.2385 81.7779 25.3789 81.7779 24.4556C81.7779 21.9212 79.7233 19.8667 77.189 19.8667C75.4147 19.8667 73.8755 20.8737 73.112 22.3473L53.6217 18.3346C53.5928 16.6844 52.246 15.3556 50.5889 15.3556C48.9136 15.3556 47.5555 16.7136 47.5555 18.3889ZM90.8236 41.5144L79.3083 28.5268C78.6743 28.8575 77.9535 29.0445 77.189 29.0445C76.2614 29.0445 75.3981 28.7692 74.6763 28.296L63.2805 42.7518C63.6407 43.2209 63.9228 43.7531 64.1075 44.3289L89.9657 43.2918C90.1109 42.6286 90.41 42.0231 90.8236 41.5144ZM73.0957 26.5321L61.4824 41.2637C60.7793 40.9102 59.9852 40.7111 59.1445 40.7111C58.8816 40.7111 58.6232 40.7306 58.3707 40.7682L52.4901 20.7526C52.5751 20.6841 52.6564 20.6112 52.7335 20.534L72.6031 24.6248C72.628 25.3095 72.8028 25.9558 73.0957 26.5321ZM50.2494 21.4035L56.1914 41.6281C55.2385 42.2847 54.5149 43.2502 54.1654 44.38L36.3521 39.2573C36.3544 39.1977 36.3555 39.1379 36.3555 39.0778C36.3555 37.9154 35.9233 36.854 35.2109 36.0454L49.9631 21.3576C50.057 21.3773 50.1525 21.3927 50.2494 21.4035ZM35.6715 41.4894L54.0005 46.7605C54.1822 47.8844 54.7234 48.8879 55.5023 49.6492L45.1422 66.0617C44.7969 65.9636 44.4324 65.9111 44.0556 65.9111C43.8341 65.9111 43.6168 65.9292 43.4051 65.9642L34.3501 42.8709C34.8813 42.5084 35.3324 42.0373 35.6715 41.4894ZM47.0988 67.3333C47.4747 67.7824 47.753 68.3159 47.9012 68.9012L75.3353 69.6749C75.537 69.2179 75.8087 68.7988 76.1369 68.4312L62.058 50.2435C61.2263 50.8053 60.2237 51.1334 59.1445 51.1334C58.5674 51.1334 58.0122 51.0395 57.4933 50.8663L47.0988 67.3333ZM47.785 71.2322C47.6411 71.6285 47.4357 71.9954 47.1805 72.3213L63.3177 90.2378C63.8211 89.9998 64.3839 89.8667 64.9777 89.8667C65.4579 89.8667 65.9177 89.9537 66.3423 90.1128L75.8768 74.4288C75.361 73.7395 75.0283 72.9053 74.9508 71.9983L47.785 71.2322ZM44.0556 73.8444C43.4927 73.8444 42.9572 73.7272 42.4721 73.5157L24.3365 94.4793C24.5575 94.786 24.7395 95.1227 24.8754 95.482L61.1561 93.0315C61.2377 92.5984 61.3911 92.1906 61.6034 91.821L45.248 73.6621C44.8716 73.7805 44.4711 73.8444 44.0556 73.8444ZM40.7014 71.9962C40.4888 71.6603 40.3253 71.2903 40.2209 70.8963L24.573 69.9259C24.0458 70.7858 23.2 71.4293 22.2 71.6921V92.8965C22.3072 92.9329 22.4125 92.9733 22.5157 93.0176L40.7014 71.9962ZM40.3117 68.5641C40.52 67.9702 40.8657 67.4409 41.3106 67.0143L32.1497 43.6509C32.0234 43.6614 31.8956 43.6667 31.7666 43.6667C31.5374 43.6667 31.3121 43.6499 31.0919 43.6174L23.5964 64.7027C24.4869 65.3837 25.0803 66.4334 25.1489 67.6238L40.3117 68.5641ZM77.7089 75.9069L68.1907 91.564C68.6172 92.188 68.8666 92.9427 68.8666 93.7555C68.8666 93.7743 68.8665 93.7931 68.8662 93.8118C68.8661 93.8232 68.8658 93.8346 68.8656 93.8461L84.3156 99.1191C84.6311 98.4399 85.1369 97.867 85.7646 97.4689L79.9542 76.3255C79.8627 76.3307 79.7706 76.3334 79.6778 76.3334C78.9754 76.3334 78.3087 76.1808 77.7089 75.9069ZM82.1803 75.6205L88.02 96.8705C88.3768 96.8863 88.7211 96.9503 89.0467 97.056L97.6915 77.9257C97.015 77.5044 96.4773 76.881 96.1629 76.14L84.3356 72.4962C84.0806 73.8132 83.2809 74.9359 82.1803 75.6205ZM84.1486 69.997L95.9802 73.6421C96.2944 72.4317 97.1771 71.4503 98.3262 71L93.9794 48.4858C93.5043 48.4677 93.049 48.3722 92.6258 48.2115L82.4138 67.7124C83.2052 68.2719 83.8177 69.0677 84.1486 69.997ZM80.2184 66.875L90.7342 46.794C90.467 46.4418 90.2531 46.047 90.1046 45.6214L64.3043 46.6562C64.2103 47.3235 63.9898 47.9502 63.6679 48.5114L78.0744 67.1223C78.5753 66.9425 79.1151 66.8445 79.6778 66.8445C79.8606 66.8445 80.041 66.8549 80.2184 66.875Z" fill="#4E7F7B"/>
</svg>
