<svg width="120" height="120" viewBox="0 0 120 120" fill="none" xmlns="http://www.w3.org/2000/svg">
<g clip-path="url(#clip0_2042_5340)">
<circle cx="59.6113" cy="59.5566" r="59.5566" fill="#F98340"/>
<circle cx="59.56" cy="59.6107" r="39.2189" stroke="white" stroke-width="3.23677"/>
<path d="M49.2844 55.819H43.5038C43.4267 55.2255 43.2687 54.6898 43.0297 54.2119C42.7908 53.7341 42.4748 53.3256 42.0817 52.9864C41.6886 52.6473 41.2223 52.3891 40.6828 52.2118C40.151 52.0269 39.5614 51.9344 38.9139 51.9344C37.7655 51.9344 36.7751 52.2157 35.9427 52.7783C35.118 53.341 34.4821 54.1541 34.0351 55.2178C33.5958 56.2814 33.3761 57.5686 33.3761 59.0792C33.3761 60.6516 33.5996 61.9695 34.0466 63.0332C34.5014 64.0891 35.1373 64.8868 35.9543 65.4264C36.779 65.9582 37.754 66.2241 38.8793 66.2241C39.5113 66.2241 40.0855 66.1432 40.6019 65.9813C41.126 65.8194 41.5846 65.5844 41.9777 65.2761C42.3785 64.9601 42.706 64.5785 42.9604 64.1315C43.2224 63.6768 43.4036 63.1642 43.5038 62.5939L49.2844 62.6285C49.1842 63.6768 48.8798 64.7096 48.3711 65.727C47.8701 66.7444 47.1802 67.6731 46.3016 68.5132C45.4229 69.3456 44.3516 70.0085 43.0876 70.5018C41.8312 70.995 40.3899 71.2417 38.7636 71.2417C36.621 71.2417 34.7018 70.7715 33.0061 69.8312C31.3182 68.8832 29.9848 67.5035 29.0059 65.6923C28.0271 63.881 27.5376 61.6767 27.5376 59.0792C27.5376 56.4741 28.0348 54.2659 29.0291 52.4546C30.0233 50.6434 31.3683 49.2676 33.0639 48.3273C34.7596 47.3869 36.6595 46.9168 38.7636 46.9168C40.1972 46.9168 41.5229 47.1172 42.7407 47.518C43.9585 47.911 45.0298 48.4891 45.9547 49.2522C46.8797 50.0075 47.6311 50.9362 48.2092 52.0384C48.7873 53.1406 49.1457 54.4008 49.2844 55.819ZM52.2238 66.9871V62.5245L61.9237 47.2405H65.8893V53.2986H63.5886L57.912 62.2933V62.4782H71.9589V66.9871H52.2238ZM63.6579 70.918V65.6229L63.7736 63.6691V47.2405H69.1264V70.918H63.6579ZM75.0053 70.918V47.2405H91.5148V51.8881H80.7281V56.7439H90.6708V61.403H80.7281V66.2703H91.5148V70.918H75.0053Z" fill="white"/>
<path d="M18.7733 59.8281H0" stroke="white" stroke-width="3.23677"/>
<path d="M119.164 59.8281H100.391" stroke="white" stroke-width="3.23677"/>
</g>
<defs>
<clipPath id="clip0_2042_5340">
<rect width="120" height="120" fill="white"/>
</clipPath>
</defs>
</svg>
