<svg width="24" height="24" viewBox="0 0 24 24" fill="none" xmlns="http://www.w3.org/2000/svg">
<path d="M19.499 13V9.368C19.499 5.895 19.499 4.158 18.474 3.079C17.449 2 15.799 2 12.499 2H9.49902C6.19902 2 4.54902 2 3.52402 3.08C2.49902 4.157 2.49902 5.894 2.49902 9.367V14.631C2.49902 18.104 2.49902 19.841 3.52402 20.92C4.54902 21.999 6.19902 22 9.49902 22H10.999M13.499 20C13.499 20 14.499 20 15.499 22C15.499 22 18.676 17 21.499 16" stroke="#87C487" stroke-width="1.81818" stroke-linecap="round" stroke-linejoin="round"/>
<path d="M6.99902 2L7.08102 2.493C7.28102 3.69 7.38102 4.289 7.80102 4.645C8.21902 5 8.82602 5 10.04 5H11.957C13.17 5 13.777 5 14.197 4.645C14.617 4.289 14.717 3.69 14.916 2.493L14.999 2M6.99902 16H10.999M6.99902 11H14.999" stroke="#87C487" stroke-width="1.81818" stroke-linecap="round" stroke-linejoin="round"/>
</svg>
