<svg width="24" height="24" viewBox="0 0 24 24" fill="none" xmlns="http://www.w3.org/2000/svg">
<path d="M4.5 3.75C4.5 3.15326 4.73705 2.58097 5.15901 2.15901C5.58097 1.73705 6.15326 1.5 6.75 1.5H17.25C17.8467 1.5 18.419 1.73705 18.841 2.15901C19.2629 2.58097 19.5 3.15326 19.5 3.75C19.5 4.34674 19.2629 4.91903 18.841 5.34099C18.419 5.76295 17.8467 6 17.25 6H6.75C6.15326 6 5.58097 5.76295 5.15901 5.34099C4.73705 4.91903 4.5 4.34674 4.5 3.75ZM19.5 20.25C19.5 20.8467 19.2629 21.419 18.841 21.841C18.419 22.2629 17.8467 22.5 17.25 22.5H6.75C6.21988 22.501 5.70651 22.3144 5.30082 21.9731C4.89512 21.6319 4.62329 21.1581 4.53346 20.6356C4.44363 20.1132 4.5416 19.5758 4.81002 19.1187C5.07844 18.6615 5.49999 18.3141 6 18.138V16.2285C5.99935 15.4941 6.21435 14.7757 6.61834 14.1624C7.02232 13.549 7.5975 13.0679 8.2725 12.7785L10.0965 12L8.2725 11.2185C7.59797 10.9293 7.02311 10.4486 6.61916 9.8359C6.21521 9.22318 5.99993 8.50539 6 7.7715V6.6465C6.24453 6.71302 6.4966 6.74781 6.75 6.75H17.25C17.5035 6.74683 17.7556 6.71104 18 6.6435V7.7685C18.0013 8.50314 17.7864 9.22193 17.3822 9.83537C16.978 10.4488 16.4023 10.9298 15.7267 11.2185L13.9035 12L15.7267 12.7815C16.4018 13.07 16.9772 13.5505 17.3814 14.1634C17.7856 14.7762 18.0007 15.4944 18 16.2285V18.138C18.4372 18.2926 18.8159 18.5784 19.0844 18.9565C19.3529 19.3345 19.4981 19.7863 19.5 20.25ZM7.5 16.2285V18H16.5V16.2285C16.5001 15.7881 16.371 15.3574 16.1286 14.9897C15.8862 14.622 15.5413 14.3335 15.1365 14.16L12 12.816L8.8635 14.16C8.45873 14.3335 8.11379 14.622 7.87142 14.9897C7.62904 15.3574 7.4999 15.7881 7.5 16.2285Z" fill="#E8AA19"/>
</svg>
