<svg width="30" height="30" viewBox="0 0 30 30" fill="none" xmlns="http://www.w3.org/2000/svg">
<path d="M24.4535 16.5753V12.1729C24.4535 7.96322 24.4535 5.85777 23.2111 4.54989C21.9687 3.24201 19.9687 3.24201 15.9687 3.24201H12.3323C8.33232 3.24201 6.33232 3.24201 5.0899 4.5511C3.84747 5.85656 3.84747 7.96201 3.84747 12.1717V18.5523C3.84747 22.762 3.84747 24.8675 5.0899 26.1753C6.33232 27.4832 8.33232 27.4844 12.3323 27.4844H14.1505M17.1808 25.0602C17.1808 25.0602 18.3929 25.0602 19.605 27.4844C19.605 27.4844 23.456 21.4238 26.8778 20.2117" stroke="#676879" stroke-width="1.81818" stroke-linecap="round" stroke-linejoin="round"/>
<path d="M9.30202 3.24201L9.40141 3.83959C9.64384 5.2905 9.76505 6.01656 10.2741 6.44807C10.7808 6.87838 11.5166 6.87838 12.9881 6.87838H15.3117C16.782 6.87838 17.5178 6.87838 18.0269 6.44807C18.536 6.01656 18.6572 5.2905 18.8984 3.83959L18.999 3.24201M9.30202 20.2117H14.1505M9.30202 14.1511H18.999" stroke="#676879" stroke-width="1.81818" stroke-linecap="round" stroke-linejoin="round"/>
</svg>
