<svg width="211" height="163" viewBox="0 0 211 163" fill="none" xmlns="http://www.w3.org/2000/svg">
<path d="M210.42 143.749H0.00012207V143.854H210.42V143.749Z" fill="#EBEBEB"/>
<path d="M189.336 150.521H175.398V150.626H189.336V150.521Z" fill="#EBEBEB"/>
<path d="M139.391 151.665H135.734V151.77H139.391V151.665Z" fill="#EBEBEB"/>
<path d="M174.977 146.615H166.901V146.72H174.977V146.615Z" fill="#EBEBEB"/>
<path d="M40.2535 147.322H22.0775V147.427H40.2535V147.322Z" fill="#EBEBEB"/>
<path d="M46.6671 147.322H44.0032V147.427H46.6671V147.322Z" fill="#EBEBEB"/>
<path d="M94.7523 149.098H55.328V149.203H94.7523V149.098Z" fill="#EBEBEB"/>
<path d="M99.7393 124.98H18.4793C17.8427 124.979 17.2326 124.725 16.7828 124.275C16.3331 123.824 16.0805 123.213 16.0805 122.577V8.34826C16.086 7.71533 16.3411 7.11014 16.7902 6.66415C17.2394 6.21816 17.8463 5.96739 18.4793 5.96631H99.7393C100.377 5.96631 100.988 6.21948 101.438 6.67013C101.889 7.12078 102.142 7.73199 102.142 8.3693V122.577C102.142 123.214 101.889 123.825 101.438 124.276C100.988 124.727 100.377 124.98 99.7393 124.98ZM18.4793 6.05048C17.8706 6.05159 17.2872 6.29417 16.8572 6.72497C16.4272 7.15577 16.1857 7.73958 16.1857 8.34826V122.577C16.1857 123.186 16.4272 123.769 16.8572 124.2C17.2872 124.631 17.8706 124.874 18.4793 124.875H99.7393C100.348 124.874 100.932 124.631 101.363 124.2C101.794 123.77 102.036 123.186 102.037 122.577V8.34826C102.036 7.73919 101.794 7.15539 101.363 6.72471C100.932 6.29403 100.348 6.05159 99.7393 6.05048H18.4793Z" fill="#EBEBEB"/>
<path d="M190.771 124.98H109.507C108.87 124.979 108.259 124.725 107.809 124.275C107.359 123.824 107.105 123.214 107.104 122.577V8.34826C107.111 7.71495 107.366 7.10976 107.816 6.66389C108.266 6.21802 108.874 5.96738 109.507 5.96631H190.771C191.403 5.9685 192.009 6.21976 192.457 6.66563C192.906 7.1115 193.16 7.71606 193.166 8.34826V122.577C193.166 123.213 192.914 123.823 192.465 124.273C192.016 124.723 191.407 124.978 190.771 124.98ZM109.507 6.05048C108.898 6.05159 108.314 6.29403 107.883 6.72471C107.453 7.15539 107.21 7.73919 107.209 8.34826V122.577C107.21 123.186 107.453 123.77 107.883 124.2C108.314 124.631 108.898 124.874 109.507 124.875H190.771C191.38 124.874 191.964 124.631 192.395 124.2C192.825 123.77 193.068 123.186 193.069 122.577V8.34826C193.068 7.73919 192.825 7.15539 192.395 6.72471C191.964 6.29403 191.38 6.05159 190.771 6.05048H109.507Z" fill="#EBEBEB"/>
<path d="M174.148 78.1488V26.1919L139.412 26.1919V78.1488H174.148Z" fill="#E6E6E6"/>
<path d="M173.092 78.1444V26.1875L138.356 26.1875V78.1444H173.092Z" fill="#F5F5F5"/>
<path d="M168.626 30.6523H142.82V73.6832H168.626V30.6523Z" fill="white"/>
<path d="M143.41 73.6832V30.6523H142.825V73.6832H143.41Z" fill="#E6E6E6"/>
<path d="M90.4091 143.749H105.138V96.2404H90.4091V143.749Z" fill="#E6E6E6"/>
<path d="M93.2036 143.749H90.405V137.007H96.1368L93.2036 143.749Z" fill="#F0F0F0"/>
<path d="M169.119 143.741H183.848V96.2321H169.119V143.741Z" fill="#E6E6E6"/>
<path d="M90.4091 142.76H171.56V96.2401H90.4091V142.76Z" fill="#F0F0F0"/>
<path d="M92.5765 99.0774V109.771H141.874V99.0774H92.5765Z" fill="#E6E6E6"/>
<path d="M143.755 99.0731V109.767H169.392V99.0731H143.755Z" fill="#E6E6E6"/>
<path d="M154.028 100.365H159.099C161.135 100.409 163.147 99.9057 164.923 98.9087H148.207C149.983 99.905 151.992 100.408 154.028 100.365Z" fill="#F0F0F0"/>
<path d="M102.597 100.365H131.327C133.364 100.409 135.375 99.9057 137.152 98.9087H96.7933C98.5637 99.9017 100.567 100.404 102.597 100.365Z" fill="#F0F0F0"/>
<path d="M92.5806 112.83V123.523H141.878V112.83H92.5806Z" fill="#E6E6E6"/>
<path d="M143.755 112.83V123.523H169.392V112.83H143.755Z" fill="#E6E6E6"/>
<path d="M154.028 114.122H159.099C161.135 114.165 163.145 113.664 164.923 112.67H148.207C149.984 113.663 151.993 114.164 154.028 114.122Z" fill="#F0F0F0"/>
<path d="M102.597 114.122H131.327C133.364 114.165 135.375 113.663 137.152 112.666H96.7933C98.5637 113.659 100.567 114.161 102.597 114.122Z" fill="#F0F0F0"/>
<path d="M92.5765 126.587V137.281H141.874V126.587H92.5765Z" fill="#E6E6E6"/>
<path d="M143.755 126.587V137.281H169.392V126.587H143.755Z" fill="#E6E6E6"/>
<path d="M154.028 127.876H159.099C161.135 127.919 163.147 127.416 164.923 126.419H148.207C149.983 127.415 151.992 127.918 154.028 127.876Z" fill="#F0F0F0"/>
<path d="M102.601 127.876H131.327C133.365 127.919 135.378 127.416 137.156 126.419H96.7933C98.5648 127.414 100.57 127.916 102.601 127.876Z" fill="#F0F0F0"/>
<path d="M168.761 143.749H171.556V137.007H165.828L168.761 143.749Z" fill="#F0F0F0"/>
<path d="M176.429 87.7861C176.429 87.7861 176.008 92.6132 159.595 92.6132C143.182 92.6132 142.787 87.7861 142.787 87.7861H176.429Z" fill="#FAFAFA"/>
<path d="M176.429 91.397C176.429 91.397 176.008 96.224 159.595 96.224C143.182 96.224 142.808 91.397 142.808 91.397H176.429Z" fill="#EBEBEB"/>
<path d="M61.691 143.75H78.5331L73.5419 100.433H61.691V143.75Z" fill="#E6E6E6"/>
<path d="M33.2675 143.749H70.7223L74.674 93.0503H37.2192L33.2675 143.749Z" fill="#E0E0E0"/>
<path d="M30.5699 143.749H69.5481L73.4998 93.0503H34.5258L30.5699 143.749Z" fill="#F5F5F5"/>
<path d="M65.8657 139.752L69.1946 97.0449H38.2081L34.8793 139.752H65.8657Z" fill="white"/>
<path d="M121.631 14.6729H26.189V84.2335H121.631V14.6729Z" fill="#EBEBEB"/>
<path d="M118.366 18.3516H29.4547V80.5517H118.366V18.3516Z" fill="#FAFAFA"/>
<path d="M48.5862 80.5559H39.2562L48.0433 18.3516H57.3733L48.5862 80.5559Z" fill="white"/>
<path d="M71.6439 80.5559H62.3097L71.0968 18.3516H80.4311L71.6439 80.5559Z" fill="white"/>
<path d="M101.368 80.5559H96.7006L105.488 18.3516H110.155L101.368 80.5559Z" fill="white"/>
<path d="M79.8502 80.5559H75.1831L83.9702 18.3516H88.6374L79.8502 80.5559Z" fill="white"/>
<path d="M59.2586 18.3516H54.8608V80.5517H59.2586V18.3516Z" fill="#EBEBEB"/>
<path d="M59.2585 80.5562H60.2391L60.2391 18.356H59.2585L59.2585 80.5562Z" fill="#E0E0E0"/>
<path d="M121.631 84.2339H122.334L122.334 14.6732H121.631L121.631 84.2339Z" fill="#E0E0E0"/>
<path d="M105.21 162.754C150.275 162.754 186.807 160.621 186.807 157.99C186.807 155.359 150.275 153.227 105.21 153.227C60.1455 153.227 23.6134 155.359 23.6134 157.99C23.6134 160.621 60.1455 162.754 105.21 162.754Z" fill="#F5F5F5"/>
<path d="M98.6968 84.3322L96.8704 89.3191C96.7206 89.7492 96.4573 90.1308 96.1084 90.4234C95.7594 90.716 95.3378 90.9089 94.8882 90.9814L70.6184 94.6554C69.0529 94.8952 68.127 96.5029 68.5521 98.2451L77.0488 133.234C77.4697 134.98 79.0857 136.201 80.6512 135.965L138.42 127.216C139.985 126.976 140.911 125.372 140.49 123.626L130.251 81.462C129.831 79.7155 128.215 78.4951 126.649 78.7308L100.679 82.6488C100.227 82.7232 99.8037 82.9192 99.4545 83.2157C99.1054 83.5122 98.8434 83.8982 98.6968 84.3322Z" fill="#007DB8"/>
<path opacity="0.3" d="M98.6968 84.3322L96.8704 89.3191C96.7206 89.7492 96.4573 90.1308 96.1084 90.4234C95.7594 90.716 95.3378 90.9089 94.8882 90.9814L70.6184 94.6554C69.0529 94.8952 68.127 96.5029 68.5521 98.2451L77.0488 133.234C77.4697 134.98 79.0857 136.201 80.6512 135.965L138.42 127.216C139.985 126.976 140.911 125.372 140.49 123.626L130.251 81.462C129.831 79.7155 128.215 78.4951 126.649 78.7308L100.679 82.6488C100.227 82.7232 99.8037 82.9192 99.4545 83.2157C99.1054 83.5122 98.8434 83.8982 98.6968 84.3322Z" fill="black"/>
<path d="M86.2441 33.1622C86.8135 33.1632 87.3824 33.1941 87.9485 33.2548C90.1029 30.2693 93.0222 27.9198 96.3992 26.4533C99.7762 24.9868 103.486 24.4577 107.138 24.9215C110.791 25.3854 114.25 26.8251 117.154 29.0892C120.057 31.3533 122.296 34.358 123.636 37.7873C127.114 38.3829 130.242 40.2634 132.399 43.056C134.557 45.8487 135.587 49.3499 135.285 52.866C134.983 56.3821 133.372 59.6566 130.77 62.0409C128.168 64.4251 124.766 65.7451 121.237 65.7395H86.2441C81.9694 65.6707 77.8931 63.9244 74.8945 60.8772C71.8958 57.8299 70.2152 53.7261 70.2152 49.4508C70.2152 45.1756 71.8958 41.0717 74.8945 38.0245C77.8931 34.9773 81.9694 33.2309 86.2441 33.1622Z" fill="#007DB8"/>
<path d="M87.7549 60.0415V100.653H117.534V68.8834L108.696 60.0415H87.7549Z" fill="#007DB8"/>
<path opacity="0.6" d="M87.7549 60.0415V100.653H117.534V68.8834L108.696 60.0415H87.7549Z" fill="white"/>
<path opacity="0.4" d="M108.696 68.8834V60.0415L117.534 68.8834H108.696Z" fill="#007DB8"/>
<path d="M88.7145 135.814L86.6047 136.132L86.6682 136.553L88.778 136.234L88.7145 135.814Z" fill="#007DB8"/>
<path d="M98.4389 134.35L91.0695 135.463L91.1329 135.884L98.5024 134.77L98.4389 134.35Z" fill="#007DB8"/>
<path d="M109.319 88.317L106.571 92.8999C106.329 93.3033 106.003 93.6493 105.614 93.9139C105.225 94.1784 104.783 94.3551 104.319 94.4318L80.0537 98.1099C79.2801 98.2441 78.5805 98.6521 78.0829 99.2594C77.5853 99.8667 77.3228 100.633 77.3435 101.418L78.7533 133.334C78.7585 133.698 78.8424 134.057 78.9993 134.386C79.1562 134.714 79.3823 135.005 79.6621 135.238C79.942 135.471 80.2689 135.641 80.6205 135.736C80.9721 135.831 81.3401 135.848 81.6992 135.788L139.468 127.034C140.242 126.9 140.941 126.492 141.439 125.885C141.936 125.277 142.199 124.511 142.178 123.726L140.495 85.2701C140.49 84.906 140.406 84.5473 140.249 84.2186C140.092 83.8899 139.866 83.5991 139.586 83.366C139.306 83.133 138.979 82.9632 138.628 82.8684C138.276 82.7735 137.908 82.7559 137.549 82.8166L111.558 86.7683C111.094 86.8475 110.654 87.0272 110.267 87.2947C109.88 87.5622 109.557 87.9112 109.319 88.317Z" fill="#007DB8"/>
<path d="M110.165 54.154C110.061 54.1545 109.96 54.1242 109.873 54.0669C109.787 54.0096 109.72 53.9279 109.68 53.8322C109.64 53.7365 109.63 53.6312 109.65 53.5296C109.671 53.428 109.721 53.3348 109.794 53.2618C111.203 51.8479 112.162 50.0481 112.549 48.0899C112.936 46.1316 112.734 44.1026 111.968 42.2591C111.203 40.4155 109.908 38.8402 108.248 37.7319C106.588 36.6236 104.636 36.0322 102.64 36.0322C100.644 36.0322 98.6926 36.6236 97.0324 37.7319C95.3722 38.8402 94.0776 40.4155 93.3121 42.2591C92.5466 44.1026 92.3446 46.1316 92.7314 48.0899C93.1183 50.0481 94.0768 51.8479 95.4858 53.2618C95.5347 53.3103 95.5734 53.368 95.5999 53.4316C95.6264 53.4951 95.64 53.5633 95.64 53.6321C95.64 53.701 95.6264 53.7692 95.5999 53.8327C95.5734 53.8963 95.5347 53.954 95.4858 54.0025C95.3868 54.0991 95.2538 54.1532 95.1155 54.1532C94.9771 54.1532 94.8442 54.0991 94.7451 54.0025C93.1848 52.4422 92.1222 50.4543 91.6917 48.2902C91.2612 46.126 91.4821 43.8828 92.3265 41.8442C93.1709 39.8056 94.6008 38.0632 96.4355 36.8373C98.2702 35.6114 100.427 34.957 102.634 34.957C104.84 34.957 106.997 35.6114 108.832 36.8373C110.667 38.0632 112.097 39.8056 112.941 41.8442C113.785 43.8828 114.006 46.126 113.576 48.2902C113.145 50.4543 112.083 52.4422 110.522 54.0025C110.427 54.0971 110.299 54.1514 110.165 54.154Z" fill="white"/>
<path d="M107.118 57.2804V45.6358C107.118 45.1324 106.918 44.6496 106.562 44.2937C106.206 43.9378 105.723 43.7378 105.22 43.7378H100.069C99.5654 43.7378 99.0826 43.9378 98.7267 44.2937C98.3708 44.6496 98.1708 45.1324 98.1708 45.6358V57.2804H96.2307L102.644 62.8061L109.054 57.2804H107.118Z" fill="white"/>
</svg>
