<svg width="120" height="120" viewBox="0 0 120 120" fill="none" xmlns="http://www.w3.org/2000/svg">
<path d="M56.5548 104.958H43.2656C45.4158 103.286 45.9533 98.9858 45.9533 97.0447V72.8555H64.9165V96.1488C64.9165 102.719 59.342 104.759 56.5548 104.958Z" fill="url(#paint0_linear_4059_164879)"/>
<path d="M7.87695 84.8003V69.57L24.899 69.5701V49.8604H40.7265V65.9865L53.1558 55.4582C53.3183 55.3205 53.3932 55.105 53.3638 54.894C52.7544 50.5198 56.1022 49.4124 57.8979 49.4124C61.5661 49.8571 62.2432 52.7498 62.119 54.5531C62.1029 54.7879 62.2068 55.018 62.4058 55.1437L67.3167 58.2453C67.5672 58.4035 67.8958 58.3542 68.0888 58.1294L80.1861 44.0396C80.3427 43.8571 80.3714 43.5986 80.278 43.377C79.361 41.2025 80.3656 39.865 80.7433 39.1096C82.1584 36.8237 84.8382 37.1747 86.3196 37.7446C86.5602 37.8372 86.8368 37.7897 87.0158 37.604L102.409 21.635C102.58 21.4577 102.622 21.1937 102.533 20.9641C101.4 18.0443 103.034 15.8334 104.037 15.0696C108.036 12.4816 110.723 15.1838 111.612 16.9303C111.639 16.9841 111.657 17.0434 111.665 17.1031C112.524 23.1108 107.929 23.9667 105.242 23.6264C105.047 23.6017 104.851 23.6647 104.714 23.8055L88.99 39.966C88.873 40.0862 88.813 40.2545 88.819 40.4222C89.0155 45.9548 84.8936 46.3395 82.4616 45.777C82.2316 45.7239 81.9889 45.7956 81.8365 45.9759L68.5295 61.7154C68.3401 61.9395 68.0159 61.9927 67.7647 61.8411L60.6733 57.5593C60.4447 57.4213 60.1548 57.4556 59.9416 57.6164C58.4109 58.7709 56.5901 58.4907 55.5734 58.0886C55.3484 57.9996 55.0889 58.0246 54.9032 58.1797L40.7265 70.0179V96.8949C40.7265 103.584 35.2516 105.057 32.5141 104.958H22.6593C24.0927 103.763 24.6501 100.678 24.7497 99.2839V84.8003H7.87695Z" fill="#007DB8"/>
<path d="M79.1382 105.108H66.5586C68.5456 103.428 69.6942 99.1447 69.6942 97.1946L70.1422 72.856L86.8656 58.8203V72.856V96.2577C86.8656 102.858 81.714 104.908 79.1382 105.108Z" fill="url(#paint1_linear_4059_164879)"/>
<path d="M101.237 105.108H88.6572C90.6443 103.427 91.7929 99.1439 91.7929 97.1938L92.0915 73.0045L91.9422 52.2496L107.322 36.7207L107.471 72.8552V95.5513C107.471 102.152 103.813 104.908 101.237 105.108Z" fill="url(#paint2_linear_4059_164879)"/>
<defs>
<linearGradient id="paint0_linear_4059_164879" x1="60.3568" y1="71.489" x2="54.0911" y2="104.958" gradientUnits="userSpaceOnUse">
<stop stop-color="#39A75F"/>
<stop offset="1" stop-color="#84C89B"/>
</linearGradient>
<linearGradient id="paint1_linear_4059_164879" x1="76.7121" y1="58.8203" x2="76.7121" y2="105.108" gradientUnits="userSpaceOnUse">
<stop stop-color="#39A75F"/>
<stop offset="1" stop-color="#84C89B"/>
</linearGradient>
<linearGradient id="paint2_linear_4059_164879" x1="98.0641" y1="36.7207" x2="98.0641" y2="105.108" gradientUnits="userSpaceOnUse">
<stop stop-color="#39A75F"/>
<stop offset="1" stop-color="#84C89B"/>
</linearGradient>
</defs>
</svg>
