<svg width="221" height="135" viewBox="0 0 221 135" fill="none" xmlns="http://www.w3.org/2000/svg">
<g clip-path="url(#clip0_2398_42227)">
<path d="M111 13C111 13 113.207 33.5997 121.804 42.1964C130.4 50.793 151 53 151 53C151 53 130.4 55.207 121.804 63.8036C113.207 72.4003 111 93 111 93C111 93 108.793 72.4003 100.196 63.8036C91.5997 55.207 71 53 71 53C71 53 91.5997 50.793 100.196 42.1964C108.793 33.5997 111 13 111 13Z" fill="white" fill-opacity="0.25"/>
<path d="M181 61C181 61 183.207 81.5997 191.804 90.1964C200.4 98.793 221 101 221 101C221 101 200.4 103.207 191.804 111.804C183.207 120.4 181 141 181 141C181 141 178.793 120.4 170.196 111.804C161.6 103.207 141 101 141 101C141 101 161.6 98.793 170.196 90.1964C178.793 81.5997 181 61 181 61Z" fill="white" fill-opacity="0.1"/>
<path d="M40 90C40 90 42.207 120.385 50.8036 133.065C59.4003 145.745 80 149 80 149C80 149 59.4003 152.255 50.8036 164.935C42.207 177.615 40 208 40 208C40 208 37.793 177.615 29.1964 164.935C20.5997 152.255 0 149 0 149C0 149 20.5997 145.745 29.1964 133.065C37.793 120.385 40 90 40 90Z" fill="white" fill-opacity="0.1"/>
<path d="M171.5 -91C171.5 -91 173.183 -60.6154 179.738 -47.9354C186.293 -35.2553 202 -32 202 -32C202 -32 186.293 -28.7447 179.738 -16.0646C173.183 -3.38464 171.5 27 171.5 27C171.5 27 169.817 -3.38464 163.262 -16.0646C156.707 -28.7447 141 -32 141 -32C141 -32 156.707 -35.2553 163.262 -47.9354C169.817 -60.6154 171.5 -91 171.5 -91Z" fill="white" fill-opacity="0.1"/>
<path d="M40.5 -12C40.5 -12 42.1828 3.44981 48.7378 9.89728C55.2927 16.3447 71 18 71 18C71 18 55.2927 19.6553 48.7378 26.1027C42.1828 32.5502 40.5 48 40.5 48C40.5 48 38.8172 32.5502 32.2622 26.1027C25.7073 19.6553 10 18 10 18C10 18 25.7073 16.3447 32.2622 9.89728C38.8172 3.44981 40.5 -12 40.5 -12Z" fill="white" fill-opacity="0.1"/>
</g>
<defs>
<clipPath id="clip0_2398_42227">
<rect width="221" height="135" fill="white"/>
</clipPath>
</defs>
</svg>
