<svg width="22" height="22" viewBox="0 0 22 22" fill="none" xmlns="http://www.w3.org/2000/svg">
<path d="M20.7899 7.62298L14.4862 6.70717L11.6673 0.995168C11.5099 0.676418 11.1851 0.474609 10.8299 0.474609C10.4747 0.474609 10.15 0.676219 9.99262 0.995168L7.17367 6.70717L0.869795 7.62298C0.105991 7.73394 -0.200806 8.67625 0.352424 9.21553L4.91374 13.6619L3.83676 19.9403C3.70647 20.7011 4.50793 21.2846 5.19145 20.9244L10.8297 17.9604C16.9717 21.1892 16.5856 21.032 16.9023 21.032C17.096 21.032 17.2886 20.9718 17.4514 20.8535C17.7386 20.6445 17.8829 20.2907 17.8229 19.9405L16.7459 13.6621L21.3071 9.21573C21.8601 8.67724 21.5549 7.73434 20.7899 7.62298Z" fill="#FFA92C"/>
<path d="M10.3546 15.309L5.79329 10.8627C5.24065 10.324 5.54606 9.38128 6.31066 9.27012L12.6145 8.35431L13.9569 5.63438L11.6673 0.995168C11.5099 0.676418 11.1851 0.474609 10.8299 0.474609C10.4747 0.474609 10.15 0.676219 9.99262 0.995168L7.17367 6.70717L0.869795 7.62298C0.105991 7.73394 -0.200806 8.67625 0.352424 9.21553L4.91373 13.6619L3.83676 19.9403C3.70647 20.7011 4.50793 21.2846 5.19145 20.9244L9.80735 18.4979L10.3546 15.309Z" fill="#FF8828"/>
</svg>
