<svg width="15" height="15" viewBox="0 0 15 15" fill="none" xmlns="http://www.w3.org/2000/svg">
<path opacity="0.2" d="M4.68594 14.2298C4.41709 14.1151 4.25079 13.8414 4.27339 13.5501C4.5909 9.47243 4.07425 8.1878 1.02301 5.46464C0.805392 5.26982 0.735508 4.9576 0.850292 4.68849C0.964965 4.41963 1.2388 4.2537 1.52992 4.27618C5.60755 4.5937 6.89219 4.07706 9.61534 1.02581C9.81012 0.80756 10.1225 0.738048 10.3916 0.852833C10.6607 0.967617 10.8262 1.24097 10.8041 1.53283C10.4867 5.6102 11.0033 6.89483 14.0544 9.61825C14.2722 9.81281 14.3419 10.1253 14.2273 10.3942C14.1125 10.6633 13.8388 10.8289 13.5475 10.8067C9.46978 10.4895 8.18537 11.0056 5.4621 14.0571C5.26691 14.2749 4.95479 14.3445 4.68594 14.2298Z" fill="white"/>
</svg>
