<svg width="120" height="120" viewBox="0 0 120 120" fill="none" xmlns="http://www.w3.org/2000/svg">
<g clip-path="url(#clip0_2039_9000)">
<circle cx="60" cy="60" r="59" fill="#333452"/>
<path d="M28.1488 76.1094L21.3227 52.6532H27.5876L31.1266 68.0234H31.3213L35.3643 52.6532H40.4724L44.5154 68.0578H44.7101L48.2606 52.6532H54.5141L47.6994 76.1094H42.2362L38.01 61.8845H37.8267L33.6005 76.1094H28.1488ZM65.5263 76.1094H56.8562V52.6532H65.5149C67.9048 52.6532 69.9625 53.1228 71.6882 54.0619C73.4214 54.9935 74.7576 56.3373 75.6968 58.0935C76.6359 59.842 77.1055 61.9341 77.1055 64.3698C77.1055 66.8132 76.6359 68.9129 75.6968 70.6691C74.7653 72.4253 73.4329 73.7729 71.6996 74.7121C69.9664 75.6436 67.9086 76.1094 65.5263 76.1094ZM62.5256 71.2761H65.3087C66.622 71.2761 67.733 71.0547 68.6416 70.6118C69.5579 70.1613 70.2489 69.4322 70.7146 68.4243C71.188 67.4088 71.4247 66.0573 71.4247 64.3698C71.4247 62.6824 71.188 61.3385 70.7146 60.3383C70.2412 59.3304 69.5426 58.605 68.6187 58.1622C67.7024 57.7117 66.5724 57.4865 65.2285 57.4865H62.5256V71.2761ZM80.4155 76.1094V52.6532H86.0848V62.0677H95.3276V52.6532H100.985V76.1094H95.3276V66.6834H86.0848V76.1094H80.4155Z" fill="white"/>
<path fill-rule="evenodd" clip-rule="evenodd" d="M107.785 47.3839C99.0985 40.5593 83.1492 35.9856 64.9119 35.9856C37.3886 35.9856 15.0766 46.4027 15.0766 59.2527C15.0766 62.546 16.5421 65.6794 19.1852 68.5187C14.7624 65.0438 12.2227 60.9853 12.2227 56.6499C12.2227 43.7998 34.5347 33.3828 62.058 33.3828C82.5275 33.3828 100.115 39.1446 107.785 47.3839Z" fill="#F3BD1D"/>
</g>
<defs>
<clipPath id="clip0_2039_9000">
<rect width="120" height="120" fill="white"/>
</clipPath>
</defs>
</svg>
