<svg width="100" height="120" viewBox="0 0 100 120" fill="none" xmlns="http://www.w3.org/2000/svg">
<circle cx="53.6487" cy="20.9391" r="12.1256" fill="#F47521"/>
<path d="M5.19457 117.506C3.1746 120.009 1.77794 119.946 0.801758 119.946L13.004 97.9822L18.129 101.399L12.3033 108.619H24.1382L19.3492 99.4464L24.4741 93.5894L35.305 118.328H28.548L26.5921 113.811H8.0712C7.44292 114.605 7.21454 115.002 5.19457 117.506Z" fill="#F47521"/>
<path d="M5.21195 117.433C3.5001 119.637 1.51591 120.059 0.737793 119.994L34.0994 59.7873L12.7337 25.3881H25.832C29.6447 25.3881 32.7161 29.1274 33.7752 30.997L49.986 57.2584C64.4243 39.5347 93.6965 3.59445 95.2787 1.62322C96.8609 -0.347999 98.7262 -0.711119 99.4611 -0.646276L65.7104 59.6576L87.1409 94.0567H73.913C70.0483 94.0827 67.3746 90.6741 66.5209 88.9666L49.986 62.2189C35.7746 79.7048 6.9238 115.228 5.21195 117.433Z" fill="#F47521"/>
<path d="M37.1459 118.126V95.9024H44.9491C49.2505 95.9024 52.7661 99.2801 52.7661 103.416C52.7661 107.538 49.2505 110.902 44.9491 110.902H41.6128V118.126H37.1459ZM44.9491 106.49C46.7965 106.504 48.2993 105.098 48.2993 103.375C48.2993 101.693 46.7965 100.328 44.9491 100.328H41.6128V106.477L44.9491 106.49ZM55.289 118.126V95.9024H63.0922C67.3936 95.9024 70.9092 99.2801 70.9092 103.416C70.9092 107.538 67.3936 110.902 63.0922 110.902H59.7559V118.126H55.289ZM63.0922 106.49C64.9396 106.504 66.4424 105.098 66.4424 103.375C66.4424 101.693 64.9396 100.328 63.0922 100.328H59.7559V106.477L63.0922 106.49ZM80.091 118.568C76.4514 118.568 73.763 117.051 72.2741 114.294L75.8448 111.785C76.8236 113.356 78.2436 114.073 80.16 114.073C82.2555 114.073 83.6618 113.218 83.6618 112.033C83.6618 110.406 81.0009 109.124 78.671 107.966C76.1757 106.725 73.4321 105.36 73.4321 101.817C73.4321 97.9704 76.6858 95.4337 80.7666 95.4337C83.7996 95.4337 86.3088 96.6883 87.3152 99.3766L84.0202 101.679C83.3584 100.355 82.0763 99.8178 80.8355 99.8178C79.1673 99.8178 77.9265 100.783 77.9265 101.927C77.9265 103.251 79.6085 103.706 82.159 104.905C85.84 106.642 88.1562 108.517 88.1562 111.936C88.1562 115.989 84.8474 118.568 80.091 118.568Z" fill="#F47521"/>
</svg>
