<?xml version="1.0" standalone="no"?>
<!DOCTYPE svg PUBLIC "-//W3C//DTD SVG 1.1//EN" "http://www.w3.org/Graphics/SVG/1.1/DTD/svg11.dtd" >
<svg xmlns="http://www.w3.org/2000/svg">
<metadata>Generated by IcoMoon</metadata>
<defs>
<font id="icomoon" horiz-adv-x="1024">
<font-face units-per-em="1024" ascent="960" descent="-64" />
<missing-glyph horiz-adv-x="1024" />
<glyph unicode="&#x20;" horiz-adv-x="512" d="" />
<glyph unicode="&#xe900;" glyph-name="Vector-Stroke-14" horiz-adv-x="559" d="M120.55 940.914c-25.447 25.448-66.733 25.448-92.181 0s-25.448-66.734 0-92.182l372.818-372.818-372.818-372.819-8.364-10.273c-16.672-25.289-13.892-59.653 8.364-81.913 22.256-22.249 56.619-25.032 81.909-8.36l10.273 8.36 418.909 418.913c25.448 25.448 25.448 66.734 0 92.181l-418.909 418.91z" />
<glyph unicode="&#xe901;" glyph-name="Vector-Stroke-13" horiz-adv-x="1252" d="M610.43 409.883c-20.378 30.909-16.98 72.909 10.222 100.111l426.667 426.667 12.555 10.222c30.91 20.377 72.91 16.979 100.113-10.222s30.595-69.201 10.217-100.111l-10.217-12.557-370.335-370.333 370.335-370.333c31.107-31.103 31.107-81.564 0-112.667-31.105-31.102-81.565-31.102-112.668 0l-426.667 426.667-10.222 12.557zM13.097 409.883c-20.377 30.909-16.979 72.909 10.222 100.111l426.667 426.667 12.555 10.222c30.91 20.377 72.91 16.979 100.111-10.222s30.599-69.201 10.223-100.111l-10.223-12.557-370.333-370.333 370.333-370.333c31.103-31.103 31.103-81.564 0-112.667-31.102-31.102-81.563-31.102-112.666 0l-426.667 426.667-10.222 12.557z" />
<glyph unicode="&#xe902;" glyph-name="Vector-3" d="M394.159 196.062c-103.348 0-190.815 35.796-262.4 107.379-71.585 71.587-107.378 159.052-107.378 262.401 0 103.348 35.793 190.815 107.378 262.4s159.052 107.378 262.4 107.378c103.349 0 190.814-35.793 262.401-107.378 71.582-71.585 107.379-159.052 107.379-262.4 0-41.719-6.636-81.067-19.914-118.046-13.273-36.976-31.286-69.686-54.043-98.133l318.576-318.576c10.43-10.43 15.648-23.703 15.648-39.824 0-16.116-5.218-29.389-15.648-39.819s-23.703-15.648-39.819-15.648c-16.121 0-29.394 5.218-39.824 15.648l-318.576 318.576c-28.448-22.757-61.157-40.77-98.133-54.043-36.98-13.278-76.327-19.914-118.046-19.914zM394.159 309.843c71.111 0 131.558 24.888 181.334 74.664s74.664 110.223 74.664 181.334c0 71.111-24.888 131.555-74.664 181.333s-110.223 74.667-181.334 74.667c-71.111 0-131.555-24.889-181.333-74.667s-74.667-110.222-74.667-181.333c0-71.111 24.889-131.558 74.667-181.334s110.222-74.664 181.333-74.664z" />
<glyph unicode="&#xe903;" glyph-name="Vector-Stroke-12" horiz-adv-x="975" d="M893.952 464.238c0 226.66-183.725 410.42-410.381 410.429-226.665 0-410.428-183.764-410.428-410.429 0.009-226.655 183.769-410.38 410.428-410.38 226.651 0.010 410.371 183.73 410.381 410.38zM484 277.333l3.761-0.19c18.432-1.882 32.812-17.452 32.812-36.381s-14.38-34.499-32.812-36.381l-3.761-0.19h-0.429c-20.198 0-36.571 16.374-36.571 36.571s16.374 36.571 36.571 36.571h0.429zM406.809 708.048c31.634 15.012 67.249 19.956 102.002 14h0.044l14.668-3.19c33.87-8.937 64.288-28.118 87.001-55.096l9.192-11.952c20.085-28.654 30.993-62.901 30.954-98.143l-0.575-11.81c-5.364-57.623-49.269-96.856-82.759-119.189-18.983-12.654-37.742-21.996-51.575-28.145-6.958-3.092-12.8-5.447-16.998-7.046-2.102-0.8-3.823-1.424-5.047-1.858-0.595-0.21-1.068-0.4-1.429-0.522-0.18-0.063-0.356-0.102-0.478-0.146-0.049-0.015-0.102-0.034-0.141-0.044l-0.093-0.049c-0.015-0.005-0.010 0.020-11.574 34.714l-6.619 19.807 18.144-54.521c-19.157-6.373-39.854 3.989-46.239 23.142-6.378 19.149 3.958 39.838 23.095 46.236h-0.048c0.009 0.005 0.073 0.024 0.143 0.049 0.142 0.049 0.405 0.112 0.762 0.239 0.739 0.263 1.919 0.692 3.476 1.287 3.132 1.19 7.777 3.033 13.381 5.52 11.31 5.027 26.124 12.498 40.665 22.193 31.305 20.873 50.766 44.864 50.766 70.143v0.048l-0.385 8.571c-1.482 17.103-7.47 33.515-17.33 47.572l-5.242 6.809c-12.98 15.415-30.364 26.372-49.713 31.476l-8.382 1.81c-19.855 3.406-40.207 0.575-58.284-8l-7.619-4c-19.858-11.67-34.929-30.036-42.572-51.762l-1.429-3.428c-7.882-16.784-27.371-25.19-45.238-18.905-19.043 6.708-29.032 27.571-22.333 46.619l5.619 14c14.489 31.875 38.506 58.66 68.904 76.524l13.286 7.048zM967.095 464.238c-0.010-267.045-216.478-483.513-483.524-483.523-267.055 0-483.563 216.474-483.571 483.523 0 267.061 216.511 483.572 483.571 483.572 267.050-0.009 483.524-216.516 483.524-483.572z" />
<glyph unicode="&#xe904;" glyph-name="Vector-Stroke-11" horiz-adv-x="1152" d="M224 437.375c107.221 0 196.762-75.372 218.75-175.999l666.184-0.25c24.186-2.47 43.053-22.918 43.066-47.75 0-24.845-18.874-45.28-43.066-47.75l-4.934-0.25h-661.187c-21.969-100.653-111.572-176-218.813-176-123.711 0-224 100.282-224 224 0.011 123.704 100.296 223.999 224 223.999zM1056 682.687c0 70.693-57.306 128-128 128s-128-57.307-128-128c0-70.693 57.306-128 128-128s128 57.308 128 128zM96 213.376c0-70.694 57.308-128 128-128s128 57.306 128 128c-0.012 70.682-57.314 127.999-128 127.999s-127.988-57.317-128-127.999zM1152 682.687c0-123.711-100.288-224-224-224-107.232 0-196.768 75.364-218.752 176h-661.248c-26.51 0-48 21.491-48 48s21.49 48 48 48h661.248c21.984 100.636 111.52 176 218.752 176 123.712 0 224-100.289 224-224z" />
<glyph unicode="&#xe905;" glyph-name="Vector-Stroke-10" d="M415.901 947.383c93.937 17.276 190.86 7.673 279.6-27.65l18.898-7.95 3.502-1.8c16.87-9.678 24.028-30.749 15.949-48.9-8.090-18.16-28.564-26.933-47.048-20.85l-3.702 1.4-16 6.75c-75.315 29.979-157.574 38.111-237.3 23.45l-17.050-3.5c-84.974-19.202-162.008-63.661-221.050-127.35l-11.55-13c-56.603-66.225-91.694-147.942-100.9-234.3l-1.5-17.35c-6.109-92.723 17.876-184.949 68.45-262.901 50.578-77.952 125.033-137.446 212.2-169.651l16.45-5.699c82.603-26.778 171.515-28.042 255.048-3.348l16.604 5.299c82.217 27.965 154.24 80.174 206.397 149.949l10.102 14.152c45.88 66.831 71.987 145.254 75.3 226.248l0.348 17.352v43.199c0.015 21.192 17.208 38.391 38.4 38.4 21.202 0 38.39-17.202 38.4-38.4v-43.199l-0.399-20.5c-3.901-95.432-34.642-187.858-88.699-266.598l-11.95-16.65c-61.45-82.207-146.289-143.703-243.149-176.65l-19.553-6.252c-98.432-29.102-203.21-27.607-300.549 3.953l-19.35 6.697c-102.698 37.944-190.408 108.058-250 199.9-59.593 91.848-87.904 200.545-80.7 309.801l1.75 20.4c10.847 101.744 52.215 198.025 118.9 276.050l13.65 15.3c69.569 75.043 160.327 127.428 260.45 150.050l20.050 4.15zM952.801 853.233c15.073 12.32 37.33 11.453 51.4-2.6 15.002-14.985 15.027-39.295 0.051-54.3l-469.35-469.8c-7.199-7.204-16.968-11.244-27.151-11.249-10.188-0.005-19.946 4.045-27.15 11.249l-140.8 140.8-2.65 2.9c-12.301 15.082-11.408 37.341 2.65 51.4 14.059 14.041 36.274 14.895 51.35 2.6l2.95-2.6 113.6-113.6 445.101 445.2z" />
<glyph unicode="&#xe906;" glyph-name="Vector-Stroke-9" horiz-adv-x="870" d="M0 203.95v488.098c0 38.782-0.024 70.199 2.050 95.6 2.112 25.853 6.609 48.875 17.5 70.25l6.9 12.35c17.217 28.068 41.899 50.918 71.4 65.95l8.1 3.8c19.074 8.181 39.53 11.852 62.15 13.7 25.401 2.074 56.818 2.050 95.6 2.050h150.7c32.608 0 55.197 0.248 76.85-4.95l13.55-3.8c5.729-1.862 11.291-4.173 16.8-6.6 1.085-0.422 2.115-0.935 3.149-1.45 6.246-2.898 12.411-5.993 18.299-9.6l7.004-4.6c16.046-11.195 30.628-26.081 50.801-46.25l165.699-165.7c14.807-15.056 26.076-27.511 34.801-41.75 3.671-5.991 6.815-12.239 9.748-18.6 0.41-0.845 0.85-1.672 1.198-2.55 4.372-9.879 7.972-20.115 10.501-30.65l1.7-8.15c3.441-19.271 3.251-40.116 3.251-68.65v-338.498c0-38.789 0.026-70.2-2.048-95.601-1.853-22.625-5.514-43.075-13.701-62.152l-3.799-8.049c-15.032-29.496-37.893-54.185-65.951-71.404l-12.349-6.948c-21.376-10.89-44.401-15.34-70.252-17.449-25.405-2.074-56.806-2.053-95.601-2.053h-300.35c-38.782 0-70.199-0.020-95.6 2.053-22.615 1.848-43.079 5.473-62.15 13.65l-8.1 3.799c-29.507 15.032-54.181 37.924-71.4 66.002l-6.9 12.349c-10.885 21.371-15.388 44.355-17.5 70.2-2.075 25.4-2.050 56.812-2.050 95.601zM507.75 251.75l3.9-0.205c19.366-1.961 34.501-18.314 34.501-38.195 0-19.886-15.135-36.239-34.501-38.2l-3.9-0.2h-281.6c-21.208 0-38.4 17.188-38.4 38.4 0 21.207 17.192 38.4 38.4 38.4h281.6zM601.6 439.496l3.948-0.2c19.348-1.976 34.442-18.33 34.452-38.2 0-19.871-15.099-36.219-34.452-38.195l-3.948-0.205h-375.45c-21.208 0-38.4 17.193-38.4 38.4 0.009 21.202 17.198 38.4 38.4 38.4h375.45zM76.8 203.95c0-40.059 0.039-67.804 1.8-89.354 1.723-21.084 4.898-32.855 9.35-41.6l3.95-7.050c9.837-16.041 23.941-29.107 40.8-37.699l7.25-3.098c7.987-2.857 18.579-5.007 34.4-6.303 21.549-1.756 49.303-1.751 89.35-1.751h300.35c40.059 0 67.799-0.010 89.349 1.751 21.089 1.725 32.855 4.951 41.6 9.4l7.101 3.953c16.031 9.836 29.061 23.946 37.647 40.796l3.103 7.204c2.862 7.987 5.007 18.565 6.298 34.396 1.761 21.55 1.802 49.295 1.802 89.354v338.498c0 31.907-0.343 44.904-2.15 54.9h-165.949c-12.508 0-24.248-0.047-34.002 0.75-7.649 0.626-15.98 1.881-24.448 4.9l-8.453 3.65c-14.049 7.158-25.802 18.047-33.997 31.4l-3.3 5.9c-5.775 11.335-7.716 22.75-8.55 32.95-0.796 9.75-0.75 21.447-0.75 33.95v166c-10 1.808-23.026 2.1-54.95 2.1h-150.7c-40.049 0-67.801-0.041-89.35-1.8-15.817-1.292-26.413-3.395-34.4-6.25l-7.25-3.1c-16.857-8.59-30.962-21.661-40.8-37.7l-3.95-7.050c-4.455-8.744-7.626-20.546-9.35-41.65-1.76-21.55-1.8-49.3-1.8-89.35v-488.098zM546.15 710.848c0-13.77 0.020-21.801 0.502-27.7 0.41-5.048 0.988-5.579 0.548-4.6 0.768-1.388 1.93-2.477 3.302-3.25 0.599-0.136 2.017-0.435 4.649-0.65 5.898-0.48 13.942-0.5 27.699-0.5h113.797l-150.098 150.050c-0.133 0.134-0.266 0.267-0.399 0.4v-113.75z" />
<glyph unicode="&#xe907;" glyph-name="print" d="M861.889 448.111v42.667c0 41.182-0.085 68.631-2.833 89.056-2.611 19.438-7.060 27.393-12.163 32.499-5.109 5.107-13.062 9.552-32.501 12.167-20.429 2.745-47.872 2.834-89.060 2.834h-426.664c-41.183 0-68.631-0.089-89.056-2.834-19.439-2.615-27.393-7.059-32.5-12.167s-9.552-13.061-12.167-32.499c-2.744-20.425-2.833-47.873-2.833-89.056v-85.333c0-3.247 0.034-6.007 0.055-8.445 2.451-0.022 5.229-0.111 8.5-0.111h70.278v-68.225h-70.278c-9.062 0-19.286-0.091-27.889 1.058-9.554 1.28-22.068 4.585-32.611 15.053l-0.167 0.171c-10.453 10.524-13.772 22.977-15.056 32.552-1.153 8.607-1.055 18.858-1.055 27.947v85.333c0 39.26-0.112 72.133 3.389 98.166 3.635 27.025 11.716 51.716 31.611 71.611s44.586 27.976 71.611 31.611c26.034 3.5 58.907 3.389 98.167 3.389h426.664c39.259 0 72.135 0.111 98.167-3.389 27.028-3.636 51.718-11.716 71.612-31.611s27.978-44.586 31.613-71.611c3.499-26.033 3.385-58.907 3.385-98.166v-42.667c0-19.152 0.108-36.968-1.832-51.389-2.071-15.402-7.026-31.916-20.668-45.558-13.636-13.636-30.151-18.591-45.551-20.662-14.421-1.94-32.239-1.838-51.393-1.838h-27.608v68.225h27.608c21.083 0 33.468 0.092 42.28 1.278 3.51 0.472 5.37 1.052 6.281 1.389 0.336 0.906 0.916 2.77 1.388 6.278 1.183 8.812 1.274 21.195 1.274 42.278zM733.895 709.221c0 22.065-0.040 36.573-0.944 47.667-0.438 5.358-1.070 9.157-1.724 11.944l-2.002 5.833c-3.072 6.031-7.515 11.226-12.942 15.167l-5.723 3.5c-2.606 1.323-7.1 2.851-17.778 3.722-11.093 0.905-25.6 0.944-47.667 0.944h-266.221c-22.065 0-36.573-0.039-47.667-0.944-5.358-0.437-9.157-1.067-11.945-1.723l-5.833-2c-6.031-3.072-11.226-7.52-15.167-12.944l-3.5-5.722c-1.323-2.604-2.851-7.101-3.722-17.778-0.906-11.094-0.944-25.602-0.944-47.667v-47.778h-68.222v47.778c0 20.94-0.073 38.707 1.111 53.222 1.217 14.913 3.907 29.397 10.944 43.222l4.278 7.611c10.662 17.397 25.941 31.577 44.222 40.889l10.5 4.5c10.601 3.776 21.538 5.532 32.722 6.445 14.516 1.184 32.282 1.111 53.222 1.111h266.221c20.941 0 38.707 0.073 53.225-1.111 14.911-1.218 29.394-3.907 43.218-10.945l7.612-4.277c17.397-10.662 31.579-25.941 40.892-44.223l4.5-10.5c3.772-10.601 5.53-21.537 6.44-32.722 1.189-14.516 1.115-32.283 1.115-53.222v-47.778h-68.221v47.778zM733.895 448.11c0 21.083-0.097 33.467-1.28 42.278-0.484 3.572-1.052 5.447-1.388 6.333-0.916 0.337-2.793 0.864-6.281 1.333-8.812 1.185-21.191 1.278-42.274 1.278h-341.335c-21.083 0-33.467-0.093-42.278-1.278-3.548-0.478-5.44-0.998-6.333-1.333-0.336-0.894-0.856-2.786-1.333-6.333-1.186-8.811-1.278-21.195-1.278-42.278v-336.665l76.334 25.441 5.778 1.838c3.214 0.836 7.434 1.61 11.778 1.61l6.333-0.501c6.008-0.927 10.757-2.788 11.222-2.947l110.445-36.722 116.22 38.559c3.214 0.836 7.435 1.61 11.782 1.61l6.332-0.501c6.007-0.927 10.758-2.788 11.224-2.947l76.334-25.441v336.665zM802.116 93.719c0-5.649 0.114-13.71-0.887-20.554-1.126-7.657-4.557-21.151-17.67-30.612-13.124-9.466-27.045-8.465-34.668-7.111-3.391 0.603-6.975 1.587-10.388 2.611l-9.387 3.004-89.168 29.719-110.389-36.779c-0.62-0.205-8.843-3.442-17.555-3.442-4.344 0-8.564 0.774-11.778 1.61l-5.778 1.832-110.445 36.779-89.111-29.719c-5.345-1.786-12.974-4.403-19.777-5.615-7.622-1.354-21.54-2.355-34.667 7.111-13.111 9.461-16.541 22.955-17.666 30.612-1.004 6.844-0.889 14.905-0.889 20.554v354.392c0 19.151-0.106 36.968 1.834 51.389 2.074 15.403 7.027 31.916 20.667 45.555l5.222 4.722c12.515 10.11 26.853 14.129 40.334 15.944 14.421 1.94 32.237 1.834 51.389 1.834h341.335c19.149 0 36.966 0.106 51.388-1.834 13.483-1.815 27.819-5.834 40.334-15.944l5.222-4.722 4.722-5.222c10.109-12.515 14.126-26.853 15.946-40.333 1.94-14.421 1.832-32.238 1.832-51.389v-354.392zM618.667 268.891l6.889-0.671c15.548-3.186 27.221-16.953 27.221-33.439 0-16.492-11.674-30.259-27.221-33.445l-6.889-0.671h-192c-18.851 0-34.111 15.263-34.111 34.116 0 18.847 15.26 34.111 34.111 34.111h192zM554.667 396.889l6.889-0.667c15.548-3.186 27.222-16.955 27.222-33.442 0-16.492-11.674-30.259-27.222-33.445l-6.889-0.671h-128c-18.851 0-34.111 15.263-34.111 34.116 0 18.847 15.26 34.108 34.111 34.108h128z" />
<glyph unicode="&#xe908;" glyph-name="Frame" horiz-adv-x="721" d="M711.68 960h-697.271v-87.44h697.271v87.44zM14.409 842.682v-906.649h316.82v131.435h75.925v-131.435h304.479v906.649h-697.224zM181.49 739.139h56.658v-89.733h-56.658v89.733zM181.49 613.713h56.658v-89.733h-56.658v89.733zM181.49 488.29h56.658v-89.735h-56.658v89.735zM181.49 362.864h56.658v-89.733h-56.658v89.733zM181.49 237.484h56.658v-89.733h-56.658v89.733zM89.646 739.139h56.657v-89.733h-56.657v89.733zM89.646 613.713h56.657v-89.733h-56.657v89.733zM89.646 488.29h56.657v-89.735h-56.657v89.735zM89.646 362.864h56.657v-89.733h-56.657v89.733zM89.646 237.484h56.657v-89.733h-56.657v89.733zM259.938 9.663h-124.278v32.207h124.278v-32.207zM323.156 147.705h-56.704v89.779h56.704v-89.779zM323.156 273.131h-56.704v89.733h56.704v-89.733zM323.156 398.555h-56.704v89.735h56.704v-89.735zM323.156 523.981h-56.704v89.733h56.704v-89.733zM323.156 649.407h-56.704v89.733h56.704v-89.733zM486.291 739.139h56.657v-89.733h-56.657v89.733zM486.291 613.713h56.657v-89.733h-56.657v89.733zM486.291 488.29h56.657v-89.735h-56.657v89.735zM486.291 362.864h56.657v-89.733h-56.657v89.733zM486.291 237.484h56.657v-89.733h-56.657v89.733zM453.076 147.705h-56.657v89.779h56.657v-89.779zM453.076 273.131h-56.657v89.733h56.657v-89.733zM453.076 398.555h-56.657v89.735h56.657v-89.735zM453.076 523.981h-56.657v89.733h56.657v-89.733zM453.076 649.407h-56.657v89.733h56.657v-89.733zM579.786 9.663h-124.279v32.207h124.279v-32.207zM636.444 147.705h-56.657v89.779h56.657v-89.779zM636.444 273.131h-56.657v89.733h56.657v-89.733zM636.444 398.555h-56.657v89.735h56.657v-89.735zM636.444 523.981h-56.657v89.733h56.657v-89.733zM636.444 649.407h-56.657v89.733h56.657v-89.733z" />
<glyph unicode="&#xe909;" glyph-name="Frame-1" horiz-adv-x="1047" d="M14.409 854.364v-845.837h332.464v75.515h59.238v770.321h-391.702zM169.681 131.468h-103.69v101.327h103.69v-101.327zM169.681 307.61h-103.69v101.327h103.69v-101.327zM169.681 483.007h-103.69v101.327h103.69v-101.327zM169.681 658.448h-103.69v101.326h103.69v-101.326zM363.892 131.468h-103.692v101.327h103.692v-101.327zM363.892 307.61h-103.692v101.327h103.692v-101.327zM363.892 483.007h-103.692v101.327h103.692v-101.327zM363.892 658.448h-103.692v101.326h103.692v-101.326zM964.682 30.599v929.401h-522.342v-929.401h-63.614v-85.225h648.52v85.225h-62.564zM774.279-0.289h-142.671v116.333h142.671v-116.333zM908.681 170.515h-421.32v49.396h421.364l-0.044-49.396zM908.681 258.192h-421.32v49.35h421.364l-0.044-49.35zM908.681 345.912h-421.32v49.396h421.364l-0.044-49.396zM908.681 433.634h-421.32v49.394h421.364l-0.044-49.394zM908.681 521.309h-421.32v49.396h421.364l-0.044-49.396zM908.681 609.031h-421.32v49.394h421.364l-0.044-49.394zM908.681 696.751h-421.32v49.351h421.364l-0.044-49.351zM908.681 784.428h-421.32v49.395h421.364l-0.044-49.395z" />
<glyph unicode="&#xe90a;" glyph-name="Frame-2" horiz-adv-x="1094" d="M360.239 960v-1024h132.115v205.13h110.911v-205.13h141.566v1024h-384.591zM482.9 303.16h-65.21v159.865h65.254l-0.044-159.865zM482.9 507.597h-65.21v159.863h65.254l-0.044-159.863zM482.9 705.529h-65.21v159.862h65.254l-0.044-159.862zM585.139 303.16h-65.254v159.865h65.254v-159.865zM585.139 507.597h-65.254v159.863h65.254v-159.863zM585.139 705.529h-65.254v159.862h65.254v-159.862zM687.379 303.16h-65.254v159.865h65.254v-159.865zM687.379 507.597h-65.254v159.863h65.254v-159.863zM687.379 705.529h-65.254v159.862h65.254v-159.862zM260.166 99.984v100.029h82.641v69.59h-82.641v100.029h82.641v78.306h-82.641v100.073h82.641v73.754h-82.641v100.026h82.641v65.256h-328.398v-798.188h328.398v111.085l-82.641 0.042zM178.608 99.984h-100.028v100.029h100.028v-100.029zM178.608 269.603h-100.028v100.029h100.028v-100.029zM178.608 447.937h-100.028v100.073h100.028v-100.073zM178.608 621.763h-100.028v100.026h100.028v-100.026zM1039.884 27.366v642.316h-269.691v-60.919h204.437v-34.774h-204.437v-60.919h204.437v-34.6h-204.437v-60.919h204.437v-29.57h-204.437v-60.877h204.437v-32.605h-204.437v-60.919h204.437v-56.541h-204.437v-201.225h313.181v51.551h-43.49zM926.762 30.229h-121.795v89.146h121.795v-89.146z" />
<glyph unicode="&#xe90b;" glyph-name="Vector-Stroke-7" horiz-adv-x="1126" d="M577.013 434.194c18.34 27.819 15.282 65.619-9.2 90.1l-384 384.001-11.3 9.2c-27.819 18.34-65.619 15.281-90.1-9.2s-27.539-62.281-9.2-90.1l9.2-11.3 333.3-333.3-333.3-333.301c-27.993-27.992-27.993-73.406 0-101.4s73.407-27.993 101.4 0l384 384 9.2 11.3zM1114.614 434.194c18.34 27.819 15.278 65.619-9.196 90.1l-384.005 384.001-11.3 9.2c-27.819 18.34-65.619 15.281-90.1-9.2s-27.539-62.281-9.201-90.1l9.201-11.3 333.3-333.3-333.3-333.301c-27.993-27.992-27.993-73.406 0-101.4 27.992-27.993 73.406-27.993 101.4 0l384.005 384 9.196 11.3z" />
<glyph unicode="&#xe90c;" glyph-name="Vector-Stroke-6" horiz-adv-x="1138" d="M156.444 21.333c34.033 0 61.601 27.58 61.611 61.611 0 34.037-27.572 61.668-61.611 61.668s-61.611-27.631-61.611-61.668c0.010-34.031 27.579-61.611 61.611-61.611zM573.611 21.333c34.031 0 61.656 27.58 61.668 61.611 0 34.037-27.631 61.668-61.668 61.668-34.030-0.011-61.611-27.637-61.611-61.668 0.010-34.025 27.587-61.599 61.611-61.611zM573.611 874.667c-34.023-0.010-61.6-27.588-61.611-61.611 0-34.032 27.581-61.657 61.611-61.666 34.037 0 61.668 27.629 61.668 61.666-0.011 34.029-27.637 61.611-61.668 61.611zM990.834 21.333c34.020 0.011 61.599 27.585 61.611 61.611 0 34.031-27.58 61.656-61.611 61.668-34.037 0-61.668-27.631-61.668-61.668 0.011-34.031 27.637-61.611 61.668-61.611zM990.834-64c-81.158 0-146.99 65.786-147.001 146.944 0 66.293 43.913 122.357 104.22 140.669-0.074 31.033-0.336 54.34-1.889 73.33-1.434 17.584-3.823 29.349-6.997 38.224l-3.447 8.055c-9.54 18.722-24.018 34.406-41.83 45.335l-7.89 4.388c-9.711 4.944-22.79 8.474-46.222 10.388-23.945 1.956-54.767 2-99.277 2h-124.223v-181.72c60.365-18.278 104.334-74.337 104.334-140.669-0.011-81.158-65.838-146.944-147.001-146.944-81.152 0.011-146.934 65.792-146.944 146.944 0 66.321 43.932 122.379 104.278 140.669v181.72h-124.167c-44.5 0-75.335-0.045-99.278-2-23.447-1.915-36.56-5.437-46.277-10.388l-7.834-4.388c-17.822-10.934-32.345-26.601-41.889-45.335l-3.444-8.055c-3.173-8.875-5.509-20.651-6.944-38.224-1.551-18.99-1.758-42.297-1.834-73.33 60.276-18.335 104.111-74.399 104.111-140.669-0.010-81.158-65.784-146.944-146.945-146.944s-146.934 65.786-146.944 146.944c0 66.389 44.003 122.493 104.444 140.72 0.071 31.42 0.289 57.907 2.111 80.225 2.054 25.134 6.132 47.861 15.222 69.057l4.222 9c16.701 32.779 42.090 60.202 73.277 79.332l13.722 7.666c23.751 12.101 49.329 17.097 78.056 19.445 28.223 2.305 63.131 2.278 106.222 2.278h124.167v181.722c-60.347 18.29-104.278 74.349-104.278 140.666 0.010 81.15 65.791 146.935 146.944 146.945 81.163 0 146.99-65.788 147.001-146.945 0-66.33-43.969-122.387-104.334-140.666v-181.722h124.223c43.099 0 77.995 0.028 106.223-2.278 28.723-2.347 54.306-7.342 78.057-19.445l13.722-7.666c31.181-19.129 56.576-46.556 73.279-79.332l4.221-9c9.085-21.197 13.17-43.93 15.223-69.057 1.82-22.318 2.094-48.805 2.162-80.225 60.41-18.25 104.391-74.359 104.391-140.72-0.011-81.152-65.792-146.933-146.944-146.944z" />
<glyph unicode="&#xe90d;" glyph-name="Vector-Stroke-5" horiz-adv-x="975" d="M625.762 500c0 25.637-0.024 42.69-1.097 55.762-0.77 9.457-1.965 15.026-3.282 18.714l-1.385 3.143c-3.799 7.459-9.284 13.885-15.999 18.762l-7.046 4.333c-3.545 1.807-9.26 3.634-21.904 4.667-13.068 1.067-30.091 1.095-55.715 1.095h-339.714c-25.637 0-42.69-0.027-55.762-1.095-9.467-0.774-15.026-2.013-18.714-3.333l-3.143-1.334c-7.458-3.8-13.886-9.293-18.762-16l-4.333-7.095c-1.805-3.546-3.634-9.231-4.667-21.857-1.068-13.073-1.095-30.125-1.095-55.762v-339.714c0-25.624 0.028-42.647 1.095-55.715 1.033-12.644 2.86-18.359 4.667-21.904l4.333-7.046c4.877-6.715 11.303-12.2 18.762-15.999l3.143-1.385c3.688-1.317 9.257-2.511 18.714-3.282 13.072-1.073 30.125-1.097 55.762-1.097h339.714c25.624 0 42.647 0.029 55.715 1.097 12.644 1.029 18.359 2.857 21.904 4.667l7.095 4.33c6.69 4.871 12.161 11.279 15.95 18.715l1.385 3.145c1.321 3.686 2.506 9.27 3.282 18.759 1.068 13.068 1.097 30.091 1.097 55.715v339.714zM480.048 467.763c14.281 14.28 37.433 14.28 51.715 0 14.282-14.282 14.282-37.435 0-51.717l-201.144-201.143c-13.39-13.39-34.588-14.238-48.952-2.521l-2.762 2.521-89.381 89.381-2.524 2.809c-11.708 14.365-10.863 35.518 2.524 48.908 13.387 13.385 34.54 14.229 48.905 2.521l2.81-2.521 63.524-63.527 175.286 175.289zM698.904 322.048h88.62c25.624 0 42.647 0.029 55.715 1.097 12.644 1.029 18.359 2.857 21.904 4.667l7.095 4.33c6.69 4.871 12.161 11.279 15.95 18.715l1.385 3.145c1.321 3.686 2.506 9.27 3.282 18.759 1.068 13.068 1.097 30.091 1.097 55.715v339.714c0 25.637-0.024 42.69-1.097 55.762-0.77 9.457-1.965 15.026-3.282 18.714l-1.385 3.143c-3.799 7.459-9.284 13.885-15.999 18.762l-7.046 4.333c-3.545 1.807-9.26 3.634-21.904 4.667-13.068 1.067-30.091 1.095-55.715 1.095h-339.714c-25.637 0-42.69-0.027-55.762-1.095-9.467-0.774-15.026-2.013-18.714-3.333l-3.143-1.334c-7.458-3.8-13.886-9.293-18.762-16l-4.333-7.095c-1.805-3.546-3.634-9.231-4.667-21.857-1.068-13.073-1.095-30.125-1.095-55.762v-88.571h178c24.415 0 44.929 0.033 61.664-1.334 17.169-1.402 33.573-4.446 49.147-12.381l8.665-4.857c19.729-12.099 35.811-29.45 46.382-50.191l2.76-5.905c5.915-13.801 8.392-28.222 9.621-43.238 1.365-16.742 1.331-37.284 1.331-61.715v-177.952zM967.095 428.476c0-24.415 0.034-44.929-1.331-61.664-1.229-15.028-3.696-29.477-9.621-43.286l-2.76-5.861c-10.567-20.738-26.648-38.088-46.382-50.191l-8.665-4.857c-15.579-7.934-31.978-10.976-49.147-12.381-16.735-1.365-37.249-1.331-61.664-1.331h-88.62v-88.62c0-24.415 0.034-44.929-1.331-61.664-1.229-15.028-3.696-29.477-9.621-43.286l-2.76-5.861c-10.567-20.738-26.648-38.088-46.382-50.191l-8.665-4.857c-15.579-7.934-31.978-10.976-49.147-12.381-16.735-1.365-37.249-1.331-61.664-1.331h-339.714c-24.43 0-44.973-0.034-61.715 1.331-15.016 1.229-29.437 3.706-43.238 9.621l-5.905 2.76c-20.741 10.572-38.091 26.653-50.191 46.382l-4.857 8.665c-7.935 15.575-10.978 31.978-12.381 49.147-1.367 16.735-1.333 37.249-1.333 61.664v339.714c0 24.43-0.035 44.973 1.333 61.715 1.403 17.166 4.445 33.569 12.381 49.143l4.857 8.667c12.102 19.731 29.454 35.813 50.191 46.381l5.905 2.714c13.805 5.92 28.218 8.439 43.238 9.667 16.742 1.368 37.284 1.334 61.715 1.334h88.571v88.571c0 24.43-0.035 44.973 1.334 61.715 1.403 17.166 4.445 33.569 12.381 49.143l4.857 8.667c12.102 19.731 29.454 35.813 50.191 46.381l5.905 2.714c13.805 5.92 28.218 8.439 43.238 9.667 16.742 1.368 37.284 1.333 61.715 1.333h339.714c24.415 0 44.929 0.033 61.664-1.333 17.169-1.403 33.573-4.446 49.147-12.381l8.665-4.857c19.729-12.099 35.811-29.45 46.382-50.191l2.76-5.905c5.915-13.801 8.392-28.222 9.621-43.238 1.365-16.742 1.331-37.284 1.331-61.715v-339.714z" />
<glyph unicode="&#xe90e;" glyph-name="Vector-Stroke-4" horiz-adv-x="922" d="M821.35 166.4c0 69.514-56.387 125.901-125.901 125.901-69.504-0.010-125.85-56.392-125.85-125.901 0.010-69.499 56.351-125.839 125.85-125.85 69.509 0 125.891 56.34 125.901 125.85zM320 345.6l3.95-0.2c19.351-1.976 34.45-18.324 34.45-38.2-0.008-19.866-15.102-36.224-34.45-38.2l-3.95-0.2h-93.85c-21.202 0-38.391 17.198-38.4 38.4 0 21.207 17.192 38.4 38.4 38.4h93.85zM507.75 533.35l3.9-0.2c19.366-1.962 34.501-18.315 34.501-38.2s-15.135-36.238-34.501-38.2l-3.9-0.2h-281.6c-21.208 0-38.4 17.192-38.4 38.4s17.192 38.4 38.4 38.4h281.6zM750.95 518.4v173.65c0 40.049-0.041 67.801-1.802 89.35-1.29 15.824-3.441 26.412-6.298 34.4l-3.103 7.25c-8.586 16.847-21.617 30.965-37.647 40.8l-7.101 3.95c-8.745 4.449-20.516 7.627-41.6 9.35-10.778 0.881-23.107 1.322-37.75 1.55l-51.599 0.25h-300.35c-40.049 0-67.801-0.040-89.35-1.8-15.817-1.293-26.413-3.396-34.4-6.25l-7.25-3.1c-16.857-8.59-30.962-21.662-40.8-37.7l-3.95-7.050c-4.455-8.744-7.626-20.546-9.35-41.65-1.76-21.55-1.8-49.3-1.8-89.35v-488.1c0-40.054 0.039-67.799 1.8-89.349 1.723-21.084 4.898-32.86 9.35-41.6l3.95-7.050c9.837-16.041 23.941-29.107 40.8-37.699l7.25-3.103c7.987-2.857 18.579-5.007 34.4-6.298 21.549-1.761 49.303-1.751 89.35-1.751h126.7l3.95-0.2c19.347-1.976 34.441-18.335 34.45-38.2 0-19.876-15.099-36.224-34.45-38.2l-3.95-0.2h-126.7c-38.782 0-70.199-0.026-95.6 2.048-22.615 1.848-43.079 5.473-62.15 13.65l-8.1 3.799c-29.507 15.037-54.181 37.924-71.4 66.002l-6.9 12.349c-10.885 21.371-15.388 44.355-17.5 70.2-2.075 25.4-2.050 56.812-2.050 95.601v488.1c0 38.782-0.024 70.199 2.050 95.6 2.112 25.853 6.609 48.875 17.5 70.25l6.9 12.35c17.217 28.068 41.899 50.918 71.4 65.95l8.1 3.8c19.074 8.181 39.53 11.852 62.15 13.7 25.401 2.074 56.818 2.050 95.6 2.050l353.199-0.25c15.867-0.252 30.060-0.763 42.752-1.8 25.851-2.112 48.876-6.61 70.252-17.5l12.349-6.9c28.063-17.218 50.918-41.902 65.951-71.4l3.799-8.1c8.177-19.073 11.853-39.534 13.701-62.15 2.074-25.401 2.048-56.819 2.048-95.6v-173.65c-0.010-21.195-17.208-38.391-38.4-38.4-21.202 0-38.39 17.2-38.4 38.4zM601.6 721.1c21.202 0 38.39-17.2 38.4-38.4 0-21.208-17.193-38.4-38.4-38.4h-375.45c-21.208 0-38.4 17.192-38.4 38.4 0.009 21.2 17.198 38.4 38.4 38.4h375.45zM898.15 166.4c-0.005-42.071-12.902-81.111-34.852-113.5l47.053-47.048 2.647-2.954c12.288-15.078 11.397-37.294-2.647-51.348-14.065-14.060-36.316-14.961-51.4-2.647l-2.903 2.647-46.996 47.002c-32.399-21.965-71.511-34.801-113.603-34.801-111.918 0.010-202.64 90.732-202.65 202.65 0 111.923 90.726 202.691 202.65 202.701 111.928 0 202.701-90.772 202.701-202.701z" />
<glyph unicode="&#xe90f;" glyph-name="Vector-Stroke-3" horiz-adv-x="970" d="M889.269 496.158c0 22.987-0.194 33.012-1.056 39.316l-1.105 5.421c-1.913 6.831-5.093 13.238-9.313 18.947v0.053c-1.989 2.685-4.419 5.282-9.367 9.526l-24.581 19.631-335.052 260.579c-9.114 7.090-14.327 11.088-18.368 13.79l-3 1.948c-0.767 0.207-1.581 0.316-2.369 0.316l-2.368-0.316c1.062 0.287 0.62 0.471-3-1.948l-18.368-13.79-335.053-260.579c-18.138-14.107-25.92-20.45-30.368-25l-3.632-4.211c-3.154-4.269-5.692-8.95-7.579-13.895l-1.684-5.053c-1.81-6.465-2.158-14.083-2.158-44.737v-357.422c0-28.332 0.030-47.185 1.21-61.629 1.14-13.948 3.163-20.237 5.158-24.161l4.79-7.842c5.39-7.416 12.494-13.484 20.737-17.683l3.474-1.525c4.076-1.461 10.233-2.781 20.684-3.633 14.449-1.18 33.296-1.213 61.631-1.213h97.895v325.158c0 13.166-0.049 25.476 0.79 35.738 0.877 10.736 2.92 22.754 9 34.687l3.474 6.209c8.633 14.066 21.017 25.523 35.79 33.053l8.947 3.842c8.91 3.172 17.688 4.447 25.737 5.105 10.264 0.838 22.572 0.842 35.737 0.842h138.317c13.161 0 25.471-0.004 35.738-0.842 8.046-0.658 16.826-1.933 25.735-5.105l8.947-3.842 6.214-3.474c14.067-8.63 25.514-21.003 33.048-35.788l3.843-8.952c3.174-8.914 4.5-17.683 5.158-25.735 0.841-10.262 0.792-22.571 0.792-35.738v-325.158h97.894c28.332 0 47.179 0.032 61.629 1.213 13.964 1.143 20.243 3.164 24.161 5.158l7.842 4.791c7.405 5.379 13.484 12.45 17.683 20.679l1.477 3.476c1.466 4.080 2.824 10.235 3.681 20.739 1.18 14.444 1.213 33.296 1.213 61.629v357.422zM970.111 138.736c0-27.001 0.038-49.707-1.477-68.209-1.353-16.605-4.139-32.531-10.682-47.788l-3.002-6.527c-11.674-22.921-29.453-42.097-51.259-55.474l-9.582-5.368c-17.214-8.774-35.339-12.137-54.315-13.684-18.502-1.514-41.208-1.477-68.209-1.477h-98.789c-6.252 0-13.382-0.027-19.526 0.474-4.964 0.404-11.253 1.229-18.001 3.633l-6.845 3.002c-10.725 5.46-19.742 13.738-25.999 23.945l-2.474 4.527c-4.721 9.281-6.090 18.227-6.629 24.84-0.501 6.149-0.474 13.28-0.474 19.526v326.052c0 14.503-0.022 22.948-0.528 29.157-0.226 2.808-0.544 4.279-0.684 4.899-0.814 1.434-1.978 2.619-3.422 3.417-0.658 0.146-2.14 0.415-4.84 0.636-6.209 0.507-14.659 0.523-29.157 0.523h-138.317c-14.497 0-22.949-0.016-29.158-0.523-5.213-0.426-5.846-1.051-4.895-0.636-1.438-0.808-2.617-1.994-3.421-3.417 0.409 0.932-0.207 0.296-0.631-4.899-0.508-6.209-0.527-14.654-0.527-29.157v-326.052c0-6.246 0.029-13.377-0.474-19.526-0.406-4.969-1.28-11.248-3.684-18.001l-2.948-6.839v-0.054c-5.467-10.72-13.786-19.693-24-25.945l-4.474-2.474c-9.282-4.732-18.226-6.095-24.842-6.634-6.147-0.501-13.276-0.474-19.527-0.474h-98.79c-27.001 0-49.706-0.038-68.21 1.477-16.596 1.353-32.537 4.091-47.79 10.628l-6.526 3.056c-22.923 11.679-42.1 29.453-55.474 51.259l-5.368 9.582c-8.771 17.214-12.134 35.339-13.684 54.315-1.512 18.502-1.474 41.208-1.474 68.209v357.422c0 26.081-0.346 46.865 5.158 66.527l3.947 12c4.509 11.842 10.652 23.045 18.211 33.263l4.737 5.947c11.597 13.611 26.557 24.93 44.579 38.948l346.21 269.263c11.525 8.779 24.225 17.387 38.737 21.316l11.632 2.316c11.771 1.566 23.779 0.808 35.316-2.316l7.105-2.368c16.236-6.248 30.183-17.775 42.789-27.579l349.739-272.105c11.609-9.198 21.606-17.751 29.895-27.474l4.786-5.947 7.055-10.526c6.57-10.817 11.625-22.508 15.053-34.737l1.789-7.474c3.611-17.496 3.368-36.239 3.368-59.052v-357.422z" />
<glyph unicode="&#xe910;" glyph-name="Vector-Stroke-2" d="M877.714 155.429c0 50.498-40.931 91.429-91.429 91.429s-91.429-40.931-91.429-91.429c0-50.498 40.931-91.429 91.429-91.429s91.429 40.931 91.429 91.429zM877.714 643.071c-0.015 50.484-40.938 91.429-91.429 91.429s-91.415-40.945-91.429-91.429c0-50.495 40.931-91.429 91.429-91.429s91.429 40.934 91.429 91.429zM987.429 643.071c0-111.087-90.053-201.143-201.143-201.143-92.060 0-169.468 61.878-193.357 146.286h-483.215v-198.714c0-41.871 0.018-70.002 1.786-91.643 1.716-20.991 4.838-31.018 8.214-37.643l3.5-6.286c8.783-14.324 21.375-25.972 36.429-33.644l5.715-2.501c6.6-2.363 16.184-4.425 31.928-5.712 21.642-1.77 49.774-1.785 91.643-1.785h304c23.897 84.397 101.305 146.286 193.357 146.286 111.089 0 201.143-90.053 201.143-201.143s-90.053-201.143-201.143-201.143c-92.052 0-169.46 61.886-193.357 146.286h-304c-40.059 0-73.426-0.073-100.571 2.143-24.312 1.989-47.316 6.034-69.214 15.426l-9.285 4.359c-33.119 16.874-60.816 42.562-80.143 74.072l-7.786 13.861c-12.559 24.656-17.516 50.721-19.786 78.497-2.218 27.145-2.143 60.511-2.143 100.571v497.357c0 30.297 24.56 54.857 54.857 54.857s54.857-24.56 54.857-54.857v-188.929h483.215c23.904 84.385 101.313 146.286 193.357 146.286 111.082 0 201.128-90.067 201.143-201.143z" />
<glyph unicode="&#xe911;" glyph-name="Vector-Stroke-1" d="M0 243.206v58.5c0 30.297 24.56 54.857 54.857 54.857s54.857-24.56 54.857-54.857v-58.5c0-41.873 0.018-70.004 1.786-91.647 1.716-20.985 4.838-31.013 8.214-37.639l3.5-6.283c8.783-14.329 21.375-25.973 36.429-33.646l5.715-2.501c6.6-2.363 16.184-4.425 31.928-5.712 21.642-1.77 49.774-1.785 91.643-1.785h409.571c41.874 0 70.004 0.015 91.64 1.785 20.992 1.719 31.020 4.842 37.647 8.214l6.283 3.504c14.329 8.777 25.973 21.372 33.646 36.425l2.501 5.712c2.363 6.605 4.425 16.187 5.712 31.927 1.77 21.643 1.785 49.774 1.785 91.647v58.5c0 30.297 24.561 54.857 54.857 54.857s54.857-24.56 54.857-54.857v-58.5c0-40.059 0.073-73.427-2.143-100.57-1.989-24.313-6.034-47.316-15.426-69.215l-4.359-9.289c-16.874-33.119-42.562-60.811-74.072-80.143l-13.853-7.782c-24.664-12.559-50.725-17.518-78.504-19.785-27.143-2.216-60.511-2.143-100.571-2.143h-409.571c-40.059 0-73.426-0.073-100.571 2.143-24.312 1.982-47.316 6.034-69.214 15.426l-9.285 4.359c-33.119 16.874-60.816 42.555-80.143 74.072l-7.786 13.853c-12.559 24.664-17.516 50.725-19.786 78.504-2.218 27.143-2.143 60.511-2.143 100.57zM438.857 301.706v452.715l-150.143-150.143c-21.423-21.423-56.148-21.423-77.572 0s-21.423 56.149 0 77.572l243.786 243.786 4.143 3.786c21.546 17.577 53.343 16.3 73.429-3.786l243.787-243.786 3.781-4.214c17.569-21.546 16.296-53.277-3.781-73.357s-51.812-21.348-73.358-3.786l-4.214 3.786-150.143 150.143v-452.715c0-30.297-24.56-54.857-54.857-54.857s-54.857 24.561-54.857 54.857z" />
<glyph unicode="&#xe912;" glyph-name="Vector-Stroke2" horiz-adv-x="916" d="M528.202 99.107c16.652 11.954 39.988 9.588 53.845-6.106 14.767-16.74 13.156-42.28-3.584-57.053l-7.416-6.263c-37.756-30.477-85.868-48.791-138.161-48.791-55.775 0.005-106.811 20.836-145.579 55.053-16.725 14.773-18.296 40.319-3.526 57.053 14.775 16.729 40.319 18.297 57.053 3.525 24.559-21.671 56.731-34.784 92.052-34.789 35.338 0 67.541 13.107 92.106 34.789l3.211 2.582zM661.941 650.105c0 56.959-21.213 111.718-59.263 153.737l-7.793 8.21c-42.959 42.957-101.25 67.105-161.998 67.105-60.743-0.004-118.995-24.153-161.947-67.105-42.95-42.955-67.105-101.202-67.105-161.947 0-136.833-32.432-235.461-72.158-304.581l-8.053-13.42c-11.631-18.691-20.904-33.717-28.105-45.633 10.93-0.108 24.282-0.156 40.474-0.156h593.84c16.147 0 29.459 0.049 40.373 0.156-2.037 3.368-4.15 7.028-6.527 10.898l-21.477 34.735c-43.294 69.573-80.26 172.042-80.26 318.001zM742.783 650.105c0-131.614 33.118-219.186 68.053-275.316l21.736-35.107c6.322-10.294 11.701-19.17 16.001-26.629 4.263-7.4 8.095-14.417 10.892-20.577 1.396-3.077 2.873-6.78 4.053-10.741 0.744-2.485 1.994-6.974 2.264-12.579l-0.108-5.945c-0.485-5.939-1.703-15.689-7.26-25.686-4.166-7.486-9.475-12.832-13.894-16.524l-4.053-3.158c-10.412-7.723-22.512-9.442-26.635-10.051-6.376-0.949-13.732-1.444-21.261-1.741-15.161-0.587-36.271-0.577-62.739-0.577h-593.84c-26.482 0-47.628-0.011-62.79 0.577-7.524 0.296-14.838 0.798-21.211 1.741-3.595 0.528-13.325 1.897-22.684 7.421l-3.947 2.63c-4.781 3.546-12.444 9.69-18 19.682-4.167 7.502-5.884 14.87-6.684 20.582l-0.526 5.104c-0.679 8.311 1.117 15.204 2.105 18.524 1.181 3.967 2.708 7.664 4.105 10.741 2.799 6.166 6.629 13.177 10.895 20.577 8.598 14.918 21.42 35.511 37.737 61.736l6.526 10.898c32.417 56.35 61.473 141.029 61.473 264.418 0 82.185 32.679 160.99 90.79 219.105 58.113 58.113 136.921 90.785 219.105 90.789 82.19 0 161.039-32.674 219.159-90.789l10.58-11.105c51.475-56.849 80.158-130.945 80.158-208z" />
<glyph unicode="&#xe913;" glyph-name="Vector-Stroke" horiz-adv-x="1463" d="M1399.295 682.277c45.703 45.703 45.703 119.726 0 165.429s-119.726 45.703-165.429 0l-502.429-502.429-502.429 502.429-8.858 8c-45.966 37.517-113.715 34.856-156.571-8s-45.517-110.605-8-156.571l8-8.858 585.143-585.143c45.703-45.703 119.726-45.703 165.429 0l585.143 585.143z" />
<glyph unicode="&#xe914;" glyph-name="Vector-13" d="M359.316 827.052c0 14.498-0.072 22.948-0.579 29.158-0.227 2.786-0.489 4.267-0.632 4.895-0.819 1.448-2.016 2.617-3.474 3.421-0.673 0.147-2.137 0.414-4.79 0.631-6.209 0.508-14.663 0.527-29.158 0.527h-187.737c-14.496 0-22.948-0.019-29.158-0.527-5.21-0.425-5.843-1.047-4.895-0.631-1.432-0.807-2.614-1.989-3.421-3.421 0.416 0.948-0.206 0.315-0.631-4.895-0.507-6.21-0.527-14.662-0.527-29.158v-187.737c0-14.494 0.019-22.949 0.527-29.158 0.217-2.652 0.485-4.117 0.631-4.79 0.805-1.457 1.974-2.655 3.421-3.474 0.627-0.142 2.109-0.404 4.895-0.632 6.21-0.507 14.66-0.579 29.158-0.579h187.737c14.494 0 22.949 0.072 29.158 0.579 2.66 0.218 4.12 0.485 4.79 0.632 1.473 0.817 2.657 2.001 3.474 3.474 0.147 0.669 0.414 2.129 0.632 4.79 0.507 6.209 0.579 14.663 0.579 29.158v187.737zM440.158 639.315c0-13.163-0.003-25.473-0.842-35.737-0.659-8.051-1.931-16.825-5.105-25.737l-3.842-8.948c-7.539-14.794-19.027-27.158-33.105-35.789l-6.157-3.474c-11.929-6.078-23.949-8.070-34.684-8.948-10.263-0.839-22.573-0.842-35.737-0.842h-187.737c-13.164 0-25.473 0.004-35.737 0.842-8.049 0.658-16.826 1.934-25.737 5.105l-8.947 3.842c-14.792 7.537-27.159 19.030-35.79 33.105l-3.474 6.157c-6.078 11.93-8.122 23.948-9 34.684-0.838 10.263-0.789 22.573-0.789 35.737v187.737c0 13.163-0.048 25.473 0.789 35.737 0.877 10.736 2.923 22.754 9 34.684l3.474 6.211c8.63 14.063 21.007 25.52 35.79 33.053l8.947 3.842c8.912 3.173 17.687 4.5 25.737 5.158 10.264 0.838 22.574 0.789 35.737 0.789h187.737c13.163 0 25.473 0.049 35.737-0.789 8.053-0.658 16.822-1.982 25.737-5.158l8.948-3.842 6.157-3.474c14.075-8.631 25.568-20.998 33.105-35.79l3.842-8.947c3.172-8.91 4.448-17.688 5.105-25.737 0.838-10.264 0.842-22.573 0.842-35.737v-187.737zM902.737 827.052c0 14.499-0.070 22.948-0.577 29.158-0.232 2.787-0.49 4.268-0.636 4.895-0.814 1.441-1.983 2.62-3.417 3.421-0.652 0.144-2.123 0.409-4.845 0.631-6.209 0.508-14.659 0.527-29.157 0.527h-187.737c-14.498 0-22.948-0.019-29.157-0.527-5.212-0.425-5.842-1.047-4.894-0.631-1.428-0.803-2.614-1.982-3.422-3.421 0.415 0.947-0.205 0.313-0.631-4.895-0.507-6.21-0.528-14.662-0.528-29.158v-187.737c0-14.494 0.022-22.949 0.528-29.158 0.216-2.653 0.485-4.118 0.631-4.79 0.808-1.464 1.978-2.658 3.422-3.474 0.625-0.142 2.107-0.404 4.894-0.632 6.209-0.507 14.659-0.579 29.157-0.579h187.737c14.498 0 22.948 0.072 29.157 0.579 2.732 0.223 4.198 0.488 4.845 0.632 1.45 0.813 2.609 2.007 3.417 3.474 0.151 0.669 0.415 2.129 0.636 4.79 0.507 6.209 0.577 14.663 0.577 29.158v187.737zM983.579 639.315c0-13.163-0.005-25.473-0.841-35.737-0.658-8.051-1.929-16.825-5.104-25.737l-3.843-8.948c-7.54-14.787-19.025-27.155-33.108-35.789l-6.155-3.474c-11.932-6.078-23.951-8.070-34.687-8.948-10.262-0.839-22.571-0.842-35.738-0.842h-187.737c-13.161 0-25.471 0.004-35.738 0.842-8.046 0.658-16.826 1.934-25.735 5.105l-8.947 3.842c-14.805 7.541-27.163 19.035-35.791 33.105l-3.471 6.157c-6.079 11.93-8.122 23.948-9 34.684-0.841 10.263-0.792 22.574-0.792 35.737v187.737c0 13.163-0.049 25.473 0.792 35.737 0.873 10.736 2.921 22.754 9 34.684l3.471 6.211c8.629 14.058 20.997 25.516 35.791 33.053l8.947 3.842c8.909 3.173 17.688 4.5 25.735 5.158 10.267 0.838 22.577 0.789 35.738 0.789h187.737c13.166 0 25.476 0.049 35.738-0.789 10.736-0.878 22.754-2.921 34.687-9l6.155-3.474c14.083-8.634 25.573-21.005 33.108-35.79l3.843-8.947c3.169-8.91 4.446-17.688 5.104-25.737 0.835-10.264 0.841-22.573 0.841-35.737v-187.737zM902.737 283.632c0 14.498-0.070 22.948-0.577 29.157-0.232 2.786-0.49 4.268-0.636 4.894-0.819 1.45-2.010 2.619-3.471 3.422-0.674 0.146-2.14 0.415-4.791 0.631-6.209 0.507-14.659 0.528-29.157 0.528h-187.737c-14.498 0-22.948-0.022-29.157-0.528-5.206-0.426-5.842-1.046-4.894-0.631-1.434-0.808-2.614-1.989-3.422-3.422 0.415 0.949-0.205 0.313-0.631-4.894-0.507-6.209-0.528-14.659-0.528-29.157v-187.737c0-14.498 0.022-22.948 0.528-29.157 0.216-2.652 0.485-4.118 0.631-4.791 0.803-1.461 1.973-2.652 3.422-3.471 0.625-0.146 2.107-0.404 4.894-0.636 6.209-0.507 14.659-0.577 29.157-0.577h187.737c14.498 0 22.948 0.070 29.157 0.577 2.662 0.221 4.123 0.485 4.791 0.636 1.477 0.814 2.657 1.994 3.471 3.471 0.151 0.668 0.415 2.129 0.636 4.791 0.507 6.209 0.577 14.659 0.577 29.157v187.737zM983.579 95.895c0-13.166-0.005-25.476-0.841-35.738-0.658-8.052-1.929-16.826-5.104-25.735l-3.843-8.952c-7.54-14.794-19.025-27.158-33.108-35.786l-6.155-3.476c-11.932-6.079-23.951-8.068-34.687-8.947-10.262-0.835-22.571-0.841-35.738-0.841h-187.737c-13.161 0-25.471 0.005-35.738 0.841-8.046 0.658-16.826 1.935-25.735 5.104l-8.947 3.843c-14.794 7.54-27.158 19.030-35.791 33.108l-3.471 6.155c-6.079 11.932-8.122 23.951-9 34.687-0.841 10.262-0.792 22.571-0.792 35.738v187.737c0 13.161-0.049 25.471 0.792 35.738 0.873 10.736 2.921 22.754 9 34.681l3.471 6.214c8.629 14.061 21.003 25.519 35.791 33.048l8.947 3.843c8.909 3.174 17.688 4.5 25.735 5.158 10.267 0.841 22.577 0.792 35.738 0.792h187.737c13.166 0 25.476 0.049 35.738-0.792 8.052-0.658 16.821-1.978 25.735-5.158l8.952-3.843 6.155-3.471c14.077-8.634 25.568-20.997 33.108-35.791l3.843-8.947c3.169-8.909 4.446-17.688 5.104-25.735 0.835-10.267 0.841-22.577 0.841-35.738v-187.737zM359.316 283.632c0 14.498-0.072 22.948-0.579 29.157-0.227 2.786-0.489 4.268-0.632 4.894-0.815 1.444-2.009 2.614-3.474 3.422-0.672 0.146-2.137 0.415-4.79 0.631-6.209 0.507-14.663 0.528-29.158 0.528h-187.737c-14.497 0-22.948-0.022-29.158-0.528-5.208-0.426-5.842-1.046-4.895-0.631-1.439-0.808-2.618-1.994-3.421-3.422 0.416 0.949-0.206 0.318-0.631-4.894-0.507-6.209-0.527-14.659-0.527-29.157v-187.737c0-14.498 0.019-22.948 0.527-29.157 0.223-2.722 0.487-4.193 0.631-4.845 0.801-1.434 1.98-2.603 3.421-3.417 0.627-0.146 2.108-0.404 4.895-0.636 6.21-0.507 14.659-0.577 29.158-0.577h187.737c14.494 0 22.949 0.070 29.158 0.577 2.661 0.221 4.121 0.485 4.79 0.636 1.466 0.808 2.661 1.967 3.474 3.417 0.144 0.647 0.409 2.113 0.632 4.845 0.507 6.209 0.579 14.659 0.579 29.157v187.737zM440.158 95.895c0-13.166-0.003-25.476-0.842-35.738-0.658-8.052-1.931-16.826-5.105-25.735l-3.842-8.952c-7.542-14.799-19.032-27.158-33.105-35.786l-6.157-3.476c-11.929-6.074-23.949-8.068-34.684-8.947-10.263-0.835-22.574-0.841-35.737-0.841h-187.737c-13.164 0-25.473 0.005-35.737 0.841-8.049 0.658-16.826 1.935-25.737 5.104l-8.947 3.843c-14.784 7.534-27.156 19.025-35.79 33.108l-3.474 6.155c-6.079 11.932-8.122 23.951-9 34.687-0.838 10.262-0.789 22.571-0.789 35.738v187.737c0 13.161-0.048 25.471 0.789 35.738 0.877 10.736 2.923 22.754 9 34.681l3.474 6.214c8.633 14.067 21.014 25.519 35.79 33.048l8.947 3.843c8.912 3.174 17.687 4.5 25.737 5.158 10.264 0.841 22.574 0.792 35.737 0.792h187.737c13.163 0 25.473 0.049 35.737-0.792 8.053-0.658 16.822-1.978 25.737-5.158l8.948-3.843 6.157-3.471c14.070-8.629 25.564-20.987 33.105-35.791l3.842-8.947c3.172-8.909 4.448-17.688 5.105-25.735 0.838-10.267 0.842-22.577 0.842-35.738v-187.737z" />
<glyph unicode="&#xe915;" glyph-name="Vector-12" horiz-adv-x="956" d="M465.966 868.934c-206.757 0-374.966-168.164-374.966-374.921s168.209-374.97 374.966-374.97c206.711 0 374.922 168.212 374.922 374.97s-168.21 374.921-374.922 374.921zM465.966 50.777c-244.395 0-443.233 198.84-443.233 443.236s198.838 443.187 443.233 443.187c244.396 0 443.189-198.792 443.189-443.187s-198.793-443.236-443.189-443.236zM910.855-5.871c-8.69 0-17.428 3.325-24.119 9.967l-160.386 159.928c-13.332 13.332-13.38 34.953-0.041 48.285 13.285 13.428 34.905 13.339 48.285 0.096l160.379-159.976c13.339-13.332 13.38-34.905 0.048-48.237-6.642-6.738-15.428-10.063-24.166-10.063z" />
<glyph unicode="&#xe916;" glyph-name="x" d="M701.84 690.186c14.625 11.929 36.184 11.088 49.818-2.546 14.531-14.54 14.531-38.097 0-52.636l-187.048-187 187.048-187.001 2.546-2.863c11.92-14.625 11.082-36.189-2.546-49.818-13.633-13.633-35.193-14.471-49.818-2.546l-2.867 2.546-186.996 187.043-187.002-187.043-2.818-2.546c-14.623-11.93-36.184-11.082-49.819 2.546-14.542 14.541-14.542 38.139 0 52.68l186.955 187.001-186.955 187-2.545 2.818c-11.938 14.626-11.091 36.182 2.545 49.818s35.193 14.483 49.819 2.546l2.818-2.546 187.002-186.954 186.996 186.954 2.867 2.546z" />
<glyph unicode="&#xe917;" glyph-name="Vector-8" d="M445.611 381.48h-331.852c-18.805 0-34.567 6.36-47.289 19.083-12.721 12.721-19.081 28.484-19.081 47.289s6.36 34.567 19.081 47.289c12.721 12.721 28.484 19.081 47.289 19.081h331.852v331.852c0 18.805 6.36 34.567 19.082 47.289s28.484 19.081 47.288 19.081c18.805 0 34.568-6.36 47.289-19.081 12.719-12.721 19.079-28.484 19.079-47.289v-331.852h331.856c18.802 0 34.566-6.36 47.286-19.081s19.081-28.484 19.081-47.289c0-18.805-6.36-34.568-19.081-47.289-12.72-12.723-28.484-19.083-47.286-19.083h-331.856v-331.85c0-18.807-6.36-34.566-19.079-47.292-12.721-12.72-28.484-19.081-47.289-19.081s-34.567 6.36-47.288 19.081c-12.721 12.726-19.082 28.484-19.082 47.292v331.85z" />
<glyph unicode="&#xe918;" glyph-name="threedots" d="M128 448c0 47.128 38.205 85.333 85.333 85.333s85.333-38.205 85.333-85.333c0-47.128-38.205-85.333-85.333-85.333s-85.333 38.205-85.333 85.333zM426.667 448c0 47.128 38.205 85.333 85.333 85.333s85.333-38.205 85.333-85.333c0-47.128-38.205-85.333-85.333-85.333s-85.333 38.205-85.333 85.333zM725.333 448c0 47.128 38.207 85.333 85.333 85.333s85.333-38.205 85.333-85.333c0-47.128-38.207-85.333-85.333-85.333s-85.333 38.205-85.333 85.333z" />
<glyph unicode="&#xe919;" glyph-name="search" d="M405.333 277.333c-77.511 0-143.111 26.846-196.8 80.533s-80.533 119.287-80.533 196.8c0 77.511 26.845 143.111 80.533 196.8s119.289 80.533 196.8 80.533c77.513 0 143.113-26.845 196.8-80.533s80.533-119.289 80.533-196.8c0-31.287-4.979-60.8-14.933-88.533s-23.467-52.267-40.533-73.6l238.933-238.933c7.821-7.821 11.733-17.779 11.733-29.867s-3.913-22.046-11.733-29.867c-7.821-7.821-17.779-11.733-29.867-11.733s-22.046 3.913-29.867 11.733l-238.933 238.933c-21.333-17.067-45.867-30.579-73.6-40.533s-57.246-14.933-88.533-14.933zM405.333 362.667c53.333 0 98.667 18.667 136 56s56 82.667 56 136c0 53.333-18.667 98.667-56 136s-82.667 56-136 56c-53.333 0-98.667-18.667-136-56s-56-82.667-56-136c0-53.333 18.667-98.667 56-136s82.667-56 136-56z" />
<glyph unicode="&#xe91a;" glyph-name="Vector-7" horiz-adv-x="1451" d="M725.22 158.061c80.574 0 149.012 28.201 205.306 84.605s84.446 124.894 84.446 205.47c0 80.575-28.203 149.011-84.608 205.307s-124.892 84.444-205.468 84.444c-80.574 0-149.010-28.201-205.306-84.605s-84.445-124.894-84.445-205.47c0-80.575 28.202-149.011 84.605-205.307s124.895-84.444 205.471-84.444zM725.058 255.974c-53.333 0-98.667 18.667-136 56s-56 82.667-56 136c0 53.333 18.667 98.667 56 136s82.667 56 136 56c53.333 0 98.667-18.667 135.998-56 37.333-37.333 56.004-82.667 56.004-136s-18.671-98.667-56.004-136c-37.332-37.333-82.665-56-135.998-56zM725.058-49.801c-149.697 0-286.608 39.927-410.732 119.791-124.126 79.866-223.202 184.936-297.23 315.215-5.926 10.21-10.257 20.501-12.992 30.871s-4.103 21.016-4.103 31.933 1.368 21.548 4.103 31.895c2.735 10.348 7.066 20.627 12.992 30.838 74.028 130.279 173.104 235.349 297.23 315.212 124.124 79.864 261.036 119.796 410.732 119.796 149.694 0 286.612-39.932 410.729-119.796 124.126-79.863 223.206-184.933 297.233-315.212 5.931-10.211 10.257-20.501 12.996-30.871 2.731-10.371 4.096-21.016 4.096-31.933s-1.365-21.548-4.096-31.895c-2.739-10.348-7.066-20.628-12.996-30.838-74.027-130.279-173.107-235.349-297.233-315.215-124.117-79.863-261.035-119.791-410.729-119.791zM725.058 56.866c133.925 0 256.89 35.26 368.89 105.774 112 70.519 197.632 165.63 256.887 285.333-59.255 119.704-144.887 214.816-256.887 285.333s-234.965 105.778-368.89 105.778c-133.926 0-256.889-35.26-368.889-105.778s-197.629-165.629-256.888-285.333c59.259-119.703 144.888-214.815 256.888-285.333 112-70.514 234.964-105.774 368.889-105.774z" />
<glyph unicode="&#xe91b;" glyph-name="Vector-6" d="M1024-64h-170.666v1024h170.666v-1024zM725.334 448l-725.334 512v-1024l725.334 512zM170.666 630.614l258.56-182.614-258.56-182.614v365.227z" />
<glyph unicode="&#xe91c;" glyph-name="Vector-5" horiz-adv-x="652" d="M531.316-64l120.32 120.32-390.826 391.68 390.826 391.68-120.32 120.32-512-512 512-512z" />
<glyph unicode="&#xe91d;" glyph-name="Vector-4" d="M413.696 506.368c2.56 16.896 8.192 31.744 15.36 44.544s17.408 23.552 30.208 31.744c12.288 7.68 27.648 11.264 46.592 11.776 11.776-0.512 22.528-2.56 32.256-6.656 10.24-4.608 19.456-10.752 26.624-18.432s12.8-16.896 17.408-27.136c4.608-10.24 6.656-21.504 7.168-32.768h91.648c-1.024 24.064-5.632 46.080-14.336 66.048s-20.48 37.376-35.84 51.712c-15.36 14.336-33.792 25.6-55.296 33.792s-45.056 11.776-71.168 11.776c-33.28 0-62.464-5.632-87.040-17.408s-45.056-27.136-61.44-47.104c-16.384-19.968-28.672-43.008-36.352-69.632s-12.288-54.272-12.288-83.968v-13.824c0-29.696 4.096-57.344 11.776-83.968s19.968-49.664 36.352-69.12c16.384-19.456 36.864-35.328 61.44-46.592s53.76-17.408 87.040-17.408c24.064 0 46.592 4.096 67.584 11.776s39.424 18.432 55.296 32.256c15.872 13.824 28.672 29.696 37.888 48.128s14.848 37.888 15.36 58.88h-91.648c-0.512-10.752-3.072-20.48-7.68-29.696s-10.752-16.896-18.432-23.552c-7.68-6.656-16.384-11.776-26.624-15.36-9.728-3.584-19.968-4.608-30.72-5.12-18.432 0.512-33.792 4.096-45.568 11.776-12.8 8.192-23.040 18.944-30.208 31.744s-12.8 28.16-15.36 45.056c-2.56 16.896-4.096 34.304-4.096 51.2v13.824c0 17.92 1.536 34.816 4.096 51.712zM512 960c-282.624 0-512-229.376-512-512s229.376-512 512-512c282.624 0 512 229.376 512 512s-229.376 512-512 512zM512 38.4c-225.792 0-409.6 183.808-409.6 409.6s183.808 409.6 409.6 409.6c225.792 0 409.6-183.808 409.6-409.6s-183.808-409.6-409.6-409.6z" />
<glyph unicode="&#xe91e;" glyph-name="Vector-31" horiz-adv-x="597" d="M110.293 917.333l-110.293-110.293 358.257-359.040-358.257-359.040 110.293-110.293 469.333 469.333-469.333 469.333z" />
<glyph unicode="&#xe91f;" glyph-name="Vector-2" d="M0 960h170.666v-1024h-170.666v1024zM298.666 448l725.334-512v1024l-725.334-512zM853.334 265.386l-258.56 182.614 258.56 182.614v-365.227z" />
<glyph unicode="&#xe920;" glyph-name="Vector-1" horiz-adv-x="1463" d="M171.886 936.857l559.543-558.324 559.543 558.324 171.886-171.885-731.429-731.429-731.429 731.429 171.886 171.885z" />
<glyph unicode="&#xe921;" glyph-name="Vector" d="M487.619 254.476c-8.127 0-15.746 1.27-22.857 3.809s-13.714 6.857-19.81 12.952l-219.429 219.429c-12.19 12.191-18.031 26.413-17.524 42.667s6.35 30.476 17.524 42.666c12.191 12.191 26.667 18.54 43.429 19.048s31.239-5.334 43.429-17.524l114.286-114.286v435.81c0 17.27 5.842 31.746 17.524 43.429s26.159 17.524 43.429 17.524c17.27 0 31.745-5.841 43.429-17.524s17.524-26.159 17.524-43.429v-435.81l114.286 114.286c12.191 12.191 26.666 18.032 43.429 17.524s31.236-6.857 43.429-19.048c11.176-12.191 17.013-26.413 17.525-42.666 0.505-16.255-5.332-30.476-17.525-42.667l-219.429-219.429c-6.095-6.095-12.698-10.413-19.809-12.952s-14.73-3.809-22.857-3.809zM121.905-15.236c-33.524 0-62.222 11.937-86.096 35.803-23.873 23.874-35.809 52.575-35.809 86.096v121.907c0 17.27 5.841 31.746 17.524 43.429s26.159 17.524 43.429 17.524c17.27 0 31.746-5.841 43.428-17.524s17.524-26.159 17.524-43.429v-121.907h731.431v121.907c0 17.27 5.837 31.746 17.525 43.429 11.681 11.682 26.156 17.524 43.425 17.524s31.744-5.841 43.432-17.524c11.681-11.682 17.518-26.159 17.518-43.429v-121.907c0-33.521-11.937-62.223-35.803-86.096-23.874-23.867-52.575-35.803-86.096-35.803h-731.431z" />
<glyph unicode="&#xe922;" d="M642.982 471.81l-404.842 71.44v-527.877c0-24.102 19.54-43.661 43.66-43.661h698.558c24.102 0 43.661 19.539 43.661 43.661v194.477l-381.037 261.96z" />
<glyph unicode="&#xe923;" d="M642.963 924.25h-361.178c-24.1 0-43.66-19.54-43.66-43.66v-194.48l404.838-238.14 214.323-71.44 166.701 71.44v238.14l-381.024 238.14z" />
<glyph unicode="&#xe924;" d="M238.141 686.125h404.842v-238.14h-404.842v238.14z" />
<glyph unicode="&#xe925;" d="M527.88 733.75h-289.74v-595.337h289.74c24.080 0.077 43.58 19.578 43.66 43.654v508.043c-0.080 24.080-19.58 43.56-43.66 43.64z" />
<glyph unicode="&#xe926;" d="M504.065 710h-265.94v-595.363h265.94c24.080 0.083 43.58 19.584 43.66 43.661v508.042c-0.1 24.080-19.6 43.58-43.66 43.66z" />
<glyph unicode="&#xe927;" glyph-name="Icon-Stroke" d="M78.343 791.593c-20.506 25.138-19.016 62.234 4.417 85.667s60.529 24.923 85.667 4.417l4.833-4.417 338.75-338.75 338.749 338.75 4.835 4.417c25.139 20.506 62.234 19.016 85.666-4.417s24.926-60.529 4.412-85.667l-4.412-4.833-338.751-338.749 338.751-338.75c24.994-24.993 24.994-65.51 0-90.504-24.994-24.986-65.51-24.986-90.501 0l-338.749 338.754-338.75-338.754-4.833-4.412c-25.137-20.506-62.234-19.021-85.667 4.412s-24.923 60.535-4.417 85.666l4.417 4.838 338.75 338.75-338.75 338.749-4.417 4.833z" />
<glyph unicode="&#xe928;" d="M504.065 710h-265.94v-547.722h265.94c24.080 0.083 43.58 19.584 43.66 43.661v460.401c-0.1 24.080-19.6 43.58-43.66 43.66z" />
<glyph unicode="&#xe929;" d="M480.245 710h-242.12v-547.722h242.12c24.080 0.083 43.58 19.584 43.66 43.661v460.401c-0.1 24.080-19.58 43.58-43.66 43.66z" />
<glyph unicode="&#xe92a;" d="M43.66 710h436.6c24.1 0 43.66-19.54 43.66-43.66v-436.599c0-24.102-19.54-43.661-43.66-43.661h-436.6c-24.12 0-43.66 19.539-43.66 43.661v436.599c0 24.12 19.54 43.66 43.66 43.66z" />
<glyph unicode="&#xe92b;" d="M135.187 306.093l91.82 142.282-84.14 141.5h67.68l45.92-90.5c4.24-8.6 7.14-14.98 8.72-19.2h0.6c3.020 6.86 6.2 13.52 9.52 19.98l49.080 89.66h62.14l-86.28-140.66 88.46-143.082h-66.12l-53.040 99.322c-2.5 4.22-4.62 8.66-6.34 13.26h-0.78c-1.56-4.5-3.62-8.82-6.14-12.86l-54.6-99.741-66.5 0.038z" />
<glyph unicode="&#xe92c;" d="M980.326 924.25h-337.357v-238.14h381.018v194.48c0 24.12-19.539 43.66-43.661 43.66z" />
<glyph unicode="&#xe92d;" d="M642.982 448h381.018v-238.138h-381.018v238.138z" />
<glyph unicode="&#xe92e;" glyph-name="Icon-Stroke-10" horiz-adv-x="1097" d="M974.87 849.929c-5.076 0.189-12.039 0.357-22.784 0.357h-819.217c-10.752 0-17.712-0.167-22.786-0.357-0.189-5.074-0.357-12.034-0.357-22.786v-40.786c0.009-0.896 0.057-1.695 0.072-2.357 0.507-0.459 1.080-1.019 1.785-1.643 1.669-1.475 3.612-3.163 6.143-5.358l311.858-270.286 13.571-12.142c2.469-2.387 4.949-4.964 7.357-7.714l6.857-8.714 4.714-7.572c2.911-5.159 5.369-10.563 7.357-16.143l2.571-8.429 2.143-10.928c1.495-10.815 1.286-21.124 1.286-28.785v-297.786l134.072 53.643v244.143c-0.001 10.216-0.396 25.165 3.428 39.714l2.643 8.429c2.983 8.367 6.973 16.361 12.001 23.714l6.857 8.714c7.2 8.224 15.133 14.835 20.928 19.857l318.075 275.643c0.651 0.579 1.156 1.136 1.638 1.571 0.015 0.677 0.132 1.499 0.146 2.428v40.786c0 10.753-0.168 17.712-0.358 22.786zM1084.943 794.5c0-7.656 0.271-17.978-1.214-28.785l-2.143-10.929c-2.26-8.596-5.647-16.851-10.006-24.571l-4.71-7.572c-4.242-6.203-9.231-11.679-14.146-16.429l-13.641-12.142-311.856-270.286c-2.531-2.193-4.474-3.882-6.143-5.357-0.69-0.61-1.287-1.119-1.786-1.571-0.015-0.682 0.010-1.49 0-2.429-0.021-2.226-0.071-4.797-0.071-8.142v-254.931c0-3.869 0.511-14.292-1.714-25.856l-3.286-11.71c-3.315-8.887-8.179-17.093-14.357-24.218l-6.572-6.788c-6.172-5.603-13.238-9.779-19.357-12.785l-13.714-5.786-165.786-66.282c-7.982-3.196-17.389-7.088-25.714-9.574-6.351-1.894-16.121-4.301-27.714-3.928l-12.143 1.426c-17.888 3.723-33.914 13.458-45.357 27.502l-4.571 6.29c-9.523 14.365-11.701 29.191-12.5 37.998-0.782 8.645-0.714 18.842-0.714 27.429v329.356c-0.010 0.941-0.128 1.746-0.143 2.429-0.488 0.441-1.048 0.982-1.714 1.571l-6.143 5.357-311.857 270.286c-5.786 5.014-13.737 11.579-20.929 19.785l-6.857 8.786c-5.020 7.344-9.090 15.288-12.071 23.643l-2.571 8.5c-3.825 14.553-3.429 29.499-3.429 39.714v32.643c0 12.743-0.032 25.623 0.857 36.5 0.943 11.519 3.18 25.558 10.429 39.785l4 7.143c9.955 16.228 24.228 29.451 41.286 38.143l10.643 4.571c10.474 3.725 20.515 5.151 29.143 5.857 10.878 0.889 23.757 0.857 36.5 0.857h819.217c12.749 0 25.615 0.032 36.498-0.857 8.645-0.706 18.717-2.118 29.213-5.857l10.569-4.571 7.146-4c13.912-8.531 25.607-20.234 34.143-34.143l4.001-7.143 4.571-10.643c3.723-10.476 5.149-20.514 5.851-29.143 0.892-10.878 0.863-23.758 0.863-36.5v-32.643z" />
<glyph unicode="&#xe92f;" glyph-name="rightarrow" d="M428.844 732.914c-14.626 11.937-36.182 11.090-49.818-2.546s-14.483-35.193-2.546-49.818l2.546-2.818 229.682-229.68-229.682-229.683-2.546-2.816c-11.937-14.629-11.090-36.184 2.546-49.822 13.636-13.633 35.193-14.48 49.818-2.541l2.818 2.541 256 256c14.541 14.545 14.541 38.097 0 52.638l-256 256-2.818 2.546z" />
<glyph unicode="&#xe930;" glyph-name="Icon-Stroke-7" horiz-adv-x="1707" d="M1455.186 888.647c50.275 41.013 124.469 38.032 171.334-8.833s49.847-121.058 8.834-171.333l-8.834-9.667-682.667-682.667c-46.865-46.865-121.059-49.847-171.334-8.834l-9.667 8.834-682.666 682.667-8.833 9.667c-41.013 50.275-38.032 124.468 8.833 171.333s121.058 49.846 171.333 8.833l9.667-8.833 592.167-592.167 592.166 592.167 9.667 8.833z" />
<glyph unicode="&#xe931;" glyph-name="Icon-Stroke-6" d="M511.996 262.295c177.168 0 338.315-72.511 460.707-190.765l23.938-24.233 3-3.53c13.926-18.155 12.119-44.255-4.879-60.296-17.016-16.047-43.219-16.336-60.53-1.355l-3.355 3.18-20.998 21.293c-107.086 103.472-246.302 165.352-397.882 165.352-161.7 0-309.318-70.439-418.882-186.645-17.117-18.149-45.732-18.938-63.883-1.825-18.132 17.113-18.981 45.676-1.882 63.825 124.931 132.506 295.68 214.998 484.647 214.998zM692.7 643.765c0 99.801-80.902 180.706-180.703 180.706s-180.706-80.905-180.706-180.706c0-99.801 80.904-180.706 180.706-180.706s180.703 80.905 180.703 180.706zM783.053 643.765c0-149.702-121.356-271.059-271.056-271.059-149.702 0-271.059 121.357-271.059 271.059s121.357 271.059 271.059 271.059c149.7 0 271.056-121.357 271.056-271.059z" />
<glyph unicode="&#xe932;" glyph-name="Icon-Stroke-5" horiz-adv-x="964" d="M818.176 307.471c0 42.906-0.018 72.394-1.879 95.235-1.367 16.713-3.584 27.634-6.475 35.706l-3.114 7.235c-8.843 17.357-22.311 31.872-38.828 42l-7.234 4.059c-8.674 4.421-20.679 7.764-42.996 9.588-22.847 1.865-52.332 1.941-95.238 1.941h-321.235c-42.914 0-72.391-0.075-95.235-1.941-16.753-1.37-27.685-3.576-35.765-6.471l-7.235-3.117c-17.341-8.843-31.878-22.264-42-38.765l-4.059-7.294c-4.415-8.671-7.766-20.656-9.588-42.941-1.866-22.841-1.882-52.329-1.882-95.235v-70.295c0-42.912 0.016-72.391 1.882-95.238 1.824-22.311 5.168-34.322 9.588-42.996l4.059-7.234c10.126-16.517 24.647-29.979 42-38.828l7.235-3.060c8.081-2.891 19.006-5.156 35.765-6.53 22.844-1.861 52.321-1.879 95.235-1.879h321.235c42.906 0 72.391 0.018 95.238 1.879 22.311 1.825 34.322 5.168 42.996 9.589l7.234 4.060c16.523 10.126 29.979 24.648 38.828 42.002l3.114 7.234c2.897 8.078 5.102 19.016 6.475 35.762 1.861 22.847 1.879 52.326 1.879 95.238v70.295zM416.648 222.118v100.412c0.010 24.943 20.232 45.176 45.176 45.176 24.934-0.010 45.166-20.244 45.176-45.176v-100.412c0-24.943-20.235-45.164-45.176-45.176-24.951 0-45.176 20.227-45.176 45.176zM667.588 648.765c0 113.656-92.111 205.813-205.764 205.823-113.663 0-205.824-92.161-205.824-205.823v-55.353c13.94 0.128 28.974 0.176 45.176 0.176h321.235c16.197 0 31.244-0.049 45.176-0.176v55.353zM757.941 586.824c15.282-3.045 29.798-7.504 43.707-14.588l13.469-7.529c30.678-18.808 55.694-45.764 72.12-78l4.174-8.941c8.987-20.961 12.951-43.304 14.944-67.706 2.235-27.373 2.174-61.176 2.174-102.588v-70.295c0-41.424 0.060-75.21-2.174-102.587-1.994-24.401-5.957-46.743-14.944-67.704l-4.174-8.945c-16.426-32.238-41.442-59.187-72.12-77.999l-13.469-7.529c-23.534-11.993-48.742-16.896-76.649-19.179-27.371-2.235-61.175-2.174-102.587-2.174h-321.235c-41.423 0-75.211-0.060-102.588 2.174-24.409 1.994-46.739 6.011-67.706 15.005l-8.941 4.174c-32.228 16.426-59.193 41.394-78 72.059l-7.529 13.469c-11.992 23.534-16.897 48.742-19.177 76.649-2.237 27.377-2.176 61.163-2.176 102.587v70.295c0 41.412-0.060 75.215 2.176 102.588 2.281 27.896 7.187 53.116 19.177 76.647l7.529 13.47c18.808 30.662 45.773 55.638 78 72.059l8.941 4.177c11.156 4.782 22.727 8.012 34.765 10.412v61.941c0 163.563 132.614 296.176 296.177 296.176 163.551-0.011 296.117-132.62 296.117-296.176v-61.941z" />
<glyph unicode="&#xe933;" glyph-name="Icon-Stroke-4" d="M898.264 470.474c-0.005 176.184-111.514 326.328-267.792 383.737l-9.313-140.263c-0.248-3.765-0.512-11.406-2.528-19.632l-2.684-8.315c-2.619-6.332-6.246-12.178-10.736-17.316l-4.737-4.895c-4.387-4.038-9.388-7.165-13.84-9.526l-10.687-5-172.683-76.685-39.947-53.368c-3.297-4.397-7.226-9.628-11-13.895-3.070-3.471-7.268-7.776-12.947-11.579l-6.211-3.579c-8.771-4.377-18.391-6.638-28.105-6.632l-9.737 0.737c-9.852 1.551-17.541 5.511-22.842 8.684l-14.631 9.947-152.053 108.579c-16.154-43.947-24.945-91.449-24.947-141 0-225.716 182.973-408.726 408.684-408.737 225.721 0 408.737 183.016 408.737 408.737zM500.737 460.895c6.236-0.054 11.618-1.061 15.789-2.105 5.076-1.271 10.712-3.185 15.369-4.737l37.789-12.631 3.158-1.158 127.105-54.577c3.234-1.455 6.44-2.937 9.318-4.479 4.565-2.447 10.531-6.095 16.158-11.684l5.47-6.263 3.104-4.63c5.794-9.426 9.027-20.205 9.318-31.264l-0.108-5.524c-0.717-11.609-4.991-20.782-8.316-26.845-1.574-2.873-3.438-5.891-5.368-8.893l-5.734-8.736-55.21-82.788c-1.876-2.819-5.497-8.65-10.687-14.266l-5.681-5.476c-4.786-3.929-10.143-7.103-15.845-9.469l-5.842-2.107c-10.283-3.121-20.96-2.684-25.471-2.684h-89.633c-5.137 0-16.508-0.555-27.842 2.684l-4.842 1.682c-7.355 2.894-14.091 7.125-19.842 12.477l-5.421 5.686c-4.408 5.271-7.559 11.291-9.842 16.68l-4.631 12.999-32 96.057c-0.849 2.544-2.721 7.578-3.895 13.522l-0.895 6.214c-0.568 6.57-0.071 13.204 1.421 19.628l1.736 6.004c2.011 5.745 4.591 10.493 5.789 12.892l24.316 48.635c2.195 4.387 4.836 9.721 7.526 14.209 2.95 4.921 7.398 11.401 14.473 17.105l7.368 5.105c7.723 4.581 16.371 7.455 25.368 8.421l6.527 0.316zM488.21 332.633l30.421-91.211h83.998l50.844 76.315-110.684 47.476-32.79 10.946-21.79-43.525zM489.526 879.158c-146.952-0.006-275.771-77.58-347.79-194l159.526-113.895 38.053 50.684 3.263 4.263c1.441 1.792 3.186 3.86 5.158 5.789l4.79 4.211c1.671 1.332 3.41 2.58 5.211 3.737l6.789 3.737c2.066 1.004 3.793 1.797 4.842 2.263l171.26 76.105 10.159 152.579c-19.976 3.001-40.448 4.526-61.262 4.526zM979.106 470.474c0-270.368-219.211-489.579-489.579-489.579-270.36 0.011-489.526 219.217-489.526 489.579 0.003 78.651 18.616 152.939 51.579 218.789 0.748 1.74 1.62 3.449 2.632 5.105 81.287 157.721 245.659 265.625 435.316 265.632 37.922 0 74.816-4.471 110.263-12.632 1.843-0.287 3.622-0.739 5.368-1.263 214.55-51.965 373.938-245.113 373.949-475.632z" />
<glyph unicode="&#xe934;" glyph-name="Icon-Stroke-3" horiz-adv-x="967" d="M853.333 448c0 212.077-171.924 384-384 384s-384-171.923-384-384c0-212.076 171.923-384 384-384s384 171.924 384 384zM426.667 277.333v128h-128c-23.564 0-42.667 19.103-42.667 42.667s19.103 42.667 42.667 42.667h128v128c0 23.564 19.103 42.667 42.667 42.667s42.667-19.103 42.667-42.667v-128h128c23.563 0 42.667-19.103 42.667-42.667s-19.103-42.667-42.667-42.667h-128v-128c0-23.563-19.103-42.667-42.667-42.667s-42.667 19.103-42.667 42.667zM938.667 448c0-259.203-210.13-469.333-469.333-469.333-259.206 0-469.333 210.13-469.333 469.333 0 259.206 210.128 469.333 469.333 469.333 259.203 0 469.333-210.128 469.333-469.333z" />
<glyph unicode="&#xe935;" glyph-name="Icon-Stroke-2" d="M434.454 21.364v364.545h-364.636c-38.549 0-69.802 31.272-69.818 69.818 0 38.559 31.259 69.818 69.818 69.818h364.636v364.636c0 38.56 31.259 69.818 69.818 69.818 38.546-0.016 69.818-31.269 69.818-69.818v-364.636l371.732-0.364c35.198-3.583 62.632-33.311 62.632-69.454-0.019-36.132-27.443-65.876-62.632-69.455l-7.187-0.363h-364.545v-364.545c0-38.549-31.272-69.8-69.818-69.818-38.559 0-69.818 31.26-69.818 69.818z" />
<glyph unicode="&#xe936;" glyph-name="refresh" d="M21.333 106.667v256c0 23.563 19.102 42.668 42.667 42.668h256c23.564 0 42.667-19.104 42.667-42.668s-19.103-42.667-42.667-42.667h-175.944c21.84-26.311 54.988-63.095 105.222-113.334h0.055c133.299-133.296 349.422-133.296 482.724 0 47.252 47.275 77.693 104.841 91.443 165.444 5.211 22.98 28.075 37.38 51.052 32.168 22.983-5.214 37.382-28.078 32.171-51.056-16.139-71.122-50.694-138.917-103.555-195.721l-10.78-11.224c-161.417-161.417-420.010-166.434-587.5-15.11l-15.944 15.11c-34.071 34.071-60.948 62.663-82.278 86.5v-126.111c0-23.563-19.103-42.667-42.667-42.667s-42.667 19.103-42.667 42.667zM204.889 764.834c162.086 146.444 409.466 146.443 571.554 0l15.946-15.111 26.778-27.167c21.811-22.408 40.107-42.073 55.501-59.278v126.056c0 23.564 19.103 42.667 42.667 42.667s42.667-19.103 42.667-42.667v-256c0-23.565-19.103-42.667-42.667-42.667h-256c-23.563 0-42.667 19.102-42.667 42.667s19.103 42.667 42.667 42.667h175.946c-21.845 26.32-55.029 63.083-105.279 113.333v0.056c-129.138 129.106-335.964 133.111-469.945 12.056l-12.723-12.112c-41.37-41.369-69.868-90.607-85.555-142.888l-5.945-22.556c-5.214-22.978-28.076-37.379-51.056-32.167-22.98 5.214-37.381 28.076-32.167 51.056l3.445 14.167c18.588 70.642 55.583 137.473 110.889 192.778l15.944 15.111z" />
<glyph unicode="&#xe937;" glyph-name="Icon-Stroke1" horiz-adv-x="939" d="M14.343 791.593c-20.506 25.138-19.016 62.234 4.417 85.667s60.529 24.923 85.667 4.417l4.833-4.417 338.75-338.75 338.749 338.75 4.833 4.417c25.138 20.506 62.235 19.016 85.668-4.417s24.926-60.529 4.412-85.667l-4.412-4.833-338.751-338.749 338.751-338.75c24.994-24.993 24.994-65.51 0-90.504-24.994-24.986-65.507-24.986-90.501 0l-338.749 338.754-338.75-338.754-4.833-4.412c-25.138-20.506-62.234-19.021-85.667 4.412s-24.923 60.535-4.417 85.666l4.417 4.838 338.75 338.75-338.75 338.749-4.417 4.833z" />
<glyph unicode="&#xe938;" glyph-name="home" horiz-adv-x="970" d="M889.269 509.631c0 22.981-0.194 33.010-1.056 39.316l-1.105 5.421c-1.913 6.835-5.088 13.288-9.313 19-1.989 2.674-4.441 5.299-9.367 9.526l-24.581 19.632-335.052 260.579c-9.129 7.101-14.325 11.141-18.368 13.842l-3 1.894c-0.767 0.207-1.581 0.316-2.369 0.316l-2.369-0.316c1.062 0.288 0.621 0.524-3-1.894l-18.368-13.842-335.053-260.579c-18.144-14.113-25.921-20.45-30.368-25l-3.632-4.21c-3.154-4.27-5.693-8.95-7.579-13.895l-1.684-5.053c-1.81-6.466-2.158-14.075-2.158-44.736v-357.422c0-28.332 0.030-47.185 1.21-61.629 1.141-13.953 3.162-20.237 5.158-24.161l4.79-7.842c5.389-7.416 12.497-13.484 20.737-17.683l3.474-1.477c4.076-1.455 10.221-2.824 20.684-3.681 14.449-1.18 33.296-1.213 61.631-1.213h97.895v325.158c0 13.166-0.048 25.476 0.79 35.738 0.877 10.736 2.923 22.754 9 34.684l3.474 6.21c8.633 14.069 21.015 25.522 35.79 33.053l8.947 3.842c8.911 3.173 17.687 4.5 25.737 5.158 10.264 0.838 22.574 0.79 35.737 0.79h138.317c13.161 0 25.471 0.048 35.738-0.79 8.046-0.658 16.826-1.985 25.735-5.158l8.947-3.842 6.214-3.474c14.061-8.63 25.514-21.004 33.048-35.789l3.843-8.948c3.174-8.911 4.5-17.685 5.158-25.737 0.841-10.262 0.792-22.571 0.792-35.738v-325.158h97.894c28.332 0 47.179 0.032 61.629 1.213 13.959 1.143 20.243 3.164 24.161 5.158l7.842 4.786c7.411 5.389 13.484 12.498 17.683 20.739l1.477 3.476c1.461 4.074 2.824 10.224 3.681 20.685 1.18 14.444 1.213 33.296 1.213 61.629v357.422zM970.111 152.21c0-27.001 0.038-49.707-1.477-68.209-1.353-16.605-4.139-32.531-10.682-47.788l-3.002-6.527c-11.679-22.921-29.453-42.103-51.259-55.474l-9.582-5.368c-17.214-8.774-35.339-12.137-54.315-13.684-18.502-1.514-41.208-1.477-68.209-1.477h-98.789c-6.252 0-13.382-0.027-19.526 0.474-4.969 0.404-11.248 1.277-18.001 3.686l-6.845 2.948c-10.741 5.465-19.736 13.775-25.999 23.999l-2.474 4.473c-4.727 9.281-6.090 18.222-6.629 24.84-0.507 6.149-0.474 13.28-0.474 19.526v326.052c0 14.498-0.022 22.948-0.528 29.157-0.226 2.792-0.539 4.274-0.684 4.899-0.814 1.434-1.978 2.614-3.422 3.417-0.658 0.146-2.134 0.415-4.84 0.631-6.209 0.512-14.659 0.528-29.157 0.528h-138.317c-14.497 0-22.949-0.016-29.158-0.528-5.207-0.42-5.841-1.046-4.895-0.631-1.439-0.808-2.618-1.994-3.421-3.417 0.416 0.943-0.206 0.313-0.631-4.899-0.507-6.209-0.527-14.659-0.527-29.157v-326.052c0-6.246 0.029-13.377-0.474-19.526-0.406-4.969-1.279-11.248-3.684-18.001l-2.948-6.839c-5.463-10.73-13.787-19.688-24-25.95l-4.474-2.522c-9.281-4.727-18.227-6.095-24.842-6.634-6.147-0.501-13.276-0.474-19.527-0.474h-98.79c-27.001 0-49.706-0.038-68.21 1.477-16.602 1.353-32.531 4.139-47.79 10.682l-6.526 3.002c-22.923 11.679-42.1 29.453-55.474 51.259l-5.368 9.582c-8.769 17.214-12.133 35.339-13.684 54.315-1.512 18.502-1.474 41.208-1.474 68.209v357.422c0 26.085-0.346 46.862 5.158 66.526l3.947 12.052c4.507 11.828 10.66 23.003 18.211 33.21l4.737 6c11.593 13.599 26.57 24.888 44.579 38.895l346.21 269.316c11.52 8.773 24.233 17.337 38.737 21.263l11.632 2.316c11.772 1.566 23.778 0.808 35.316-2.316l7.105-2.316c16.242-6.247 30.183-17.824 42.789-27.632l349.739-272.105c11.598-9.189 21.612-17.71 29.895-27.421l4.786-6 7.055-10.526c6.564-10.817 11.625-22.507 15.053-34.737l1.789-7.421c3.622-17.511 3.368-36.27 3.368-59.105v-357.422z" />
<glyph unicode="&#xe939;" glyph-name="Frame-2610516" d="M893.555 929.441c18.464 19.016 48.858 19.461 67.878 1 19.014-18.464 19.462-48.854 0.998-67.875l-272.934-281.25h142.496l4.941-0.25c24.186-2.473 43.059-22.908 43.059-47.75-0.006-24.834-18.874-45.28-43.059-47.75l-4.941-0.25h-255.998c-26.503 0-47.989 21.5-48 48v256c0 26.509 21.49 48 48 48s48-21.491 48-48v-137.563l269.56 277.688zM496.058 128.006c0-26.509-21.5-47.994-48-48-26.509 0-48 21.485-48 48v140.186l-270.125-270.125c-18.746-18.746-49.131-18.746-67.875 0s-18.744 49.126 0 67.872l270.125 270.064h-140.125c-26.509 0-48 21.491-48 48s21.491 48 48 48h256c26.5-0.012 48-21.497 48-48v-255.997z" />
<glyph unicode="&#xe93a;" horiz-adv-x="915" d="M363.080 925.421c0.041-0.866 0.041-1.343 0.041-2.299v-160.366c0-9.165-0.004-18.090 0.617-25.648 0.675-8.301 2.277-18.096 7.299-27.951 6.961-13.665 18.073-24.776 31.737-31.737 9.854-5.022 19.652-6.623 27.953-7.301 7.556-0.619 16.482-0.617 25.646-0.617h160.369c0.952 0 1.427 0 2.294-0.041 17.931-0.854 33.694-16.624 34.541-34.557 0.039-0.865 0.039-1.146 0.039-1.71v-262.948c0-29.232 0-53.355-1.606-73.007-1.667-20.41-5.246-39.173-14.227-56.799-13.924-27.328-36.145-49.546-63.473-63.473-17.626-8.981-36.389-12.56-56.799-14.227-19.652-1.606-43.775-1.606-73.005-1.606h-235.398c-29.23 0-53.354 0-73.005 1.606-20.411 1.667-39.173 5.246-56.797 14.227-27.33 13.926-49.55 36.145-63.476 63.473-8.98 17.626-12.559 36.389-14.226 56.799-1.606 19.652-1.605 43.775-1.605 73.007v380.644c0 29.23-0.001 53.354 1.605 73.006 1.667 20.411 5.246 39.173 14.226 56.797 13.925 27.33 36.145 49.55 63.476 63.476 17.624 8.98 36.386 12.559 56.797 14.226 19.651 1.606 43.775 1.605 73.005 1.605h117.7c0.566 0 0.85 0 1.717-0.041 17.929-0.848 33.698-16.608 34.555-34.538z" />
<glyph unicode="&#xe93b;" horiz-adv-x="915" d="M598.009 744.773c-4.366-2.678-9.695-2.678-20.358-2.678l-112.858 0.002c-10.166 0-15.251 0-19.136 1.979-3.416 1.741-6.194 4.518-7.935 7.935-1.978 3.884-1.978 8.968-1.978 19.136v112.855c0 10.662 0 15.993 2.675 20.36 3.784 6.167 12.691 9.854 19.726 8.164 4.978-1.197 8.453-4.674 15.399-11.627l121.002-121.003c6.954-6.946 10.43-10.419 11.628-15.4 1.689-7.034-1.998-15.942-8.166-19.722z" />
<glyph unicode="&#xe93c;" horiz-adv-x="915" d="M915.064 211.957c0-144.393-117.054-261.447-261.447-261.447s-261.447 117.054-261.447 261.447c0 144.393 117.054 261.447 261.447 261.447s261.447-117.054 261.447-261.447z" />
<glyph unicode="&#xe93d;" horiz-adv-x="915" d="M644.634 335.34c4.963 4.965 13.009 4.965 17.972 0l50.838-50.836c4.963-4.963 4.963-13.009 0-17.972s-13.011-4.963-17.974 0l-29.14 29.14v-121.828c0-7.020-5.691-12.711-12.708-12.711-7.020 0-12.711 5.691-12.711 12.711v121.828l-29.14-29.14c-4.963-4.963-13.009-4.963-17.974 0-4.963 4.963-4.963 13.009 0 17.972l50.838 50.836z" />
<glyph unicode="&#xe93e;" horiz-adv-x="915" d="M539.23 224.681c7.020 0 12.711-5.691 12.711-12.708v-53.379c0-10.887 0.009-18.288 0.477-24.010 0.455-5.571 1.279-8.421 2.292-10.408 2.438-4.782 6.327-8.671 11.109-11.107 1.987-1.013 4.837-1.839 10.408-2.294 5.721-0.466 13.122-0.477 24.007-0.477h106.757c10.887 0 18.288 0.011 24.010 0.477 5.571 0.455 8.421 1.281 10.408 2.294 4.782 2.436 8.671 6.325 11.107 11.107 1.013 1.987 1.839 4.837 2.294 10.408 0.466 5.721 0.477 13.122 0.477 24.010v53.379c0 7.018 5.691 12.708 12.708 12.708 7.020 0 12.711-5.691 12.711-12.708v-53.904c0-10.231 0-18.674-0.562-25.552-0.584-7.144-1.837-13.711-4.981-19.881-4.874-9.565-12.65-17.34-22.214-22.214-6.17-3.144-12.737-4.397-19.881-4.981-6.878-0.562-15.321-0.562-25.552-0.562h-107.805c-10.231 0-18.676 0-25.554 0.562-7.144 0.584-13.711 1.837-19.879 4.981-9.565 4.874-17.343 12.65-22.216 22.214-3.142 6.17-4.394 12.737-4.978 19.881-0.562 6.878-0.562 15.321-0.562 25.552v53.904c0 7.018 5.691 12.708 12.708 12.708z" />
<glyph unicode="&#xe93f;" glyph-name="filter-lines" d="M640 240l4.934-0.25c24.192-2.47 43.066-22.906 43.066-47.75s-18.874-45.28-43.066-47.75l-4.934-0.25h-256c-26.509 0-48 21.491-48 48s21.491 48 48 48h256zM768 496l4.934-0.25c24.192-2.472 43.066-22.907 43.066-47.75s-18.874-45.278-43.066-47.75l-4.934-0.25h-512c-26.509 0-48 21.491-48 48s21.491 48 48 48h512zM896 752l4.934-0.25c24.192-2.472 43.066-22.907 43.066-47.75s-18.874-45.278-43.066-47.75l-4.934-0.25h-768c-26.509 0-48 21.491-48 48s21.491 48 48 48h768z" />
<glyph unicode="&#xe940;" glyph-name="filter-funnel-01" d="M890.323 783.688c-4.442 0.165-10.534 0.312-19.936 0.312h-716.815c-9.407 0-15.498-0.147-19.937-0.312-0.166-4.44-0.312-10.53-0.312-19.938v-35.688c0.008-0.784 0.050-1.484 0.062-2.062 0.444-0.402 0.945-0.892 1.563-1.437 1.46-1.291 3.16-2.768 5.375-4.688l272.875-236.5 11.875-10.625c2.161-2.088 4.33-4.344 6.438-6.75l6-7.625v-0.063l4.125-6.563c2.536-4.495 4.7-9.198 6.438-14.062l2.25-7.438 1.875-9.562c1.308-9.463 1.125-18.483 1.125-25.187v-260.563l117.313 46.938v213.625c-0.001 8.938-0.332 21.974 3 34.687v0.062l2.312 7.438c2.604 7.281 6.126 14.215 10.5 20.625l0.062 0.063 5.938 7.625c6.297 7.192 13.236 12.976 18.312 17.375l278.315 241.188c0.57 0.506 1.011 0.994 1.434 1.375 0.013 0.593 0.122 1.312 0.128 2.125v35.688c0 9.409-0.147 15.498-0.314 19.938zM986.637 735.187c0-8.942 0.403-22.026-2.938-34.75v-0.062c-1.978-7.496-4.947-14.692-8.749-21.437l-4.128-6.625c-3.712-5.427-8.077-10.22-12.378-14.375l-11.936-10.625-272.87-236.5c-2.214-1.918-3.917-3.397-5.376-4.687-0.608-0.533-1.126-0.979-1.562-1.375-0.019-0.597 0.006-1.304 0-2.125-0.019-1.948-0.064-4.198-0.064-7.124v-223.065c0-4.518 0.768-19.213-4.314-32.87l-0.064-0.064c-2.899-7.757-7.162-14.899-12.563-21.126l-5.747-5.939c-5.401-4.902-11.585-8.557-16.938-11.187l-12-5.062-145.063-58.061c-6.979-2.79-15.221-6.138-22.5-8.314-7.414-2.208-20.168-5.261-34.938-2.189v0.064c-15.636 3.264-29.615 11.763-39.625 24.064l-4 5.44c-8.342 12.576-10.239 25.549-10.938 33.248-0.684 7.565-0.625 16.486-0.625 24v288.186c-0.008 0.823-0.112 1.528-0.125 2.125-0.427 0.386-0.916 0.86-1.5 1.375l-5.375 4.687-272.875 236.5c-5.063 4.388-12.020 10.132-18.312 17.312l-6 7.688c-4.393 6.426-7.953 13.376-10.562 20.687l-2.25 7.437c-3.347 12.734-3 25.812-3 34.75v28.563c0 11.15-0.028 22.42 0.75 31.938 0.825 10.078 2.782 22.364 9.125 34.812l3.5 6.25c8.711 14.2 21.2 25.77 36.125 33.375l9.312 4c9.165 3.26 17.951 4.508 25.5 5.125 9.518 0.778 20.787 0.75 31.937 0.75h716.815c11.155 0 22.413 0.028 31.936-0.75 7.565-0.618 16.378-1.853 25.562-5.125l9.248-4 6.253-3.5c12.179-7.468 22.406-17.709 29.875-29.875l3.501-6.25 4-9.313c3.258-9.166 4.506-17.949 5.126-25.5 0.774-9.519 0.749-20.788 0.749-31.938v-28.563z" />
<glyph unicode="&#xe941;" glyph-name="expand-01-1" d="M371.437 396.625c18.747 18.724 49.137 18.738 67.875 0s18.724-49.128 0-67.875l-216.75-216.75h140.125l4.938-0.25c24.19-2.47 43.062-22.906 43.062-47.75s-18.872-45.28-43.062-47.75l-4.938-0.25h-256c-26.509 0-48 21.491-48 48v256c0 26.509 21.49 48 48 48s48-21.491 48-48v-140.128l216.75 216.753zM922.688 576c0-26.509-21.491-48-48-48s-48 21.491-48 48v140.125l-216.751-216.75c-18.747-18.724-49.137-18.738-67.875 0s-18.724 49.128 0 67.875l216.747 216.75h-140.122c-26.509 0-48 21.491-48 48s21.491 48 48 48l260.935-0.25c24.192-2.472 43.066-22.907 43.066-47.75v-256z" />
<glyph unicode="&#xe942;" glyph-name="dotpoints-01" d="M896 256l6.56-0.314c32.269-3.283 57.44-30.554 57.44-63.686-0.013-33.12-25.184-60.339-57.44-63.622l-6.56-0.378h-512c-35.34 0-63.988 28.666-64 64 0 35.347 28.654 64 64 64h512zM170.687 213.376c-11.781 0-21.375-9.594-21.375-21.376l0.437-4.25c1.978-9.734 10.618-17.062 20.938-17.062 10.309 0.006 18.897 7.334 20.875 17.062l0.438 4.25-0.438 4.314c-1.705 8.346-8.276 14.931-16.625 16.621l-4.25 0.442zM896 512l6.56-0.312c32.269-3.286 57.44-30.557 57.44-63.688-0.013-33.121-25.184-60.339-57.44-63.625l-6.56-0.375h-512c-35.34 0-63.988 28.664-64 64 0 35.346 28.654 64 64 64h512zM170.687 469.375c-11.781 0-21.375-9.592-21.375-21.375l0.437-4.25c1.978-9.736 10.618-17.062 20.938-17.062 10.309 0.010 18.897 7.334 20.875 17.062l0.438 4.25-0.438 4.312c-1.705 8.346-8.276 14.929-16.625 16.625l-4.25 0.437zM896 768l6.56-0.312c32.269-3.286 57.44-30.557 57.44-63.688-0.013-33.121-25.184-60.339-57.44-63.625l-6.56-0.375h-512c-35.34 0-63.988 28.663-64 64 0 35.346 28.654 64 64 64h512zM170.687 725.375c-11.782 0-21.375-9.592-21.375-21.375l0.437-4.25c1.978-9.736 10.618-17.062 20.938-17.062 10.31 0.010 18.897 7.334 20.875 17.062l0.438 4.25-0.438 4.312c-1.705 8.346-8.275 14.929-16.625 16.625l-4.25 0.437zM277.313 192c-0.012-58.893-47.732-106.611-106.625-106.624-55.231 0-100.667 41.958-106.125 95.75l-0.563 10.874 0.563 10.938c5.468 53.786 50.901 95.75 106.125 95.75l10.875-0.563c53.791-5.459 95.75-50.893 95.75-106.125zM277.313 448c-0.012-58.895-47.732-106.614-106.625-106.625-55.231 0-100.667 41.958-106.125 95.75l-0.563 10.875 0.563 10.938c5.468 53.783 50.901 95.75 106.125 95.75l10.875-0.563c53.791-5.458 95.75-50.892 95.75-106.125zM277.313 704c-0.012-58.893-47.731-106.614-106.625-106.625-55.231 0-100.666 41.959-106.125 95.75l-0.563 10.875 0.563 10.938c5.468 53.782 50.9 95.75 106.125 95.75l10.875-0.563c53.792-5.458 95.75-50.893 95.75-106.125z" />
<glyph unicode="&#xe943;" glyph-name="circle" horiz-adv-x="768" d="M657.050 593.050c0 160.23-129.869 290.141-290.1 290.15-160.236 0-290.15-129.914-290.15-290.15 0.009-160.231 129.919-290.1 290.15-290.1 160.226 0.010 290.089 129.874 290.1 290.1zM733.85 593.050c-0.010-202.64-164.26-366.889-366.9-366.9-202.646 0-366.941 164.255-366.95 366.9 0 202.652 164.298 366.95 366.95 366.95 202.645-0.009 366.9-164.304 366.9-366.95zM657.050 311.45c0 160.231-129.869 290.141-290.1 290.15-160.237 0-290.15-129.913-290.15-290.15 0.009-160.23 129.919-290.099 290.15-290.099 160.226 0.010 290.089 129.874 290.1 290.099zM733.85 311.45c-0.010-202.639-164.26-366.889-366.9-366.899-202.647 0-366.941 164.255-366.95 366.899 0 202.652 164.298 366.95 366.95 366.95 202.645-0.009 366.9-164.303 366.9-366.95z" />
<glyph unicode="&#xe944;" glyph-name="chevron-left" d="M804.192 518.496c19.994 19.995 19.994 52.38 0 72.375s-52.378 19.995-72.378 0l-219.811-219.812-219.812 219.812-3.875 3.5c-20.11 16.413-49.75 15.249-68.5-3.5s-19.914-48.39-3.5-68.5l3.5-3.875 256-256c19.995-19.994 52.38-19.994 72.375 0l256.001 256z" />
<glyph unicode="&#xe945;" glyph-name="arrow-narrow-down" d="M442.742 789.375c0 26.51 21.49 48 48 48s48-21.49 48-48v-566.815l174.065 174.065c18.746 18.745 49.126 18.745 67.872 0 18.733-18.746 18.739-49.133 0-67.875l-255.999-256.001c-17.581-17.568-45.4-18.643-64.25-3.251l-3.625 3.251-256 256.001-3.312 3.688c-15.356 18.849-14.244 46.62 3.312 64.188 17.578 17.578 45.397 18.701 64.25 3.312l3.625-3.312 174.063-174.065v566.815z" />
<glyph unicode="&#xe946;" glyph-name="plus" d="M466.853 166.767v235.88h-235.941c-24.944 0-45.166 20.235-45.176 45.176 0 24.95 20.226 45.176 45.176 45.176h235.941v235.941c0 24.951 20.226 45.176 45.176 45.176 24.941-0.010 45.176-20.232 45.176-45.176v-235.941l240.532-0.236c22.775-2.318 40.526-21.553 40.526-44.941-0.012-23.38-17.757-42.626-40.526-44.941l-4.65-0.236h-235.882v-235.88c0-24.949-20.235-45.17-45.176-45.176-24.951 0-45.176 20.221-45.176 45.176z" />
<glyph unicode="&#xe947;" glyph-name="leftarrow" d="M595.158 732.914c14.625 11.937 36.18 11.090 49.818-2.546 13.633-13.636 14.48-35.193 2.546-49.818l-2.546-2.818-229.683-229.68 229.683-229.683 2.546-2.816c11.934-14.629 11.087-36.184-2.546-49.822-13.638-13.633-35.193-14.48-49.818-2.541l-2.821 2.541-256 256c-14.542 14.545-14.542 38.097 0 52.638l256 256 2.821 2.546z" />
<glyph unicode="&#xe948;" glyph-name="expand-01" d="M371.406 396.625c18.747 18.724 49.137 18.738 67.875 0s18.724-49.128 0-67.875l-216.75-216.75h140.125c26.51 0 48-21.491 48-48s-21.49-48-48-48h-256c-26.509 0-48 21.491-48 48v256c0 26.509 21.49 48 48 48s48-21.491 48-48v-140.128l216.75 216.753zM922.656 576c0-26.509-21.491-48-48-48s-48 21.491-48 48v140.125l-216.749-216.75c-18.747-18.724-49.137-18.738-67.875 0s-18.724 49.128 0 67.875l216.753 216.75h-140.128c-26.509 0-48 21.491-48 48s21.491 48 48 48l260.941-0.25c24.186-2.472 43.059-22.907 43.059-47.75v-256z" />
<glyph unicode="&#xe949;" glyph-name="edit" d="M170.667-64c-23.467 0-43.556 8.357-60.267 25.065-16.711 16.714-25.066 36.801-25.066 60.268s8.355 43.554 25.066 60.268c16.711 16.708 36.8 25.065 60.267 25.065h682.667c23.467 0 43.554-8.357 60.268-25.065 16.708-16.714 25.065-36.801 25.065-60.268s-8.357-43.554-25.065-60.268c-16.714-16.708-36.801-25.065-60.268-25.065h-682.667zM256 277.333h59.733l332.8 331.733-60.803 60.8-331.73-332.8v-59.733zM170.667 234.667v120.53c0 5.689 1.067 11.201 3.2 16.538 2.133 5.33 5.333 10.132 9.6 14.399l465.067 464c7.822 7.822 16.89 13.867 27.199 18.133 10.314 4.267 21.157 6.4 32.535 6.4s22.397-2.133 33.064-6.4c10.667-4.267 20.27-10.667 28.803-19.2l58.664-59.733c8.533-7.822 14.757-17.067 18.671-27.733 3.908-10.667 5.865-21.689 5.865-33.067 0-10.667-1.957-21.156-5.865-31.467-3.914-10.311-10.138-19.733-18.671-28.266l-463.997-464c-4.267-4.267-9.067-7.47-14.4-9.603s-10.844-3.197-16.533-3.197h-120.533c-12.089 0-22.223 4.090-30.4 12.265-8.178 8.181-12.266 18.313-12.266 30.401zM648.533 609.067v0z" />
<glyph unicode="&#xe94a;" glyph-name="delete" d="M298.675 64c-23.467 0-43.556 8.356-60.267 25.068s-25.066 36.797-25.066 60.268v554.665c-12.089 0-22.222 4.089-30.4 12.266s-12.266 18.311-12.266 30.4c0 12.089 4.089 22.222 12.266 30.4s18.311 12.267 30.4 12.267h170.666c0 12.089 4.089 22.222 12.267 30.4s18.311 12.266 30.4 12.266h170.665c12.088 0 22.226-4.089 30.403-12.266s12.268-18.311 12.268-30.4h170.665c12.088 0 22.221-4.089 30.397-12.267 8.182-8.178 12.268-18.311 12.268-30.4s-4.086-22.222-12.268-30.4c-8.177-8.178-18.309-12.266-30.397-12.266v-554.665c0-23.47-8.356-43.556-25.068-60.268s-36.797-25.068-60.268-25.068h-426.665zM725.34 704h-426.665v-554.665h426.665v554.665zM426.675 234.665c12.089 0 22.222 4.091 30.4 12.268s12.266 18.314 12.266 30.403v298.665c0 12.089-4.089 22.222-12.266 30.4s-18.311 12.266-30.4 12.266c-12.089 0-22.222-4.089-30.4-12.266s-12.267-18.311-12.267-30.4v-298.665c0-12.088 4.089-22.226 12.267-30.403s18.311-12.268 30.4-12.268zM597.34 234.665c12.088 0 22.226 4.091 30.403 12.268s12.268 18.314 12.268 30.403v298.665c0 12.089-4.091 22.222-12.268 30.4s-18.314 12.266-30.403 12.266c-12.088 0-22.221-4.089-30.397-12.266s-12.268-18.311-12.268-30.4v-298.665c0-12.088 4.091-22.226 12.268-30.403s18.309-12.268 30.397-12.268z" />
<glyph unicode="&#xe94b;" glyph-name="Vector-Stroke-15" d="M900.301 448.017c-0.010 214.426-173.875 388.25-388.301 388.25-214.42-0.009-388.241-173.829-388.25-388.25 0-214.428 173.824-388.293 388.25-388.298 214.431 0 388.301 173.865 388.301 388.298zM682.701 486.417l3.901-0.2c19.359-1.961 34.488-18.321 34.499-38.2 0-19.883-15.135-36.236-34.499-38.202l-3.901-0.2h-341.351c-21.208 0-38.4 17.193-38.4 38.402 0.009 21.2 17.198 38.4 38.4 38.4h341.351zM977.101 448.017c0-256.847-208.256-465.098-465.101-465.098-256.842 0.005-465.050 208.256-465.050 465.098 0.009 256.836 208.214 465.041 465.050 465.050 256.84 0 465.091-208.208 465.101-465.050z" />
<glyph unicode="&#xe94c;" glyph-name="alert-circle" d="M901.001 448.111c0 214.852-174.148 389-389.001 389s-389-174.148-389-389c0-214.849 174.148-388.998 389-388.998 214.847 0 389.001 174.148 389.001 388.998zM512.444 315.113l7.555-0.779c17.161-3.504 30.056-18.694 30.056-36.887-0.001-18.199-12.895-33.388-30.056-36.892l-7.555-0.779h-0.444c-20.79 0-37.667 16.879-37.667 37.672 0 20.787 16.877 37.666 37.667 37.666h0.444zM474.333 448.111v170.667c0 20.79 16.877 37.667 37.667 37.667s37.667-16.877 37.667-37.667v-170.667c0-20.79-16.877-37.667-37.667-37.667s-37.667 16.877-37.667 37.667zM976.333 448.111c0-256.43-207.906-464.336-464.333-464.336-256.432 0-464.333 207.906-464.333 464.336 0 256.432 207.902 464.333 464.333 464.333 256.427 0 464.333-207.902 464.333-464.333z" />
<glyph unicode="&#xe94d;" glyph-name="Vector-Stroke1" d="M900.301 448.017c-0.010 214.426-173.875 388.25-388.301 388.25-214.42-0.009-388.241-173.829-388.25-388.25 0-214.428 173.824-388.293 388.25-388.298 214.431 0 388.301 173.865 388.301 388.298zM473.6 277.32v132.296h-132.25c-21.208 0-38.4 17.193-38.4 38.402 0.009 21.2 17.198 38.4 38.4 38.4h132.25v132.25c0 21.202 17.2 38.391 38.4 38.4 21.207 0 38.4-17.192 38.4-38.4v-132.25h132.301l3.901-0.2c19.359-1.961 34.488-18.321 34.499-38.2 0-19.883-15.135-36.236-34.499-38.202l-3.901-0.2h-132.301v-132.296c-0.010-21.202-17.198-38.4-38.4-38.4-21.195 0.005-38.391 17.203-38.4 38.4zM977.101 448.017c0-256.847-208.256-465.098-465.101-465.098-256.842 0.005-465.050 208.256-465.050 465.098 0.009 256.836 208.214 465.041 465.050 465.050 256.84 0 465.091-208.208 465.101-465.050z" />
<glyph unicode="&#xe94e;" glyph-name="bothdirarr" horiz-adv-x="410" d="M147.229 177.78v588.798l-51.2-51.2c-10.43-10.43-23.467-15.645-39.111-15.645s-29.156 5.689-40.533 17.067c-10.43 10.43-15.644 23.704-15.644 39.822s5.215 29.393 15.644 39.823l147.911 147.911c5.689 5.689 11.852 9.719 18.489 12.089s13.748 3.556 21.333 3.556c7.585 0 14.696-1.185 21.333-3.556s12.8-6.4 18.489-12.089l147.911-147.911c10.43-10.43 15.645-23.467 15.645-39.111s-5.215-29.155-15.645-40.533c-11.378-11.378-24.889-17.067-40.533-17.067s-29.155 5.689-40.533 17.067l-49.778 49.778v-588.798l51.2 51.2c10.43 10.424 23.467 15.64 39.111 15.64s29.155-5.687 40.533-17.067c10.43-10.424 15.645-23.702 15.645-39.82s-5.215-29.396-15.645-39.82l-147.911-147.913c-5.689-5.687-11.852-9.721-18.489-12.090s-13.748-3.557-21.333-3.557c-7.585 0-14.696 1.188-21.333 3.557s-12.8 6.403-18.489 12.090l-147.911 147.913c-10.43 10.424-15.881 23.463-16.356 39.11s4.978 29.157 16.356 40.53c10.43 10.431 23.704 15.647 39.822 15.647s29.393-5.216 39.822-15.647l51.2-49.773z" />
<glyph unicode="&#xe94f;" glyph-name="Vector-9" horiz-adv-x="1084" d="M542.078 153.269l310.215-187.229-82.324 352.876 274.071 237.429-360.912 30.619-141.050 332.8-141.051-332.8-360.91-30.619 274.071-237.429-82.322-352.876 310.212 187.229z" />
<glyph unicode="&#xe950;" glyph-name="moon" d="M251.412 705.234c0.001 31.553 2.933 62.443 8.353 92.471-94.332-78.442-154.353-196.641-154.353-328.824 0.001-236.084 191.386-427.469 427.471-427.469 132.188 0 250.321 60.079 328.765 154.413-30.015-5.415-60.88-8.415-92.413-8.415-285.988 0-517.823 231.837-517.823 517.824zM341.765 705.234c0-236.086 191.382-427.471 427.47-427.471 62.795 0.006 122.35 13.469 175.941 37.707 17.125 7.734 37.237 4.102 50.531-9.18 13.294-13.288 16.98-33.455 9.234-50.586-81.209-179.561-261.987-304.646-472.059-304.646-285.985 0-517.822 231.834-517.824 517.822 0 210.074 125.082 390.851 304.647 472.059l6.53 2.353c15.518 4.317 32.42 0.050 44.059-11.588 13.281-13.29 16.913-33.407 9.176-50.529-24.237-53.594-37.702-113.142-37.705-175.941z" />
<glyph unicode="&#xe951;" glyph-name="sun2" horiz-adv-x="967" d="M440.889 21.333v85.333c0 23.563 19.103 42.667 42.667 42.667s42.667-19.103 42.667-42.667v-85.333c0-23.563-19.103-42.667-42.667-42.667s-42.667 19.103-42.667 42.667zM210.778 235.389c16.661 16.663 43.671 16.657 60.333 0 16.663-16.663 16.663-43.674 0-60.336l-60.333-60.331c-16.663-16.657-43.672-16.663-60.334 0-16.657 16.663-16.658 43.674 0 60.331l60.334 60.336zM696.001 235.389c15.622 15.622 40.351 16.623 57.111 2.947l3.22-2.947 60.336-60.336 2.941-3.22c13.67-16.754 12.675-41.489-2.941-57.111-15.622-15.622-40.357-16.612-57.111-2.947l-3.226 2.947-60.331 60.331-2.947 3.226c-13.676 16.759-12.681 41.483 2.947 57.111zM654.222 448c0 94.256-76.413 170.667-170.667 170.667-94.256 0-170.667-76.41-170.667-170.667 0-94.254 76.41-170.667 170.667-170.667 94.254 0 170.667 76.413 170.667 170.667zM142.222 490.667c23.564 0 42.667-19.103 42.667-42.667s-19.103-42.667-42.667-42.667h-85.333c-23.564 0-42.667 19.103-42.667 42.667s19.102 42.667 42.667 42.667h85.333zM910.222 490.667c23.563 0 42.667-19.103 42.667-42.667s-19.103-42.667-42.667-42.667h-85.333c-23.563 0-42.667 19.103-42.667 42.667s19.103 42.667 42.667 42.667h85.333zM150.444 781.111c15.619 15.619 40.353 16.609 57.111 2.945l3.222-2.945 60.333-60.334 2.945-3.278c13.655-16.758 12.672-41.439-2.945-57.055s-40.297-16.6-57.055-2.945l-3.278 2.945-60.334 60.333-2.945 3.222c-13.664 16.758-12.675 41.492 2.945 57.111zM756.332 781.111c16.663 16.655 43.674 16.66 60.336 0 16.657-16.66 16.651-43.67 0-60.334l-60.336-60.333c-16.663-16.663-43.668-16.663-60.331 0s-16.663 43.671 0 60.333l60.331 60.334zM440.889 789.333v85.333c0 23.564 19.103 42.667 42.667 42.667s42.667-19.103 42.667-42.667v-85.333c0-23.564-19.103-42.667-42.667-42.667s-42.667 19.103-42.667 42.667zM739.556 448c0-141.386-114.614-256-256-256s-256 114.614-256 256c0 141.385 114.615 256 256 256s256-114.615 256-256z" />
<glyph unicode="&#xe952;" glyph-name="Paper" horiz-adv-x="922" d="M524.948 960c13.169-0.013 23.301-10.758 23.301-23.55v-164.85c0-93.692 76.539-170.482 169.298-171 38.518 0 68.936-0.55 92.252-0.55 15.713 0 41.6 0.55 63.401 0.55 12.662-0.007 22.794-10.26 22.799-23.050v-411.652c0-126.971-101.888-229.893-227.599-229.898h-403.551c-131.791 0.010-239.249 108.037-239.25 241.152v551.948c0.006 126.971 102.428 230.9 228.65 230.9h270.698zM303.4 299.5c-20.778 0-37.99-16.865-38-37.847 0-20.992 17.216-38.4 38-38.4h275.749c20.787 0 38.052 17.408 38.052 38.4-0.010 20.982-17.275 37.847-38.052 37.847h-275.749zM303.4 555.5c-20.784 0-38-17.408-38-38.4 0.011-20.983 17.223-37.85 38-37.85h171.35c20.773 0.005 37.987 16.87 37.998 37.85 0 20.989-17.218 38.395-37.998 38.4h-171.35zM622.1 913.6c0 22.067 26.542 33.023 41.697 17.1 54.804-57.551 150.574-158.137 204.104-214.35 14.787-15.512 3.927-41.289-17.403-41.35-41.667-0.154-90.813 0.042-126.147 0.4-56.064 0.007-102.252 46.627-102.252 103.25v134.95z" />
<glyph unicode="&#xe953;" glyph-name="Close-Square" d="M290.304 960.050h443.904c173.568 0 289.792-121.856 289.792-303.104v-418.354c0-180.736-116.224-302.541-289.792-302.541h-443.904c-173.568 0-290.304 121.805-290.304 302.541v418.354c0 181.248 116.736 303.104 290.304 303.104zM666.112 294.451c17.408 17.357 17.408 45.517 0 62.925l-91.136 91.135 91.136 91.187c17.408 17.357 17.408 46.029 0 63.437-17.408 17.459-45.568 17.459-63.488 0l-90.624-91.085-91.136 91.085c-17.92 17.459-46.080 17.459-63.488 0-17.408-17.408-17.408-46.080 0-63.437l91.136-91.187-91.136-90.623c-17.408-17.92-17.408-46.080 0-63.437 8.704-8.704 20.48-13.363 31.744-13.363 11.776 0 23.040 4.659 31.744 13.363l91.136 90.573 91.136-90.573c8.704-9.267 19.968-13.363 31.232-13.363 11.776 0 23.040 4.659 31.744 13.363z" />
<glyph unicode="&#xe954;" glyph-name="timers" d="M192 800c0 25.461 10.114 49.879 28.118 67.882s42.421 28.118 67.882 28.118h448c25.459 0 49.877-10.114 67.883-28.118 18.001-18.004 28.117-42.421 28.117-67.882s-10.116-49.879-28.117-67.882c-18.005-18.004-42.423-28.118-67.883-28.118h-448c-25.461 0-49.879 10.114-67.882 28.118s-28.118 42.421-28.118 67.882zM832 96c0-25.459-10.116-49.877-28.117-67.883-18.005-18.001-42.423-28.117-67.883-28.117h-448c-22.618-0.043-44.522 7.919-61.832 22.481-17.31 14.558-28.908 34.773-32.741 57.067-3.833 22.289 0.347 45.218 11.8 64.725 11.453 19.503 29.439 34.325 50.772 41.839v81.472c-0.028 31.334 9.146 61.986 26.383 88.154 17.236 26.172 41.777 46.699 70.577 59.046l77.824 33.216-77.824 33.344c-28.78 12.339-53.307 32.849-70.543 58.991s-26.42 56.768-26.417 88.081v48c10.433-2.838 21.188-4.323 32-4.416h448c10.816 0.135 21.572 1.662 32 4.544v-48c0.055-31.345-9.114-62.013-26.359-88.186s-41.809-46.696-70.635-59.014l-77.79-33.344 77.79-33.344c28.804-12.309 53.355-32.811 70.601-58.961 17.246-26.146 26.423-56.789 26.394-88.111v-81.472c18.654-6.596 34.812-18.79 46.268-34.923 11.456-16.128 17.651-35.405 17.732-55.189zM320 267.584v-75.584h384v75.584c0.004 18.79-5.504 37.167-15.846 52.855s-25.058 27.998-42.33 35.401l-133.824 57.344-133.824-57.344c-17.27-7.403-31.988-19.712-42.329-35.401s-15.852-34.065-15.847-52.855z" />
<glyph unicode="&#xe955;" glyph-name="Time-Circle" d="M512-64c-282.624 0-512 228.864-512 512 0 282.624 229.376 512 512 512 283.136 0 512-229.376 512-512 0-283.136-228.864-512-512-512zM675.328 258.048c6.144-3.584 12.8-5.632 19.968-5.632 12.8 0 25.6 6.656 32.768 18.944 10.752 17.92 5.12 41.472-13.312 52.736l-182.272 108.544v236.544c0 21.504-17.408 38.4-38.4 38.4s-38.4-16.896-38.4-38.4v-258.56c0-13.312 7.168-25.6 18.944-32.768l200.704-119.808z" />
<glyph unicode="&#xe956;" glyph-name="start-vector" horiz-adv-x="1078" d="M497.374 945.527c14.331 4.949 29.932 4.945 44.263 0l7.055-2.895 5.578-3.053c12.283-7.629 19.553-18.519 23.681-25.263 5.082-8.301 10.375-19.088 15.683-29.842l107.11-217.105 257.364-37.737c5.632-0.923 10.957-1.916 15.689-3.053 7.685-1.849 20.27-5.405 31.313-14.737l4.581-4.368 4.948-5.789c9.135-12.114 13.91-26.955 13.63-42.105l-0.577-7.631c-2.285-17.24-11.97-29.662-17.845-36.527-3.169-3.702-6.925-7.625-10.946-11.684l-12.579-12.421-173.476-168.896 40.949-238.63 2.894-17.473c0.868-5.654 1.563-11.038 1.946-15.894 0.625-7.879 1.132-20.933-4.312-34.32l-2.684-5.734c-8.542-15.71-22.911-27.368-39.844-32.525l-7.421-1.789c-17.106-3.169-31.916 2.22-40.265 5.681-4.5 1.87-9.421 4.22-14.525 6.791l-15.737 8.16-214.368 112.737-214.316-112.737c-10.62-5.583-21.221-11.215-30.211-14.95-7.298-3.029-19.576-7.567-34-6.527l-6.316 0.846c-17.591 3.266-33.077 13.301-43.21 27.788l-4 6.527c-8.303 15.29-7.765 31.049-7.053 40.055 0.769 9.706 2.865 21.531 4.895 33.366l40.842 238.63-173.368 168.896c-8.596 8.372-17.25 16.708-23.579 24.105-5.142 6.011-13.222 16.285-16.684 30.316l-1.158 6.211c-2.677 20.271 3.935 40.679 18 55.526l4.632 4.368c11.031 9.315 23.578 12.888 31.263 14.737 9.46 2.275 21.343 3.95 33.21 5.684l239.79 35.105 107.211 217.105 7.895 15.842c2.616 5.075 5.196 9.847 7.737 14 4.717 7.706 13.556 20.824 29.263 28.316l7.052 2.895zM414.689 627.474c-1.649-3.341-4.64-9.998-9.316-16.631l-5.263-6.474c-4.481-4.822-9.609-8.989-15.264-12.315l-5.789-3.053c-5.175-2.406-10.592-3.901-15.316-4.895l-11.211-1.842-234.421-34.211 169.579-165.212 8-8.106c3.234-3.573 6.755-7.923 9.526-12.892l2.895-5.896c1.754-4.021 3.106-8.197 4.052-12.471l1.105-6.478 0.421-8.364c-0.039-2.722-0.214-5.33-0.474-7.739l-1.736-11.21-40.053-233.262 209.632 110.209 10.158 5.104c4.391 1.967 9.632 3.902 15.21 5.001l6.527 0.949c4.36 0.42 8.745 0.42 13.105 0l6.527-0.949 8.050-2.156c7.675-2.619 14.013-6.214 17.316-7.949l209.58-110.209-40.001 233.262c-0.841 4.904-3.158 16.001-1.789 27.314l1.105 6.478c1.417 6.403 3.783 12.595 7.001 18.367l4.581 6.947c4.867 6.5 10.224 11.447 12.892 14.050l169.526 165.212-234.367 34.211c-3.692 0.54-10.941 1.389-18.685 3.789l-7.788 2.948c-7.944 3.698-15.15 8.916-21.105 15.316-3.87 4.169-6.974 8.875-9.367 13.052l-5.212 10.105-104.843 212.316-104.79-212.316z" />
<glyph unicode="&#xe957;" glyph-name="home1" d="M893.399 515.388c0 21.931-0.225 31.247-0.998 36.95l-0.952 4.85c-1.3 4.647-3.246 9.084-5.75 13.2l-2.698 4c-1.766 2.385-3.937 4.695-8.55 8.65l-23.25 18.55-318.3 247.6c-8.699 6.765-13.553 10.498-17.3 13-1.362 0.91-2.191 1.382-2.601 1.6-0.707 0.127-1.439 0.133-2.148 0-0.419-0.226-1.229-0.718-2.55-1.6l-17.3-13-318.3-247.6c-17.314-13.467-24.573-19.338-28.6-23.45l-3.2-3.75c-2.872-3.882-5.187-8.152-6.9-12.65l-1.55-4.55c-1.603-5.724-1.95-12.534-1.95-41.8v-339.552c0-26.957 0.039-44.749 1.15-58.348 1.072-13.107 2.967-18.693 4.65-22.001l4.35-7.101c3.258-4.48 7.172-8.443 11.65-11.699l7.1-4.347 3-1.254c3.581-1.28 9.179-2.545 19-3.348 13.598-1.111 31.389-1.152 58.35-1.152h90.45v306.35c0 12.462-0.056 24.274 0.75 34.15 0.846 10.358 2.817 22.149 8.8 33.9l3.4 6.052c8.449 13.781 20.582 24.977 35.050 32.351l8.8 3.8c8.754 3.116 17.335 4.415 25.1 5.050 9.877 0.806 21.691 0.75 34.15 0.75h131.399c12.462 0 24.274 0.056 34.15-0.75 7.767-0.634 16.348-1.934 25.103-5.050l8.796-3.8 6.052-3.35c13.778-8.445 25.021-20.569 32.399-35.053l3.748-8.796c3.123-8.76 4.419-17.331 5.053-25.103 0.804-9.876 0.748-21.688 0.748-34.15v-306.35h90.45c26.962 0 44.754 0.041 58.353 1.152 13.092 1.070 18.698 2.918 22.001 4.603l7.096 4.347c6.717 4.884 12.196 11.331 16 18.801l1.3 3c1.285 3.584 2.55 9.185 3.354 19 1.111 13.599 1.147 31.391 1.147 58.348v339.552zM975.299 175.836c0-25.605 0.046-47.293-1.398-64.998-1.3-15.903-3.942-31.355-10.301-46.198l-3-6.354c-11.305-22.185-28.493-40.745-49.597-53.699l-9.303-5.202c-16.773-8.545-34.36-11.812-52.547-13.297-17.71-1.449-39.393-1.403-65.004-1.403h-93.85c-5.893 0-12.78-0.036-18.749 0.451-6.446 0.527-15.355 1.843-24.602 6.554-10.598 5.407-19.466 13.655-25.646 23.747l-2.504 4.403c-4.705 9.242-6.021 18.15-6.548 24.596-0.486 5.97-0.451 12.861-0.451 18.749v309.75c0 13.819-0.026 21.729-0.497 27.505-0.174 2.109-0.435 3.333-0.553 3.948-0.445 0.671-1.024 1.208-1.7 1.649-0.635 0.123-1.848 0.384-3.901 0.553-5.77 0.471-13.681 0.497-27.5 0.497h-131.399c-13.819 0-21.729-0.026-27.5-0.497-2.094-0.174-3.329-0.379-3.95-0.502-0.68-0.445-1.256-1.029-1.7-1.7-0.119-0.62-0.328-1.848-0.5-3.948-0.472-5.775-0.5-13.686-0.5-27.505v-309.75c0-5.888 0.037-12.78-0.45-18.749-0.395-4.833-1.218-11.049-3.6-17.746l-2.95-6.851c-6.175-12.124-16.070-21.924-28.2-28.104l0.050-0.046c-9.247-4.716-18.153-6.026-24.6-6.554-5.968-0.486-12.855-0.451-18.75-0.451h-93.85c-25.609 0-47.292-0.046-65 1.403-18.186 1.485-35.773 4.751-52.55 13.297-22.198 11.31-40.746 28.488-53.7 49.603l-5.2 9.298c-8.546 16.778-11.814 34.365-13.3 52.552-1.446 17.705-1.4 39.393-1.4 64.998v357.252c0.151 16.948 0.992 31.881 5 46.2 4.42 15.778 11.659 30.627 21.4 43.8l4.65 5.8c11.254 13.207 25.731 24.113 42.75 37.35l328.85 255.8c11.033 8.408 23.497 16.841 37.75 20.7l5.65 1.35c13.313 2.673 27.093 2.21 40.251-1.35l6.999-2.3c15.923-6.128 29.491-17.414 41.298-26.6l332.252-258.45c13.297-10.533 24.602-20.336 33.449-32.3l6.851-10.2c6.349-10.463 11.233-21.772 14.551-33.6l1.751-7.25c2.504-12.127 3.123-24.828 3.246-38.95v-357.252z" />
<glyph unicode="&#xe958;" glyph-name="userpng" horiz-adv-x="922" d="M795.305 25.6c0 59.924-0.333 86.671-4.352 105.4l-1.951 7.598c-13.338 43.976-46.418 79.017-89.149 94.95l-8.699 2.903c-19.369 5.873-44.529 6.298-113.004 6.298h-234.648c-68.478 0-93.68-0.374-113.050-6.252l0.050-0.046c-43.97-13.338-79.017-46.423-94.95-89.149l-2.9-8.704c-5.875-19.369-6.35-44.518-6.35-112.998 0-22.62-18.329-40.95-40.95-40.95s-40.95 18.33-40.95 40.95c0 62.52-0.442 102.871 9.85 136.801l4.55 13.496c24.82 66.591 79.376 118.164 147.9 138.952l13.050 3.4c31.304 6.81 69.047 6.451 123.75 6.451h234.648c62.525 0 102.876 0.44 136.801-9.851l13.501-4.552c66.586-24.817 118.159-79.38 138.952-147.896l3.4-13.051c6.81-31.309 6.446-69.033 6.446-123.75 0-22.615-18.335-40.94-40.95-40.95-22.62 0-40.996 18.33-40.996 40.95zM631.050 659.2c0 94.021-76.227 170.25-170.248 170.25-94.013-0.009-170.2-76.235-170.2-170.25s76.187-170.241 170.2-170.25c94.021 0 170.248 76.229 170.248 170.25zM713.001 659.2c0-139.264-112.932-252.15-252.198-252.15-139.256 0.010-252.15 112.891-252.15 252.15s112.893 252.141 252.15 252.15c139.267 0 252.198-112.886 252.198-252.15z" />
<glyph unicode="&#xe959;" glyph-name="watch" d="M930.909 448c0 231.357-187.555 418.909-418.909 418.909-231.357 0-418.909-187.552-418.909-418.909 0-231.354 187.552-418.909 418.909-418.909 231.354 0 418.909 187.555 418.909 418.909zM465.455 727.273c0 25.706 20.838 46.545 46.545 46.545s46.545-20.839 46.545-46.545v-250.498l160.456-80.23 4.133-2.36c19.931-12.632 27.462-38.54 16.682-60.095-10.775-21.555-36.031-31.092-58.089-22.723l-4.366 1.908-186.182 93.091c-15.765 7.885-25.726 24.003-25.726 41.635v279.273zM1024 448c0-282.768-229.232-512-512-512-282.77 0-512 229.232-512 512 0 282.77 229.23 512 512 512 282.768 0 512-229.23 512-512z" />
<glyph unicode="&#xe95a;" glyph-name="left" d="M522.125 914.179c-17.577 17.571-45.399 18.697-64.25 3.313l-3.625-3.313-439.938-439.938c-8.99-9-14.063-21.216-14.063-33.937 0.003-12.723 5.068-24.94 14.063-33.938l439.938-439.935c18.739-18.733 49.13-18.726 67.875 0 18.743 18.739 18.739 49.126 0 67.872l-358 358.001h764.003c26.502 0 47.987 21.496 48 48 0 26.509-21.491 48-48 48h-764.003l361.313 361.625c15.385 18.853 14.264 46.673-3.313 64.25z" />
<glyph unicode="&#xe95b;" glyph-name="right" d="M470 929.929c17.578 17.571 45.399 18.697 64.25 3.313l3.625-3.313 439.936-439.938c8.992-9 14.061-21.216 14.061-33.937 0-12.723-5.062-24.94-14.061-33.937l-439.936-439.935c-18.739-18.733-49.131-18.726-67.875 0-18.743 18.739-18.739 49.126 0 67.872l358 358h-764c-26.505 0-47.993 21.496-48 48 0 26.509 21.49 48 48 48h764l-361.313 361.625c-15.385 18.853-14.264 46.673 3.313 64.25z" />
</font>
</defs>
</svg>
