<svg width="22" height="22" viewBox="0 0 22 22" fill="none" xmlns="http://www.w3.org/2000/svg">
<path d="M7.7 2.75H4.21667C3.70329 2.75 3.44659 2.75 3.25051 2.84991C3.07803 2.9378 2.9378 3.07803 2.84991 3.25051C2.75 3.44659 2.75 3.70329 2.75 4.21667V7.7C2.75 8.21338 2.75 8.47007 2.84991 8.66616C2.9378 8.83864 3.07803 8.97887 3.25051 9.06676C3.44659 9.16667 3.70329 9.16667 4.21667 9.16667H7.7C8.21338 9.16667 8.47007 9.16667 8.66616 9.06676C8.83864 8.97887 8.97887 8.83864 9.06676 8.66616C9.16667 8.47007 9.16667 8.21338 9.16667 7.7V4.21667C9.16667 3.70329 9.16667 3.44659 9.06676 3.25051C8.97887 3.07803 8.83864 2.9378 8.66616 2.84991C8.47007 2.75 8.21338 2.75 7.7 2.75Z" stroke="white" stroke-width="1.5" stroke-linecap="round" stroke-linejoin="round"/>
<path d="M17.783 2.75H14.2997C13.7862 2.75 13.5296 2.75 13.3335 2.84991C13.161 2.9378 13.0208 3.07803 12.9329 3.25051C12.833 3.44659 12.833 3.70329 12.833 4.21667V7.7C12.833 8.21338 12.833 8.47007 12.9329 8.66616C13.0208 8.83864 13.161 8.97887 13.3335 9.06676C13.5296 9.16667 13.7862 9.16667 14.2997 9.16667H17.783C18.2964 9.16667 18.5531 9.16667 18.7492 9.06676C18.9217 8.97887 19.0618 8.83864 19.1498 8.66616C19.2497 8.47007 19.2497 8.21338 19.2497 7.7V4.21667C19.2497 3.70329 19.2497 3.44659 19.1498 3.25051C19.0618 3.07803 18.9217 2.9378 18.7492 2.84991C18.5531 2.75 18.2964 2.75 17.783 2.75Z" stroke="white" stroke-width="1.5" stroke-linecap="round" stroke-linejoin="round"/>
<path d="M17.783 12.8333H14.2997C13.7862 12.8333 13.5296 12.8333 13.3335 12.9332C13.161 13.0211 13.0208 13.1612 12.9329 13.3338C12.833 13.5298 12.833 13.7865 12.833 14.2999V17.7833C12.833 18.2967 12.833 18.5533 12.9329 18.7494C13.0208 18.9219 13.161 19.0621 13.3335 19.15C13.5296 19.2499 13.7862 19.2499 14.2997 19.2499H17.783C18.2964 19.2499 18.5531 19.2499 18.7492 19.15C18.9217 19.0621 19.0618 18.9219 19.1498 18.7494C19.2497 18.5533 19.2497 18.2967 19.2497 17.7833V14.2999C19.2497 13.7865 19.2497 13.5298 19.1498 13.3338C19.0618 13.1612 18.9217 13.0211 18.7492 12.9332C18.5531 12.8333 18.2964 12.8333 17.783 12.8333Z" stroke="white" stroke-width="1.5" stroke-linecap="round" stroke-linejoin="round"/>
<path d="M7.7 12.8333H4.21667C3.70329 12.8333 3.44659 12.8333 3.25051 12.9332C3.07803 13.0211 2.9378 13.1612 2.84991 13.3338C2.75 13.5298 2.75 13.7865 2.75 14.2999V17.7833C2.75 18.2967 2.75 18.5533 2.84991 18.7494C2.9378 18.9219 3.07803 19.0621 3.25051 19.15C3.44659 19.2499 3.70329 19.2499 4.21667 19.2499H7.7C8.21338 19.2499 8.47007 19.2499 8.66616 19.15C8.83864 19.0621 8.97887 18.9219 9.06676 18.7494C9.16667 18.5533 9.16667 18.2967 9.16667 17.7833V14.2999C9.16667 13.7865 9.16667 13.5298 9.06676 13.3338C8.97887 13.1612 8.83864 13.0211 8.66616 12.9332C8.47007 12.8333 8.21338 12.8333 7.7 12.8333Z" stroke="white" stroke-width="1.5" stroke-linecap="round" stroke-linejoin="round"/>
</svg>
