<svg width="22" height="22" viewBox="0 0 22 22" fill="none" xmlns="http://www.w3.org/2000/svg">
<path fill-rule="evenodd" clip-rule="evenodd" d="M4.18711 1.83325C5.36772 1.8334 6.55063 1.8334 7.72892 1.83325C7.96028 1.83323 8.18558 1.8332 8.3764 1.84879C8.58594 1.86591 8.83319 1.9063 9.082 2.03308C9.42695 2.20885 9.70745 2.48931 9.88318 2.83427C10.01 3.08308 10.0504 3.33034 10.0675 3.53989C10.0831 3.7307 10.083 3.95602 10.083 4.18737V7.72915C10.083 7.9605 10.0831 8.18582 10.0675 8.37664C10.0504 8.58618 10.01 8.83343 9.88318 9.08225C9.70745 9.4272 9.42695 9.7077 9.082 9.88342C8.83319 10.0102 8.58594 10.0506 8.3764 10.0678C8.18557 10.0833 7.96026 10.0833 7.72891 10.0833H4.18712C3.95577 10.0833 3.73046 10.0833 3.53964 10.0678C3.33009 10.0506 3.08284 10.0102 2.83403 9.88342C2.48907 9.7077 2.20861 9.4272 2.03283 9.08225C1.90606 8.83343 1.86567 8.58618 1.84855 8.37664C1.83296 8.18583 1.83298 7.96052 1.83301 7.72916C1.83301 7.71943 1.83302 7.70968 1.83302 7.69993V4.2166C1.83302 4.20683 1.83301 4.19709 1.83301 4.18736C1.83298 3.956 1.83296 3.73069 1.84855 3.53989C1.86567 3.33034 1.90606 3.08308 2.03283 2.83427C2.20861 2.48931 2.48907 2.20885 2.83403 2.03308C3.08284 1.9063 3.33009 1.86591 3.53964 1.84879C3.73045 1.8332 3.95575 1.83323 4.18711 1.83325Z" fill="white"/>
<path fill-rule="evenodd" clip-rule="evenodd" d="M4.18711 11.9167C5.36772 11.9169 6.55063 11.9169 7.72892 11.9167C7.96028 11.9167 8.18558 11.9167 8.3764 11.9323C8.58594 11.9494 8.83319 11.9898 9.082 12.1166C9.42695 12.2923 9.70745 12.5728 9.88318 12.9177C10.01 13.1665 10.0504 13.4138 10.0675 13.6234C10.0831 13.8142 10.083 14.0395 10.083 14.2708V17.8127C10.083 18.044 10.0831 18.2693 10.0675 18.4601C10.0504 18.6696 10.01 18.917 9.88318 19.1657C9.70745 19.5107 9.42695 19.7912 9.082 19.9669C8.83319 20.0937 8.58594 20.1341 8.3764 20.1513C8.18557 20.1668 7.96026 20.1667 7.72891 20.1667H4.18712C3.95577 20.1667 3.73046 20.1668 3.53964 20.1513C3.33009 20.1341 3.08284 20.0937 2.83403 19.9669C2.48907 19.7912 2.20861 19.5107 2.03283 19.1657C1.90606 18.917 1.86567 18.6696 1.84855 18.4601C1.83296 18.2693 1.83298 18.044 1.83301 17.8127C1.83301 17.8029 1.83302 17.7931 1.83302 17.7834V14.3001C1.83302 14.2904 1.83301 14.2806 1.83301 14.2708C1.83298 14.0395 1.83296 13.8142 1.84855 13.6234C1.86567 13.4138 1.90606 13.1665 2.03283 12.9177C2.20861 12.5728 2.48907 12.2923 2.83403 12.1166C3.08284 11.9898 3.33009 11.9494 3.53964 11.9323C3.73045 11.9167 3.95575 11.9167 4.18711 11.9167Z" fill="white"/>
<path fill-rule="evenodd" clip-rule="evenodd" d="M14.2711 1.83325C15.4517 1.8334 16.6346 1.8334 17.8129 1.83325C18.0443 1.83323 18.2696 1.8332 18.4603 1.84879C18.6699 1.86591 18.9172 1.9063 19.166 2.03308C19.5109 2.20885 19.7914 2.48931 19.9672 2.83427C20.0939 3.08308 20.1344 3.33034 20.1515 3.53989C20.1671 3.7307 20.167 3.95602 20.167 4.18737V7.72915C20.167 7.9605 20.1671 8.18582 20.1515 8.37664C20.1344 8.58618 20.0939 8.83343 19.9672 9.08225C19.7914 9.4272 19.5109 9.7077 19.166 9.88342C18.9172 10.0102 18.6699 10.0506 18.4603 10.0678C18.2696 10.0833 18.0443 10.0833 17.8129 10.0833H14.2711C14.0397 10.0833 13.8144 10.0833 13.6236 10.0678C13.4141 10.0506 13.1668 10.0102 12.918 9.88342C12.5731 9.7077 12.2926 9.4272 12.1168 9.08225C11.9901 8.83343 11.9496 8.58618 11.9326 8.37664C11.9169 8.18583 11.917 7.96052 11.917 7.72916C11.917 7.71943 11.917 7.70968 11.917 7.69993V4.2166C11.917 4.20683 11.917 4.19709 11.917 4.18736C11.917 3.956 11.9169 3.73069 11.9326 3.53989C11.9496 3.33034 11.9901 3.08308 12.1168 2.83427C12.2926 2.48931 12.5731 2.20885 12.918 2.03308C13.1668 1.9063 13.4141 1.86591 13.6236 1.84879C13.8144 1.8332 14.0397 1.83323 14.2711 1.83325Z" fill="white"/>
<path fill-rule="evenodd" clip-rule="evenodd" d="M14.2711 11.9167C15.4517 11.9169 16.6346 11.9169 17.8129 11.9167C18.0443 11.9167 18.2696 11.9167 18.4603 11.9323C18.6699 11.9494 18.9172 11.9898 19.166 12.1166C19.5109 12.2923 19.7914 12.5728 19.9672 12.9177C20.0939 13.1665 20.1344 13.4138 20.1515 13.6234C20.1671 13.8142 20.167 14.0395 20.167 14.2708V17.8127C20.167 18.044 20.1671 18.2693 20.1515 18.4601C20.1344 18.6696 20.0939 18.917 19.9672 19.1657C19.7914 19.5107 19.5109 19.7912 19.166 19.9669C18.9172 20.0937 18.6699 20.1341 18.4603 20.1513C18.2696 20.1668 18.0443 20.1667 17.8129 20.1667H14.2711C14.0397 20.1667 13.8144 20.1668 13.6236 20.1513C13.4141 20.1341 13.1668 20.0937 12.918 19.9669C12.5731 19.7912 12.2926 19.5107 12.1168 19.1657C11.9901 18.917 11.9496 18.6696 11.9326 18.4601C11.9169 18.2693 11.917 18.044 11.917 17.8127C11.917 17.8029 11.917 17.7931 11.917 17.7834V14.3001C11.917 14.2904 11.917 14.2806 11.917 14.2708C11.917 14.0395 11.9169 13.8142 11.9326 13.6234C11.9496 13.4138 11.9901 13.1665 12.1168 12.9177C12.2926 12.5728 12.5731 12.2923 12.918 12.1166C13.1668 11.9898 13.4141 11.9494 13.6236 11.9323C13.8144 11.9167 14.0397 11.9167 14.2711 11.9167Z" fill="white"/>
</svg>
