<svg width="22" height="22" viewBox="0 0 22 22" fill="none" xmlns="http://www.w3.org/2000/svg">
<path d="M11 13.75C12.5187 13.75 13.75 12.5188 13.75 11C13.75 9.48117 12.5187 8.25 11 8.25C9.48118 8.25 8.25 9.48117 8.25 11C8.25 12.5188 9.48118 13.75 11 13.75Z" stroke="white" stroke-width="1.83333" stroke-linecap="round" stroke-linejoin="round"/>
<path d="M8.51528 17.757L9.05102 18.962C9.21032 19.3206 9.47019 19.6254 9.79919 19.8392C10.1283 20.0531 10.5123 20.1669 10.9047 20.1668C11.2972 20.1669 11.6812 20.0531 12.0102 19.8392C12.3393 19.6254 12.5991 19.3206 12.7585 18.962L13.2942 17.757C13.4849 17.3295 13.8057 16.9731 14.2108 16.7385C14.6186 16.5033 15.0902 16.4031 15.5583 16.4523L16.8692 16.5918C17.2594 16.6331 17.6532 16.5603 18.0028 16.3822C18.3524 16.2042 18.6429 15.9284 18.839 15.5886C19.0353 15.2489 19.1288 14.8596 19.1082 14.4678C19.0876 14.076 18.9538 13.6986 18.7228 13.3815L17.9468 12.315C17.6704 11.9325 17.5227 11.4721 17.5251 11.0002C17.525 10.5295 17.6741 10.071 17.9508 9.69034L18.727 8.62396C18.9578 8.30677 19.0917 7.92939 19.1123 7.53761C19.133 7.14584 19.0394 6.75649 18.843 6.41683C18.6469 6.07696 18.3565 5.80128 18.0068 5.62321C17.6572 5.44514 17.2634 5.37232 16.8733 5.41359L15.5625 5.55313C15.0943 5.60229 14.6226 5.50211 14.215 5.26693C13.809 5.03106 13.488 4.67274 13.2983 4.24331L12.7585 3.0384C12.5991 2.67974 12.3393 2.37499 12.0102 2.16111C11.6812 1.94724 11.2972 1.83343 10.9047 1.8335C10.5123 1.83343 10.1283 1.94724 9.79919 2.16111C9.47019 2.37499 9.21032 2.67974 9.05102 3.0384L8.51528 4.24331C8.32546 4.67274 8.00458 5.03106 7.59861 5.26693C7.19089 5.50211 6.71922 5.60229 6.25111 5.55313L4.93621 5.41359C4.54601 5.37232 4.15222 5.44514 3.80257 5.62321C3.45294 5.80128 3.16246 6.07696 2.96639 6.41683C2.77006 6.75649 2.67652 7.14584 2.69714 7.53761C2.71774 7.92939 2.85161 8.30677 3.0825 8.62396L3.85861 9.69034C4.13539 10.071 4.28444 10.5295 4.28435 11.0002C4.28444 11.4708 4.13539 11.9294 3.85861 12.31L3.0825 13.3763C2.85161 13.6935 2.71774 14.0709 2.69714 14.4627C2.67652 14.8545 2.77006 15.2439 2.96639 15.5835C3.16267 15.9232 3.45317 16.1988 3.80276 16.3768C4.15235 16.5548 4.54604 16.6278 4.93621 16.5867L6.24704 16.4472C6.71515 16.398 7.18681 16.4982 7.59454 16.7334C8.00202 16.9686 8.3244 17.327 8.51528 17.757Z" stroke="white" stroke-width="1.83333" stroke-linecap="round" stroke-linejoin="round"/>
</svg>
