<svg width="22" height="22" viewBox="0 0 22 22" fill="none" xmlns="http://www.w3.org/2000/svg">
<path fill-rule="evenodd" clip-rule="evenodd" d="M8.93007 19.7578L8.33193 18.4324C8.11881 17.9594 7.75889 17.5651 7.30395 17.3064C6.84874 17.0477 6.32213 16.9375 5.7995 16.9915L4.33599 17.1451C3.90038 17.1902 3.46083 17.11 3.07053 16.9141C2.68022 16.7183 2.35588 16.4151 2.13674 16.0415C1.91755 15.6679 1.81312 15.2396 1.83613 14.8087C1.85914 14.3777 2.0086 13.9626 2.26638 13.6136L3.13289 12.4407C3.4419 12.0219 3.60832 11.5176 3.60821 10.9998C3.60832 10.4821 3.4419 9.97775 3.13289 9.55902L2.26638 8.38601C2.0086 8.03711 1.85914 7.62199 1.83613 7.19103C1.81312 6.76007 1.91755 6.33179 2.13674 5.95817C2.35566 5.58432 2.67996 5.28107 3.07032 5.08518C3.46069 4.8893 3.90035 4.8092 4.33599 4.8546L5.80405 5.0081C6.32668 5.06217 6.85329 4.95197 7.30849 4.69327C7.76174 4.43383 8.12 4.03967 8.33193 3.5673L8.93007 2.2419C9.10788 1.84737 9.39807 1.51214 9.76538 1.27688C10.1328 1.04162 10.5615 0.916433 10.9997 0.916504C11.4378 0.916433 11.8666 1.04162 12.234 1.27688C12.6013 1.51214 12.8915 1.84737 13.0693 2.2419L13.6719 3.5673C13.8839 4.03967 14.2421 4.43383 14.6954 4.69327C15.1506 4.95197 15.6772 5.06217 16.1998 5.0081L17.6634 4.8546C18.099 4.8092 18.5386 4.8893 18.929 5.08518C19.3193 5.28107 19.6437 5.58432 19.8626 5.95817C20.0818 6.33179 20.1862 6.76007 20.1632 7.19103C20.1402 7.62199 19.9907 8.03711 19.7329 8.38601L18.8664 9.55902C18.5574 9.97775 18.391 10.4821 18.3911 10.9998C18.3885 11.5189 18.5534 12.0254 18.8619 12.4462L19.7284 13.6193C19.9862 13.9682 20.1356 14.3833 20.1586 14.8143C20.1816 15.2452 20.0772 15.6735 19.8581 16.0471C19.6392 16.421 19.3148 16.7242 18.9244 16.9201C18.5341 17.116 18.0945 17.196 17.6588 17.1507L16.1953 16.9972C15.6727 16.9431 15.146 17.0533 14.6908 17.312C14.2385 17.57 13.8803 17.9621 13.6674 18.4324L13.0693 19.7578C12.8915 20.1523 12.6013 20.4875 12.234 20.7228C11.8666 20.958 11.4378 21.0833 10.9997 21.0832C10.5615 21.0833 10.1328 20.958 9.76538 20.7228C9.39807 20.4875 9.10788 20.1523 8.93007 19.7578ZM13.7497 10.9998C13.7497 12.5187 12.5185 13.7498 10.9997 13.7498C9.48085 13.7498 8.24967 12.5187 8.24967 10.9998C8.24967 9.48101 9.48085 8.24984 10.9997 8.24984C12.5185 8.24984 13.7497 9.48101 13.7497 10.9998Z" fill="white"/>
</svg>
