<svg width="22" height="22" viewBox="0 0 22 22" fill="none" xmlns="http://www.w3.org/2000/svg">
<path d="M8.20896 4.54592C8.65825 4.46182 9.10961 4.68636 9.30564 5.09181C9.4022 5.23765 9.42704 5.41627 9.43845 5.59084C9.55797 7.42229 9.68486 9.22617 9.80368 11.0293C9.80089 11.2256 9.83126 11.4212 9.8945 11.6074C10.0435 11.974 10.4147 12.2066 10.8164 12.1856L16.8935 11.8106H16.959C17.221 11.8148 17.4702 11.9217 17.6523 12.1065C17.8344 12.2912 17.935 12.539 17.9306 12.7959C17.6902 16.2994 15.1214 19.2272 11.6259 19.9815C8.13034 20.7356 4.54641 19.1351 2.83005 16.0537C2.32546 15.1663 2.00698 14.1887 1.89255 13.1787C1.84821 12.8796 1.82827 12.5776 1.83396 12.2754C1.84552 8.55001 4.49778 5.334 8.20896 4.54592ZM11.8369 1.834C16.0268 1.95943 19.5284 5.00116 20.1631 9.06642C20.167 9.09061 20.1671 9.11548 20.1631 9.13967C20.1766 9.33193 20.1116 9.52187 19.9824 9.66701C19.8532 9.81197 19.6705 9.90051 19.4746 9.9131L12.4345 10.377C12.2018 10.3976 11.971 10.321 11.7988 10.166C11.6267 10.011 11.5293 9.79176 11.5302 9.56252L11.0566 2.64845V2.5342C11.0652 2.33978 11.1525 2.15679 11.2988 2.02541C11.4451 1.89405 11.6387 1.82521 11.8369 1.834Z" fill="white"/>
</svg>
