<svg width="18" height="18" viewBox="0 0 18 18" fill="none" xmlns="http://www.w3.org/2000/svg">
<path fill-rule="evenodd" clip-rule="evenodd" d="M8.86898 1.52429C8.95613 1.51664 9.04388 1.51664 9.13103 1.52429C9.2313 1.53308 9.327 1.55448 9.4029 1.57147L14.993 2.81374C15.1433 2.84712 15.2927 2.88031 15.419 2.91827C15.56 2.96065 15.7205 3.02222 15.8768 3.13484C16.0976 3.29387 16.271 3.50997 16.3783 3.75998C16.4543 3.93699 16.4796 4.10698 16.4904 4.25381C16.5001 4.38536 16.5 4.53842 16.5 4.69239V5.57428C16.5 5.7635 16.5001 5.94786 16.4873 6.10393C16.4733 6.27537 16.4402 6.47768 16.3365 6.68124C16.1927 6.96348 15.9632 7.19296 15.681 7.33676C15.4775 7.44049 15.2751 7.47354 15.1037 7.48754C15.0704 7.49027 15.0357 7.49241 15 7.4941V12.0064C15.0357 12.0081 15.0704 12.0102 15.1037 12.013C15.2751 12.0269 15.4775 12.06 15.681 12.1637C15.9632 12.3075 16.1927 12.537 16.3365 12.8192C16.4402 13.0228 16.4733 13.2251 16.4873 13.3966C16.5001 13.5526 16.5 13.737 16.5 13.9262V14.5743C16.5 14.7635 16.5001 14.9479 16.4873 15.1039C16.4733 15.2753 16.4402 15.4777 16.3365 15.6812C16.1927 15.9635 15.9632 16.193 15.681 16.3367C15.4775 16.4405 15.2751 16.4735 15.1037 16.4876C14.9476 16.5003 14.7632 16.5002 14.5739 16.5002H3.42608C3.23679 16.5002 3.05245 16.5003 2.89634 16.4876C2.72489 16.4735 2.52259 16.4405 2.31902 16.3367C2.03678 16.193 1.80731 15.9635 1.66349 15.6812C1.55977 15.4777 1.52672 15.2753 1.51271 15.1039C1.49996 14.9478 1.49998 14.7635 1.5 14.5742V13.9263C1.49998 13.737 1.49996 13.5527 1.51271 13.3966C1.52672 13.2251 1.55977 13.0228 1.66349 12.8192C1.80731 12.537 2.03678 12.3075 2.31902 12.1637C2.52259 12.06 2.72489 12.0269 2.89634 12.013C2.92967 12.0102 2.96431 12.0081 3 12.0064V7.4941C2.96431 7.49241 2.92967 7.49027 2.89634 7.48754C2.72489 7.47354 2.52259 7.44049 2.31902 7.33676C2.03678 7.19296 1.80731 6.96348 1.66349 6.68124C1.55977 6.47768 1.52672 6.27537 1.51271 6.10393C1.49996 5.94781 1.49998 5.76346 1.5 5.57417V4.69238C1.49999 4.53842 1.49996 4.38536 1.50963 4.2538C1.52041 4.10698 1.54571 3.93699 1.62173 3.75998C1.7291 3.50997 1.90244 3.29387 2.1232 3.13483C2.27951 3.02222 2.43996 2.96065 2.58095 2.91827C2.70728 2.8803 2.85669 2.84712 3.00701 2.81374L8.5971 1.57147C8.67308 1.55448 8.7687 1.53308 8.86898 1.52429ZM4.5 7.50024V12.0002H6.375V7.50024H4.5ZM7.875 7.50024V12.0002H10.125V7.50024H7.875ZM11.625 7.50024V12.0002H13.5V7.50024H11.625Z" fill="white"/>
</svg>
