<svg width="18" height="18" viewBox="0 0 18 18" fill="none" xmlns="http://www.w3.org/2000/svg">
<path d="M3.75 6.74977V12.7498M7.125 6.74977V12.7498M10.875 6.74977V12.7498M14.25 6.74977V12.7498M2.25 13.9498V14.5498C2.25 14.9698 2.25 15.1798 2.33174 15.3403C2.40365 15.4814 2.51839 15.5962 2.65951 15.668C2.81994 15.7498 3.02996 15.7498 3.45 15.7498H14.55C14.9701 15.7498 15.1801 15.7498 15.3405 15.668C15.4816 15.5962 15.5963 15.4814 15.6682 15.3403C15.75 15.1798 15.75 14.9698 15.75 14.5498V13.9498C15.75 13.5298 15.75 13.3197 15.6682 13.1593C15.5963 13.0182 15.4816 12.9034 15.3405 12.8315C15.1801 12.7498 14.9701 12.7498 14.55 12.7498H3.45C3.02996 12.7498 2.81994 12.7498 2.65951 12.8315C2.51839 12.9034 2.40365 13.0182 2.33174 13.1593C2.25 13.3197 2.25 13.5298 2.25 13.9498ZM8.73967 2.30762L3.18968 3.54096C2.85439 3.61546 2.68674 3.65272 2.5616 3.74287C2.45122 3.82239 2.36455 3.93045 2.31086 4.05545C2.25 4.19716 2.25 4.3689 2.25 4.71237V5.54977C2.25 5.96981 2.25 6.17983 2.33174 6.34026C2.40365 6.48138 2.51839 6.59612 2.65951 6.66803C2.81994 6.74977 3.02996 6.74977 3.45 6.74977H14.55C14.9701 6.74977 15.1801 6.74977 15.3405 6.66803C15.4816 6.59612 15.5963 6.48138 15.6682 6.34026C15.75 6.17983 15.75 5.96981 15.75 5.54977V4.71238C15.75 4.3689 15.75 4.19717 15.6891 4.05545C15.6355 3.93045 15.5488 3.82239 15.4384 3.74287C15.3133 3.65272 15.1456 3.61546 14.8103 3.54096L9.26032 2.30762C9.1632 2.28603 9.1146 2.27524 9.06555 2.27094C9.0219 2.26711 8.9781 2.26711 8.93445 2.27094C8.8854 2.27524 8.8368 2.28603 8.73967 2.30762Z" stroke="white" stroke-width="1.41379" stroke-linecap="round" stroke-linejoin="round"/>
</svg>
