<svg width="22" height="22" viewBox="0 0 22 22" fill="none" xmlns="http://www.w3.org/2000/svg">
<path fill-rule="evenodd" clip-rule="evenodd" d="M8.93007 19.758L8.33193 18.4326C8.11881 17.9596 7.75889 17.5653 7.30395 17.3067C6.84874 17.048 6.32213 16.9377 5.7995 16.9918L4.33599 17.1453C3.90038 17.1904 3.46083 17.1102 3.07053 16.9143C2.68022 16.7185 2.35588 16.4154 2.13674 16.0417C1.91755 15.6681 1.81312 15.2398 1.83613 14.8089C1.85914 14.3779 2.0086 13.9628 2.26638 13.6139L3.13289 12.4409C3.4419 12.0222 3.60831 11.5178 3.60821 11.0001C3.60831 10.4823 3.4419 9.978 3.13289 9.55926L2.26638 8.38625C2.0086 8.03735 1.85914 7.62224 1.83613 7.19128C1.81312 6.76031 1.91755 6.33204 2.13674 5.95841C2.35566 5.58456 2.67996 5.28131 3.07032 5.08543C3.46069 4.88954 3.90035 4.80945 4.33599 4.85485L5.80405 5.00834C6.32668 5.06242 6.85329 4.95222 7.3085 4.69352C7.76174 4.43407 8.12 4.03991 8.33193 3.56755L8.93007 2.24215C9.10788 1.84761 9.39807 1.51239 9.76538 1.27713C10.1328 1.04186 10.5615 0.916677 10.9997 0.916748C11.4378 0.916677 11.8666 1.04186 12.234 1.27713C12.6013 1.51239 12.8915 1.84761 13.0693 2.24215L13.6719 3.56755C13.8839 4.03991 14.2421 4.43407 14.6954 4.69352C15.1506 4.95222 15.6772 5.06242 16.1998 5.00834L17.6634 4.85485C18.099 4.80945 18.5386 4.88954 18.929 5.08543C19.3193 5.28131 19.6437 5.58456 19.8626 5.95841C20.0818 6.33204 20.1862 6.76031 20.1632 7.19128C20.1402 7.62224 19.9907 8.03735 19.7329 8.38625L18.8664 9.55926C18.5574 9.978 18.391 10.4823 18.3911 11.0001C18.3885 11.5192 18.5534 12.0256 18.8619 12.4465L19.7284 13.6195C19.9862 13.9684 20.1356 14.3835 20.1586 14.8145C20.1816 15.2454 20.0772 15.6737 19.8581 16.0473C19.6392 16.4212 19.3148 16.7245 18.9244 16.9204C18.5341 17.1163 18.0945 17.1963 17.6588 17.1509L16.1953 16.9975C15.6727 16.9434 15.146 17.0536 14.6908 17.3122C14.2385 17.5702 13.8803 17.9623 13.6674 18.4326L13.0693 19.758C12.8915 20.1525 12.6013 20.4878 12.234 20.7231C11.8666 20.9583 11.4378 21.0835 10.9997 21.0834C10.5615 21.0835 10.1328 20.9583 9.76538 20.7231C9.39807 20.4878 9.10788 20.1525 8.93007 19.758ZM13.7497 11.0001C13.7497 12.5189 12.5185 13.7501 10.9997 13.7501C9.48085 13.7501 8.24967 12.5189 8.24967 11.0001C8.24967 9.48126 9.48085 8.25008 10.9997 8.25008C12.5185 8.25008 13.7497 9.48126 13.7497 11.0001Z" fill="white"/>
</svg>
