<svg width="22" height="22" viewBox="0 0 22 22" fill="none" xmlns="http://www.w3.org/2000/svg">
<path d="M11 13.75C12.5187 13.75 13.75 12.5188 13.75 11C13.75 9.48117 12.5187 8.25 11 8.25C9.48118 8.25 8.25 9.48117 8.25 11C8.25 12.5188 9.48118 13.75 11 13.75Z" stroke="white" stroke-width="1.83333" stroke-linecap="round" stroke-linejoin="round"/>
<path d="M8.51528 17.7568L9.05102 18.9617C9.21032 19.3203 9.47019 19.6251 9.79919 19.839C10.1283 20.0528 10.5123 20.1667 10.9047 20.1666C11.2972 20.1667 11.6812 20.0528 12.0102 19.839C12.3393 19.6251 12.5991 19.3203 12.7585 18.9617L13.2942 17.7568C13.4849 17.3292 13.8057 16.9728 14.2108 16.7383C14.6186 16.503 15.0902 16.4028 15.5583 16.4521L16.8692 16.5916C17.2594 16.6328 17.6532 16.5601 18.0028 16.3819C18.3524 16.2039 18.6429 15.9282 18.839 15.5884C19.0353 15.2487 19.1288 14.8594 19.1082 14.4676C19.0876 14.0758 18.9538 13.6984 18.7228 13.3812L17.9468 12.3148C17.6704 11.9323 17.5227 11.4718 17.5251 10.9999C17.525 10.5293 17.6741 10.0708 17.9508 9.69009L18.727 8.62372C18.9578 8.30652 19.0917 7.92915 19.1123 7.53737C19.133 7.14559 19.0394 6.75625 18.843 6.41659C18.6469 6.07671 18.3565 5.80103 18.0068 5.62296C17.6572 5.44489 17.2634 5.37207 16.8733 5.41335L15.5625 5.55288C15.0943 5.60204 14.6226 5.50186 14.215 5.26668C13.809 5.03081 13.488 4.6725 13.2983 4.24307L12.7585 3.03816C12.5991 2.67949 12.3393 2.37475 12.0102 2.16087C11.6812 1.94699 11.2972 1.83319 10.9047 1.83325C10.5123 1.83319 10.1283 1.94699 9.79919 2.16087C9.47019 2.37475 9.21032 2.67949 9.05102 3.03816L8.51528 4.24307C8.32546 4.6725 8.00458 5.03081 7.59861 5.26668C7.19089 5.50186 6.71922 5.60204 6.25111 5.55288L4.93621 5.41335C4.54601 5.37207 4.15222 5.44489 3.80257 5.62296C3.45294 5.80103 3.16246 6.07671 2.96639 6.41659C2.77006 6.75625 2.67652 7.14559 2.69714 7.53737C2.71774 7.92915 2.85161 8.30652 3.0825 8.62372L3.85861 9.69009C4.13539 10.0708 4.28444 10.5293 4.28435 10.9999C4.28444 11.4705 4.13539 11.9291 3.85861 12.3097L3.0825 13.3761C2.85161 13.6933 2.71774 14.0707 2.69714 14.4624C2.67652 14.8542 2.77006 15.2436 2.96639 15.5833C3.16267 15.923 3.45317 16.1985 3.80276 16.3765C4.15235 16.5546 4.54604 16.6275 4.93621 16.5865L6.24704 16.4469C6.71515 16.3978 7.18681 16.498 7.59454 16.7331C8.00202 16.9683 8.3244 17.3268 8.51528 17.7568Z" stroke="white" stroke-width="1.83333" stroke-linecap="round" stroke-linejoin="round"/>
</svg>
