<svg width="18" height="18" viewBox="0 0 18 18" fill="none" xmlns="http://www.w3.org/2000/svg">
<path fill-rule="evenodd" clip-rule="evenodd" d="M13.5239 11.1575C13.6271 10.7563 14.036 10.5148 14.4371 10.6181C16.0544 11.0344 17.2502 12.5015 17.2502 14.2499V15.7499C17.2502 16.1641 16.9144 16.4999 16.5002 16.4999C16.086 16.4999 15.7502 16.1641 15.7502 15.7499V14.2499C15.7502 13.2025 15.0338 12.3205 14.0633 12.0708C13.6621 11.9675 13.4206 11.5586 13.5239 11.1575Z" fill="white"/>
<path fill-rule="evenodd" clip-rule="evenodd" d="M10.93 2.18656C11.0854 1.80261 11.5226 1.61735 11.9066 1.77277C13.2795 2.32851 14.2502 3.67495 14.2502 5.2499C14.2502 6.82486 13.2795 8.1713 11.9066 8.72705C11.5226 8.88245 11.0854 8.6972 10.93 8.31328C10.7746 7.92928 10.9598 7.49205 11.3438 7.33663C12.1697 7.00229 12.7502 6.19298 12.7502 5.2499C12.7502 4.30682 12.1697 3.49751 11.3438 3.16318C10.9598 3.00775 10.7746 2.57051 10.93 2.18656Z" fill="white"/>
<path fill-rule="evenodd" clip-rule="evenodd" d="M5.38424 10.4998C6.54476 10.5002 7.70528 10.5002 8.86583 10.4998C9.68378 10.4995 10.2419 10.4993 10.7206 10.6276C12.0147 10.9743 13.0255 11.9851 13.3723 13.2792C13.5449 13.9237 13.495 14.6125 13.5002 15.2729C13.5008 15.353 13.5021 15.5152 13.4617 15.6659C13.3577 16.0542 13.0544 16.3574 12.6662 16.4615C12.5155 16.5019 12.3533 16.5005 12.2731 16.4999C8.84183 16.4726 5.40822 16.4726 1.97696 16.4999C1.89678 16.5005 1.73462 16.5019 1.58386 16.4615C1.19563 16.3574 0.892389 16.0542 0.788364 15.6659C0.747966 15.5152 0.749259 15.353 0.749898 15.2729C0.755146 14.6141 0.705392 13.9227 0.877809 13.2792C1.22456 11.9851 2.23536 10.9743 3.52946 10.6276C4.00812 10.4993 4.56627 10.4995 5.38424 10.4998Z" fill="white"/>
<path fill-rule="evenodd" clip-rule="evenodd" d="M3.375 5.24976C3.375 3.17869 5.05393 1.49976 7.125 1.49976C9.19609 1.49976 10.875 3.17869 10.875 5.24976C10.875 7.32082 9.19609 8.99976 7.125 8.99976C5.05393 8.99976 3.375 7.32082 3.375 5.24976Z" fill="white"/>
</svg>
