<svg width="18" height="18" viewBox="0 0 18 18" fill="none" xmlns="http://www.w3.org/2000/svg">
<path fill-rule="evenodd" clip-rule="evenodd" d="M1.5 2.25001H2.35913L4.43161 15.3757C4.4436 15.4519 4.45828 15.5451 4.47768 15.6271C4.50056 15.7237 4.54094 15.8567 4.62994 15.9923C4.74713 16.1709 4.91271 16.3123 5.10733 16.4002C5.25514 16.467 5.39285 16.4862 5.49191 16.4937C5.57591 16.5001 5.67024 16.5001 5.74732 16.5H14.25C14.6642 16.5 15 16.1642 15 15.75C15 15.3358 14.6642 15 14.25 15H5.89087L5.65402 13.5H13.0228C13.357 13.5 13.6482 13.5 13.891 13.4818C14.1493 13.4624 14.4056 13.4197 14.66 13.3069C15.0439 13.1367 15.3726 12.8624 15.6088 12.5151C15.7652 12.2851 15.8531 12.0405 15.9184 11.7898C15.9797 11.5542 16.0318 11.2678 16.0915 10.939L17.1128 5.32204C17.1318 5.21805 17.1537 5.09785 17.1636 4.99189C17.1747 4.87246 17.1802 4.69146 17.1092 4.49418C17.0194 4.24452 16.8442 4.03465 16.6147 3.90162C16.4333 3.7965 16.2542 3.76953 16.1347 3.75915C16.0287 3.74992 15.9065 3.74997 15.8008 3.75001H4.11455L3.81839 1.87428C3.8064 1.79814 3.79172 1.70495 3.77232 1.62297C3.74944 1.5263 3.70906 1.39326 3.62005 1.25767C3.50287 1.07914 3.33729 0.937655 3.14266 0.84974C2.99485 0.782975 2.85714 0.763842 2.75809 0.75632C2.67408 0.749934 2.57975 0.749971 2.50266 0.750005H1.5C1.08579 0.750005 0.75 1.08579 0.75 1.5C0.75 1.91422 1.08579 2.25001 1.5 2.25001Z" fill="white"/>
</svg>
