<svg width="18" height="18" viewBox="0 0 18 18" fill="none" xmlns="http://www.w3.org/2000/svg">
<path d="M4.87511 12.75H12.997C13.7095 12.75 14.0657 12.75 14.356 12.6213C14.612 12.5078 14.8311 12.325 14.9885 12.0934C15.1671 11.8308 15.2308 11.4803 15.3583 10.7793L16.3714 5.20733C16.4156 4.96438 16.4377 4.84291 16.4036 4.74805C16.3736 4.66484 16.3152 4.59488 16.2387 4.55054C16.1515 4.5 16.028 4.5 15.7811 4.5H3.75011M1.5 1.5H2.4873C2.66932 1.5 2.76033 1.5 2.83393 1.53325C2.8988 1.56255 2.954 1.60971 2.99306 1.66922C3.03738 1.73674 3.05157 1.82663 3.07996 2.00642L5.17004 15.2436C5.19843 15.4234 5.21262 15.5132 5.25694 15.5808C5.296 15.6403 5.3512 15.6874 5.41606 15.7168C5.48967 15.75 5.58068 15.75 5.7627 15.75H14.25" stroke="white" stroke-width="1.5" stroke-linecap="round" stroke-linejoin="round"/>
</svg>
